<svg width="16" height="17" viewBox="0 0 16 17" fill="none" xmlns="http://www.w3.org/2000/svg">
<path d="M7.33203 3.16714H4.53203C3.41193 3.16714 2.85187 3.16714 2.42405 3.38513C2.04773 3.57688 1.74176 3.88284 1.55002 4.25916C1.33203 4.68699 1.33203 5.24704 1.33203 6.36714V11.9671C1.33203 13.0872 1.33203 13.6473 1.55002 14.0751C1.74176 14.4514 2.04773 14.7574 2.42405 14.9492C2.85187 15.1671 3.41193 15.1671 4.53203 15.1671H10.132C11.2521 15.1671 11.8122 15.1671 12.24 14.9492C12.6163 14.7574 12.9223 14.4514 13.114 14.0751C13.332 13.6473 13.332 13.0872 13.332 11.9671V9.16714M5.33201 11.1671H6.44838C6.7745 11.1671 6.93756 11.1671 7.09101 11.1303C7.22706 11.0976 7.35711 11.0438 7.47641 10.9707C7.61097 10.8882 7.72627 10.7729 7.95687 10.5423L14.332 4.16714C14.8843 3.61486 14.8843 2.71943 14.332 2.16714C13.7797 1.61486 12.8843 1.61486 12.332 2.16714L5.95685 8.54231C5.72625 8.77291 5.61095 8.88821 5.52849 9.02276C5.45539 9.14206 5.40152 9.27212 5.36885 9.40817C5.33201 9.56162 5.33201 9.72468 5.33201 10.0508V11.1671Z" stroke="#1D1E1F" stroke-linecap="round" stroke-linejoin="round"/>
</svg>
