<svg width="292" height="66" viewBox="0 0 292 66" fill="none" xmlns="http://www.w3.org/2000/svg">
<g filter="url(#filter0_d_4526_122231)">
<rect x="14" y="12" width="264" height="33" rx="7" fill="#005CF9"/>
<path d="M38.645 26.38H36.65V29.575H35.51V21.94H36.65V25.42H38.645V26.38ZM36.8 34.795H28.43V30.37H36.68V31.315H29.585V33.865H36.8V34.795ZM33.185 28.735H27.05V22.69H28.205V24.7H32.045V22.69H33.185V28.735ZM32.045 27.79V25.645H28.205V27.79H32.045ZM51.3085 29.635H39.4735V28.675H51.3085V29.635ZM49.9735 34.675H41.0335V30.85H42.1735V33.715H49.9735V34.675ZM49.9585 24.895C49.9585 25.725 49.5535 26.365 48.7435 26.815C47.9435 27.265 46.8235 27.49 45.3835 27.49C43.9435 27.49 42.8235 27.265 42.0235 26.815C41.2335 26.365 40.8385 25.725 40.8385 24.895C40.8385 24.075 41.2385 23.445 42.0385 23.005C42.8385 22.555 43.9585 22.33 45.3985 22.33C46.8385 22.33 47.9585 22.555 48.7585 23.005C49.5585 23.445 49.9585 24.075 49.9585 24.895ZM45.3985 23.275C44.3385 23.275 43.5035 23.415 42.8935 23.695C42.2835 23.975 41.9785 24.38 41.9785 24.91C41.9785 25.43 42.2785 25.83 42.8785 26.11C43.4885 26.39 44.3235 26.53 45.3835 26.53C46.4535 26.53 47.2935 26.39 47.9035 26.11C48.5235 25.83 48.8335 25.43 48.8335 24.91C48.8335 24.37 48.5285 23.965 47.9185 23.695C47.3085 23.415 46.4685 23.275 45.3985 23.275ZM67.4625 25.825L66.9375 26.77C65.8475 26.61 64.8525 26.32 63.9525 25.9C63.0625 25.48 62.4625 24.995 62.1525 24.445C61.9025 24.995 61.3375 25.48 60.4575 25.9C59.5775 26.31 58.5675 26.595 57.4275 26.755L56.9175 25.81C57.9975 25.71 58.9675 25.47 59.8275 25.09C60.6975 24.7 61.2475 24.185 61.4775 23.545H57.3975V22.615H66.9075V23.545H62.8725C63.1325 24.165 63.7075 24.675 64.5975 25.075C65.4975 25.475 66.4525 25.725 67.4625 25.825ZM66.0825 33.55C66.0825 34.55 64.7775 35.05 62.1675 35.05C59.5575 35.05 58.2525 34.55 58.2525 33.55C58.2525 32.54 59.5575 32.035 62.1675 32.035C64.7775 32.035 66.0825 32.54 66.0825 33.55ZM68.0775 28.6H56.2425V27.67H61.5675V26.11H62.7075V27.67H68.0775V28.6ZM67.1175 31.645H57.2325V30.73H67.1175V31.645ZM62.1675 34.21C63.9575 34.21 64.8525 33.99 64.8525 33.55C64.8525 33.11 63.9575 32.89 62.1675 32.89C60.3875 32.89 59.4975 33.11 59.4975 33.55C59.4975 33.99 60.3875 34.21 62.1675 34.21ZM64.2825 30.145H60.0525V29.2H64.2825V30.145ZM81.371 28.18H79.226V35.05H78.086V21.94H79.226V27.22H81.371V28.18ZM69.326 27.55C69.326 26.15 69.621 25.03 70.211 24.19C70.811 23.35 71.636 22.93 72.686 22.93C73.736 22.93 74.556 23.35 75.146 24.19C75.736 25.03 76.031 26.155 76.031 27.565C76.031 28.975 75.736 30.1 75.146 30.94C74.556 31.78 73.736 32.2 72.686 32.2C71.636 32.2 70.811 31.78 70.211 30.94C69.621 30.09 69.326 28.96 69.326 27.55ZM74.921 27.565C74.921 26.475 74.716 25.595 74.306 24.925C73.906 24.255 73.366 23.92 72.686 23.92C72.006 23.92 71.461 24.255 71.051 24.925C70.641 25.595 70.436 26.475 70.436 27.565C70.436 28.645 70.641 29.525 71.051 30.205C71.461 30.875 72.006 31.21 72.686 31.21C73.366 31.21 73.906 30.875 74.306 30.205C74.716 29.525 74.921 28.645 74.921 27.565ZM92.6845 26.215C92.6845 27.225 92.2495 28.04 91.3795 28.66C90.5095 29.28 89.3645 29.59 87.9445 29.59C86.5345 29.59 85.3945 29.28 84.5245 28.66C83.6645 28.04 83.2345 27.225 83.2345 26.215C83.2345 25.205 83.6645 24.385 84.5245 23.755C85.3945 23.125 86.5345 22.81 87.9445 22.81C89.3745 22.81 90.5195 23.125 91.3795 23.755C92.2495 24.375 92.6845 25.195 92.6845 26.215ZM90.5845 28C91.2545 27.55 91.5895 26.955 91.5895 26.215C91.5895 25.475 91.2545 24.88 90.5845 24.43C89.9245 23.98 89.0445 23.755 87.9445 23.755C86.8545 23.755 85.9795 23.98 85.3195 24.43C84.6595 24.88 84.3295 25.475 84.3295 26.215C84.3295 26.955 84.6595 27.55 85.3195 28C85.9795 28.45 86.8545 28.675 87.9445 28.675C89.0345 28.675 89.9145 28.45 90.5845 28ZM93.8845 33.385H82.0495V32.425H84.9745V29.98L86.1145 29.95V32.425H89.7745V29.95L90.9145 29.98V32.425H93.8845V33.385Z" fill="white"/>
<path d="M102 19V38" stroke="white" stroke-width="0.5"/>
<path d="M121.97 28.69L121.34 29.65C120.28 29.33 119.27 28.785 118.31 28.015C117.36 27.235 116.745 26.495 116.465 25.795C116.225 26.495 115.635 27.235 114.695 28.015C113.755 28.785 112.735 29.325 111.635 29.635L111.035 28.66C112.185 28.43 113.28 27.86 114.32 26.95C115.37 26.04 115.895 25.08 115.895 24.07V23.035H117.08V24.07C117.08 24.58 117.24 25.1 117.56 25.63C117.88 26.15 118.285 26.615 118.775 27.025C119.265 27.425 119.79 27.775 120.35 28.075C120.92 28.375 121.46 28.58 121.97 28.69ZM122.405 33.25H110.57V32.29H122.405V33.25ZM133.794 23.38V25.06C133.784 26.07 133.724 27.2 133.614 28.45C133.514 29.7 133.374 30.71 133.194 31.48L132.099 31.33C132.259 30.59 132.389 29.48 132.489 28L124.734 28.405L124.509 27.4L132.549 27.115C132.589 26.415 132.609 25.935 132.609 25.675V24.325H124.914V23.38H133.794ZM135.309 33.145H123.474V32.185H135.309V33.145ZM147.432 34.87H138.822V29.86H139.962V31.42H146.277V29.845H147.432V34.87ZM142.692 27.61L142.842 28.555C141.122 28.845 139.457 28.99 137.847 28.99H137.007V25.39H140.757V23.74H136.962V22.795H141.897V26.32H138.147V28.03C139.887 28.03 141.402 27.89 142.692 27.61ZM147.432 29.125H146.292V26.05H144.687V29.005H143.592V22.18H144.687V25.09H146.292V21.94H147.432V29.125ZM146.277 33.925V32.335H139.962V33.925H146.277ZM161.831 29.695C160.731 29.835 159.326 29.955 157.616 30.055C155.886 30.125 154.456 30.16 153.326 30.16L153.161 29.17C154.731 29.17 155.986 29.16 156.926 29.14V27.355H154.181V22.9H160.856V23.83H155.321V26.44H160.931V27.355H158.081V29.095C159.761 29.005 160.976 28.905 161.726 28.795L161.831 29.695ZM164.156 34.72H155.336V31.015H156.476V33.775H164.156V34.72ZM163.886 31.84H162.746V21.94H163.886V31.84ZM177.13 26.875C177.13 27.385 176.905 27.79 176.455 28.09C176.005 28.38 175.415 28.555 174.685 28.615V29.455C176.365 29.375 177.68 29.275 178.63 29.155L178.75 30.055C177.41 30.205 175.975 30.325 174.445 30.415C172.645 30.525 171.195 30.58 170.095 30.58L169.93 29.59C171.23 29.59 172.435 29.565 173.545 29.515V28.615C172.825 28.555 172.245 28.38 171.805 28.09C171.365 27.8 171.145 27.4 171.145 26.89C171.145 26.31 171.425 25.87 171.985 25.57C172.545 25.27 173.26 25.12 174.13 25.12C175.01 25.12 175.73 25.27 176.29 25.57C176.85 25.86 177.13 26.295 177.13 26.875ZM181.375 34.105L180.82 35.035C179.89 34.915 178.985 34.605 178.105 34.105C177.225 33.615 176.635 33.09 176.335 32.53C176.065 33.09 175.505 33.605 174.655 34.075C173.815 34.555 172.875 34.865 171.835 35.005L171.295 34.09C172.485 34 173.525 33.67 174.415 33.1C175.315 32.53 175.765 31.865 175.765 31.105V30.79H176.935V31.105C176.935 31.855 177.39 32.52 178.3 33.1C179.21 33.68 180.235 34.015 181.375 34.105ZM180.655 31.285H179.53V21.94H180.655V31.285ZM177.88 24.7H170.47V23.77H177.88V24.7ZM175.495 27.535C175.855 27.385 176.035 27.165 176.035 26.875C176.035 26.585 175.855 26.37 175.495 26.23C175.145 26.08 174.69 26.005 174.13 26.005C173.57 26.005 173.115 26.08 172.765 26.23C172.425 26.37 172.255 26.585 172.255 26.875C172.255 27.465 172.88 27.76 174.13 27.76C174.69 27.76 175.145 27.685 175.495 27.535ZM175.96 23.05H172.345V22.105H175.96V23.05ZM189.283 35.065H188.143V30.31H182.818V29.35H194.653V30.31H189.283V35.065ZM194.173 26.98L193.633 27.955C192.603 27.745 191.623 27.35 190.693 26.77C189.763 26.19 189.108 25.53 188.728 24.79C188.528 25.28 188.163 25.75 187.633 26.2C187.113 26.65 186.523 27.03 185.863 27.34C185.213 27.64 184.548 27.855 183.868 27.985L183.313 27.01C184.603 26.84 185.728 26.39 186.688 25.66C187.658 24.92 188.143 24.11 188.143 23.23V22.39H189.343V23.23C189.343 24.09 189.848 24.895 190.858 25.645C191.868 26.385 192.973 26.83 194.173 26.98Z" fill="white"/>
<path d="M203 19V38" stroke="white" stroke-width="0.5"/>
<path d="M222.625 35.05H221.5V21.94H222.625V35.05ZM220.075 34.39H218.98V28H216.775V27.04H218.98V22.255H220.075V34.39ZM217.105 23.47C217.015 27.27 215.385 30.195 212.215 32.245L211.435 31.405C212.775 30.645 213.84 29.635 214.63 28.375C215.43 27.115 215.865 25.8 215.935 24.43H211.945V23.47H217.105ZM235.274 35.05H234.119V21.94H235.274V35.05ZM232.454 31.03L231.734 31.9C231.074 31.45 230.429 30.855 229.799 30.115C229.169 29.365 228.734 28.625 228.494 27.895C228.264 28.685 227.844 29.465 227.234 30.235C226.634 30.995 225.939 31.655 225.149 32.215L224.399 31.36C225.389 30.74 226.219 29.885 226.889 28.795C227.559 27.695 227.894 26.58 227.894 25.45V23.08H229.049V25.405C229.049 26.555 229.374 27.64 230.024 28.66C230.684 29.67 231.494 30.46 232.454 31.03ZM248.237 34.87H238.787V31.615H246.587V30.205H238.682V29.29H247.727V32.455H239.927V33.955H248.237V34.87ZM247.742 22.645C247.742 24.275 247.607 25.69 247.337 26.89H249.212V27.82H237.377V26.89H246.197C246.447 25.95 246.572 24.85 246.572 23.59H238.817V22.645H247.742ZM260.611 35.065H259.471V30.31H254.146V29.35H265.981V30.31H260.611V35.065ZM265.501 26.98L264.961 27.955C263.931 27.745 262.951 27.35 262.021 26.77C261.091 26.19 260.436 25.53 260.056 24.79C259.856 25.28 259.491 25.75 258.961 26.2C258.441 26.65 257.851 27.03 257.191 27.34C256.541 27.64 255.876 27.855 255.196 27.985L254.641 27.01C255.931 26.84 257.056 26.39 258.016 25.66C258.986 24.92 259.471 24.11 259.471 23.23V22.39H260.671V23.23C260.671 24.09 261.176 24.895 262.186 25.645C263.196 26.385 264.301 26.83 265.501 26.98Z" fill="white"/>
<path d="M153 44.9993L146 49.666L139 44.9993L153 44.9993Z" fill="#005CF9"/>
</g>
<defs>
<filter id="filter0_d_4526_122231" x="0" y="0" width="292" height="65.666" filterUnits="userSpaceOnUse" color-interpolation-filters="sRGB">
<feFlood flood-opacity="0" result="BackgroundImageFix"/>
<feColorMatrix in="SourceAlpha" type="matrix" values="0 0 0 0 0 0 0 0 0 0 0 0 0 0 0 0 0 0 127 0" result="hardAlpha"/>
<feOffset dy="2"/>
<feGaussianBlur stdDeviation="7"/>
<feComposite in2="hardAlpha" operator="out"/>
<feColorMatrix type="matrix" values="0 0 0 0 0 0 0 0 0 0 0 0 0 0 0 0 0 0 0.08 0"/>
<feBlend mode="normal" in2="BackgroundImageFix" result="effect1_dropShadow_4526_122231"/>
<feBlend mode="normal" in="SourceGraphic" in2="effect1_dropShadow_4526_122231" result="shape"/>
</filter>
</defs>
</svg>
