<svg width="20" height="21" viewBox="0 0 20 21" fill="none" xmlns="http://www.w3.org/2000/svg">
<path d="M10.0003 18.8815C14.6027 18.8815 18.3337 15.1505 18.3337 10.5482C18.3337 5.9458 14.6027 2.21484 10.0003 2.21484C5.39795 2.21484 1.66699 5.9458 1.66699 10.5482C1.66699 15.1505 5.39795 18.8815 10.0003 18.8815Z" fill="#005CF9"/>
<path d="M10.0003 18.8815C14.6027 18.8815 18.3337 15.1505 18.3337 10.5482C18.3337 5.9458 14.6027 2.21484 10.0003 2.21484C5.39795 2.21484 1.66699 5.9458 1.66699 10.5482C1.66699 15.1505 5.39795 18.8815 10.0003 18.8815Z" fill="#005CF9"/>
<path d="M6.25033 10.5482L8.75033 13.0482L13.7503 8.04818M18.3337 10.5482C18.3337 15.1506 14.6027 18.8815 10.0003 18.8815C5.39795 18.8815 1.66699 15.1506 1.66699 10.5482C1.66699 5.9458 5.39795 2.21484 10.0003 2.21484C14.6027 2.21484 18.3337 5.9458 18.3337 10.5482Z" stroke="#005CF9" stroke-linecap="round" stroke-linejoin="round"/>
<path d="M6.25 10.5488L8.75 13.0488L13.75 8.04883" stroke="white" stroke-linecap="round" stroke-linejoin="round"/>
</svg>
