<svg width="102" height="22" viewBox="0 0 102 22" fill="none" xmlns="http://www.w3.org/2000/svg">
<path d="M10.04 15.3882C9.05 16.3982 7.825 16.9032 6.365 16.9032C4.905 16.9032 3.685 16.3982 2.705 15.3882C1.725 14.3782 1.235 13.1532 1.235 11.7132C1.235 10.2732 1.725 9.05322 2.705 8.05322C3.685 7.04322 4.905 6.53822 6.365 6.53822C7.825 6.53822 9.05 7.04322 10.04 8.05322C11.04 9.05322 11.54 10.2732 11.54 11.7132C11.54 13.1532 11.04 14.3782 10.04 15.3882ZM6.365 16.2282C7.635 16.2282 8.675 15.8032 9.485 14.9532C10.305 14.1032 10.715 13.0232 10.715 11.7132C10.715 10.4032 10.305 9.32822 9.485 8.48822C8.675 7.63822 7.635 7.21322 6.365 7.21322C5.095 7.21322 4.055 7.63822 3.245 8.48822C2.435 9.32822 2.03 10.4032 2.03 11.7132C2.03 13.0232 2.435 14.1032 3.245 14.9532C4.065 15.8032 5.105 16.2282 6.365 16.2282ZM6.485 14.5782C5.695 14.5782 5.07 14.3432 4.61 13.8732C4.15 13.3932 3.92 12.6932 3.92 11.7732V11.6082C3.92 10.6682 4.165 9.96822 4.655 9.50822C5.145 9.04822 5.785 8.81822 6.575 8.81822C7.155 8.81822 7.62 8.92822 7.97 9.14822V9.97322C7.5 9.79322 7.015 9.70322 6.515 9.70322C5.525 9.70322 5.03 10.3082 5.03 11.5182V11.7732C5.03 13.0632 5.56 13.7082 6.62 13.7082C7.12 13.7082 7.59 13.5882 8.03 13.3482V14.1882C7.6 14.4482 7.085 14.5782 6.485 14.5782ZM17.3431 16.9182V6.85322H19.1131L22.0231 15.3582H22.0531L24.9481 6.85322H26.7031V16.9182H25.5031V8.41322H25.4581L22.5181 16.9182H21.4081L18.4981 8.41322H18.4531V16.9182H17.3431ZM32.0716 17.0532C30.9216 17.0532 30.0466 16.7232 29.4466 16.0632C28.8466 15.4032 28.5466 14.4832 28.5466 13.3032V13.0932C28.5466 11.8632 28.8566 10.9332 29.4766 10.3032C30.0966 9.66322 30.8666 9.34322 31.7866 9.34322C33.7866 9.34322 34.7866 10.5082 34.7866 12.8382V13.4832H29.7166C29.7466 14.3932 29.9716 15.0532 30.3916 15.4632C30.8116 15.8632 31.4316 16.0632 32.2516 16.0632C33.0116 16.0632 33.7866 15.8782 34.5766 15.5082V16.3632C33.9166 16.8232 33.0816 17.0532 32.0716 17.0532ZM31.7566 10.2732C31.2266 10.2732 30.7666 10.4532 30.3766 10.8132C29.9966 11.1732 29.7766 11.7582 29.7166 12.5682H33.5866C33.5866 11.7682 33.4366 11.1882 33.1366 10.8282C32.8366 10.4582 32.3766 10.2732 31.7566 10.2732ZM36.4366 16.9182V9.47822H37.5316V10.1232H37.5916C38.4116 9.60322 39.1866 9.34322 39.9166 9.34322C40.7666 9.34322 41.3616 9.61822 41.7016 10.1682H41.7616C42.6116 9.61822 43.4516 9.34322 44.2816 9.34322C45.6416 9.34322 46.3216 10.0182 46.3216 11.3682V16.9182H45.1966V11.6082C45.1966 11.1482 45.0916 10.8232 44.8816 10.6332C44.6816 10.4332 44.3316 10.3332 43.8316 10.3332C43.3616 10.3332 42.7216 10.5132 41.9116 10.8732C41.9416 11.0532 41.9566 11.2182 41.9566 11.3682V16.9182H40.8166V11.6082C40.8166 11.1582 40.7116 10.8332 40.5016 10.6332C40.3016 10.4332 39.9566 10.3332 39.4666 10.3332C38.9666 10.3332 38.3366 10.5132 37.5766 10.8732V16.9182H36.4366ZM51.2976 17.0532C50.2476 17.0532 49.4226 16.7282 48.8226 16.0782C48.2326 15.4282 47.9376 14.5132 47.9376 13.3332V13.1082C47.9376 11.9482 48.2426 11.0332 48.8526 10.3632C49.4726 9.68322 50.2926 9.34322 51.3126 9.34322C52.3626 9.34322 53.1876 9.67322 53.7876 10.3332C54.3876 10.9832 54.6876 11.8932 54.6876 13.0632V13.2732C54.6876 14.4432 54.3776 15.3682 53.7576 16.0482C53.1376 16.7182 52.3176 17.0532 51.2976 17.0532ZM51.3276 16.1082C52.0076 16.1082 52.5426 15.8782 52.9326 15.4182C53.3226 14.9482 53.5176 14.2782 53.5176 13.4082V13.0332C53.5176 12.0632 53.3126 11.3632 52.9026 10.9332C52.5026 10.5032 51.9676 10.2882 51.2976 10.2882C50.6176 10.2882 50.0826 10.5232 49.6926 10.9932C49.3026 11.4632 49.1076 12.1282 49.1076 12.9882V13.3632C49.1076 15.1932 49.8476 16.1082 51.3276 16.1082ZM56.3853 16.9182V9.49322H57.5253V16.9182H56.3853ZM56.3703 7.99322V6.79322H57.5403V7.99322H56.3703ZM59.6637 16.9182V9.47822H60.7587V10.3182H60.8337C61.0537 10.0582 61.3537 9.84322 61.7337 9.67322C62.1137 9.49322 62.5037 9.40322 62.9037 9.40322C63.1037 9.40322 63.2537 9.41322 63.3537 9.43322V10.4682C63.1637 10.4382 62.9837 10.4232 62.8137 10.4232C62.0837 10.4232 61.4187 10.6382 60.8187 11.0682V16.9182H59.6637ZM68.4747 16.9182V16.2132L70.8747 13.7232C71.7147 12.8432 72.3197 12.1182 72.6897 11.5482C73.0697 10.9782 73.2597 10.3632 73.2597 9.70322C73.2597 8.37322 72.5697 7.70822 71.1897 7.70822C70.4797 7.70822 69.7297 7.98322 68.9397 8.53322L68.5947 7.58822C69.5447 6.97822 70.4747 6.67322 71.3847 6.67322C72.3847 6.67322 73.1547 6.93322 73.6947 7.45322C74.2347 7.97322 74.5047 8.68822 74.5047 9.59822C74.5047 10.3982 74.2897 11.1282 73.8597 11.7882C73.4297 12.4482 72.7147 13.2882 71.7147 14.3082L70.1397 15.8982H74.7297V16.9182H68.4747ZM80.2078 17.0982C79.1078 17.0982 78.2178 16.7032 77.5378 15.9132C76.8578 15.1132 76.5178 13.9032 76.5178 12.2832V11.4432C76.5178 9.78322 76.8578 8.57822 77.5378 7.82822C78.2278 7.06822 79.1228 6.68822 80.2228 6.68822C81.3028 6.68822 82.1678 7.06322 82.8178 7.81322C83.4778 8.55322 83.8078 9.74322 83.8078 11.3832V12.2982C83.8078 13.9182 83.4778 15.1232 82.8178 15.9132C82.1678 16.7032 81.2978 17.0982 80.2078 17.0982ZM80.2078 16.1082C80.9978 16.1082 81.5928 15.8182 81.9928 15.2382C82.3928 14.6582 82.5928 13.7382 82.5928 12.4782V11.3682C82.5928 8.90822 81.8028 7.67822 80.2228 7.67822C78.6028 7.67822 77.7928 8.88322 77.7928 11.2932V12.4032C77.7928 14.8732 78.5978 16.1082 80.2078 16.1082ZM85.771 16.9182V16.2132L88.171 13.7232C89.011 12.8432 89.616 12.1182 89.986 11.5482C90.366 10.9782 90.556 10.3632 90.556 9.70322C90.556 8.37322 89.866 7.70822 88.486 7.70822C87.776 7.70822 87.026 7.98322 86.236 8.53322L85.891 7.58822C86.841 6.97822 87.771 6.67322 88.681 6.67322C89.681 6.67322 90.451 6.93322 90.991 7.45322C91.531 7.97322 91.801 8.68822 91.801 9.59822C91.801 10.3982 91.586 11.1282 91.156 11.7882C90.726 12.4482 90.011 13.2882 89.011 14.3082L87.436 15.8982H92.026V16.9182H85.771ZM97.9541 17.1582V14.8032H93.1991V13.9032L98.1191 6.71822H99.0491V13.8282H100.729V14.8032H99.0491V17.1582H97.9541ZM94.4741 13.8282H97.9541V8.60822L94.4741 13.8282Z" fill="#63676A"/>
</svg>