<svg width="115" height="13" viewBox="0 0 115 13" fill="none" xmlns="http://www.w3.org/2000/svg">
<path d="M0.678563 12V11.52C0.753229 11.52 0.854563 11.5147 0.982563 11.504C1.12123 11.4827 1.2279 11.4667 1.30256 11.456C1.36656 11.4347 1.43056 11.4133 1.49456 11.392C1.55856 11.3707 1.61723 11.344 1.67056 11.312C1.7239 11.28 1.76656 11.2427 1.79856 11.2C1.84123 11.1467 1.87323 11.088 1.89456 11.024C1.9159 10.9813 1.9319 10.9227 1.94256 10.848C1.95323 10.7627 1.95856 10.688 1.95856 10.624V2.016C1.95856 1.952 1.95323 1.88267 1.94256 1.808C1.9319 1.72267 1.9159 1.65867 1.89456 1.616C1.87323 1.552 1.84123 1.49867 1.79856 1.456C1.76656 1.40267 1.7239 1.36 1.67056 1.328C1.61723 1.296 1.55856 1.26933 1.49456 1.248C1.43056 1.216 1.36656 1.19467 1.30256 1.184C1.2279 1.16267 1.12123 1.14667 0.982563 1.136C0.854563 1.12533 0.753229 1.12 0.678563 1.12V0.639999H4.71056C4.9559 0.639999 5.3239 0.682666 5.81456 0.768C6.3159 0.842666 6.7159 0.938666 7.01456 1.056C7.28123 1.16267 7.5479 1.296 7.81456 1.456C8.08123 1.616 8.2999 1.77067 8.47056 1.92C8.6839 2.112 8.88656 2.35733 9.07856 2.656C9.27056 2.95467 9.43056 3.27467 9.55856 3.616C9.6759 3.94667 9.77723 4.368 9.86256 4.88C9.9479 5.38133 9.99056 5.81333 9.99056 6.176C9.99056 6.50667 9.9479 6.95467 9.86256 7.52C9.7879 8.07467 9.69723 8.50133 9.59056 8.8C9.4519 9.20533 9.30256 9.55733 9.14256 9.856C8.98256 10.144 8.7959 10.3947 8.58256 10.608C8.4119 10.7787 8.2039 10.9547 7.95856 11.136C7.7239 11.3067 7.49456 11.4453 7.27056 11.552C7.01456 11.6693 6.6519 11.776 6.18256 11.872C5.71323 11.9573 5.33456 12 5.04656 12H0.678563ZM4.29456 1.12C4.17723 1.12 4.05456 1.12533 3.92656 1.136C3.80923 1.14667 3.7239 1.15733 3.67056 1.168C3.57456 1.17867 3.4839 1.2 3.39856 1.232C3.31323 1.264 3.2279 1.312 3.14256 1.376C3.07856 1.41867 3.0199 1.49333 2.96656 1.6C2.91323 1.70667 2.88656 1.824 2.88656 1.952V10.688C2.88656 10.784 2.90256 10.8907 2.93456 11.008C2.97723 11.1253 3.04123 11.216 3.12656 11.28C3.2119 11.344 3.3079 11.392 3.41456 11.424C3.5319 11.456 3.63323 11.4773 3.71856 11.488C3.81456 11.4987 3.92123 11.5093 4.03856 11.52C4.16656 11.52 4.27856 11.52 4.37456 11.52H4.79056C4.9719 11.52 5.25456 11.4933 5.63856 11.44C6.03323 11.376 6.3479 11.2907 6.58256 11.184C6.81723 11.0773 7.0519 10.944 7.28656 10.784C7.52123 10.6133 7.71323 10.4427 7.86256 10.272C8.0439 10.0587 8.19856 9.808 8.32656 9.52C8.46523 9.232 8.58256 8.91733 8.67856 8.576C8.75323 8.32 8.82256 7.94667 8.88656 7.456C8.96123 6.95467 8.99856 6.528 8.99856 6.176C8.99856 5.87733 8.9719 5.51467 8.91856 5.088C8.86523 4.66133 8.8119 4.36267 8.75856 4.192C8.69456 3.95733 8.61456 3.728 8.51856 3.504C8.42256 3.28 8.30523 3.06133 8.16656 2.848C8.0279 2.63467 7.84656 2.42667 7.62256 2.224C7.40923 2.01067 7.2119 1.84533 7.03056 1.728C6.87056 1.62133 6.67856 1.53067 6.45456 1.456C6.24123 1.37067 6.04923 1.30667 5.87856 1.264C5.7079 1.22133 5.50523 1.18933 5.27056 1.168C5.0359 1.136 4.8439 1.12 4.69456 1.12H4.29456ZM13.4986 7.712L12.5706 10.608C12.5492 10.6933 12.5279 10.784 12.5066 10.88C12.4852 10.976 12.4746 11.056 12.4746 11.12C12.4746 11.184 12.5012 11.2427 12.5546 11.296C12.6186 11.3493 12.6826 11.3867 12.7466 11.408C12.8532 11.44 12.9866 11.4667 13.1466 11.488C13.3066 11.5093 13.4986 11.52 13.7226 11.52V12H10.6186V11.52C10.7999 11.52 10.9866 11.4987 11.1786 11.456C11.3812 11.4133 11.5306 11.344 11.6266 11.248C11.7119 11.1733 11.7972 11.072 11.8826 10.944C11.9679 10.8053 12.0372 10.656 12.0906 10.496L15.2906 0.575999L15.8666 0.415999L19.4506 10.688C19.4932 10.7627 19.5359 10.848 19.5786 10.944C19.6319 11.0293 19.6799 11.0987 19.7226 11.152C19.7759 11.216 19.8292 11.2693 19.8826 11.312C19.9466 11.3547 20.0159 11.392 20.0906 11.424C20.1759 11.456 20.2666 11.4773 20.3626 11.488C20.4586 11.4987 20.5706 11.5093 20.6986 11.52V12H17.3386V11.52C17.5412 11.52 17.7172 11.5147 17.8666 11.504C18.0159 11.4827 18.1279 11.4613 18.2026 11.44C18.2879 11.4187 18.3572 11.3813 18.4106 11.328C18.4639 11.2747 18.4906 11.2107 18.4906 11.136C18.4906 11.0933 18.4799 11.024 18.4586 10.928C18.4479 10.8213 18.4266 10.7147 18.3946 10.608L17.3866 7.712H13.4986ZM15.3706 1.888L13.6586 7.232H17.2266L15.3706 1.888ZM29.9543 0.639999L30.4823 3.472H30.1943C30.1303 3.33333 30.0556 3.184 29.9703 3.024C29.8956 2.864 29.8156 2.71467 29.7303 2.576C29.6556 2.43733 29.5703 2.29867 29.4743 2.16C29.3783 2.02133 29.2663 1.888 29.1383 1.76C29.0316 1.65333 28.909 1.55733 28.7703 1.472C28.6423 1.38667 28.509 1.31733 28.3703 1.264C28.2636 1.22133 28.1196 1.18933 27.9383 1.168C27.7676 1.136 27.6236 1.12 27.5063 1.12H27.2663C27.1916 1.12 27.101 1.12533 26.9943 1.136C26.8983 1.14667 26.8183 1.16267 26.7543 1.184C26.6796 1.20533 26.5996 1.24267 26.5143 1.296C26.4396 1.33867 26.3756 1.38667 26.3223 1.44C26.2796 1.49333 26.2423 1.568 26.2103 1.664C26.1783 1.76 26.1623 1.85067 26.1623 1.936V10.624C26.1623 10.688 26.1676 10.7627 26.1783 10.848C26.1996 10.9227 26.2156 10.9813 26.2263 11.024C26.2476 11.088 26.2796 11.1467 26.3223 11.2C26.365 11.2427 26.4076 11.28 26.4503 11.312C26.5036 11.344 26.5623 11.3707 26.6263 11.392C26.701 11.4133 26.7703 11.4347 26.8343 11.456C26.9196 11.4667 27.0476 11.4827 27.2183 11.504C27.3996 11.5147 27.5276 11.52 27.6023 11.52V12H23.7943V11.52C23.869 11.52 23.997 11.5147 24.1783 11.504C24.3596 11.4827 24.4876 11.4667 24.5623 11.456C24.6263 11.4347 24.6903 11.4133 24.7543 11.392C24.829 11.3707 24.893 11.344 24.9463 11.312C24.9996 11.28 25.0423 11.2427 25.0743 11.2C25.117 11.1467 25.149 11.088 25.1703 11.024C25.1916 10.9813 25.2076 10.9227 25.2183 10.848C25.229 10.7627 25.2343 10.688 25.2343 10.624V1.936C25.2343 1.85067 25.2183 1.76 25.1863 1.664C25.165 1.568 25.1276 1.49333 25.0743 1.44C25.0316 1.38667 24.9676 1.33867 24.8823 1.296C24.8076 1.24267 24.7276 1.20533 24.6423 1.184C24.5783 1.16267 24.493 1.14667 24.3863 1.136C24.2903 1.12533 24.205 1.12 24.1303 1.12H23.8903C23.773 1.12 23.6236 1.136 23.4423 1.168C23.2716 1.18933 23.133 1.22133 23.0263 1.264C22.8876 1.31733 22.749 1.38667 22.6103 1.472C22.4823 1.55733 22.365 1.65333 22.2583 1.76C22.1303 1.888 22.0183 2.02133 21.9223 2.16C21.837 2.29867 21.7516 2.43733 21.6663 2.576C21.5916 2.71467 21.5116 2.864 21.4263 3.024C21.341 3.184 21.2663 3.33333 21.2023 3.472H20.9143L21.4423 0.639999H29.9543ZM35.3024 5.856C35.3878 5.856 35.4944 5.85067 35.6224 5.84C35.7504 5.81867 35.8411 5.80267 35.8944 5.792C35.9478 5.77067 36.0118 5.744 36.0864 5.712C36.1718 5.66933 36.2358 5.61067 36.2784 5.536C36.3318 5.472 36.3744 5.38133 36.4064 5.264C36.4491 5.136 36.4758 5.01867 36.4864 4.912C36.5078 4.82667 36.5238 4.69867 36.5344 4.528C36.5451 4.35733 36.5504 4.21867 36.5504 4.112H36.9024V8.192H36.5504C36.5504 8.10667 36.5451 7.968 36.5344 7.776C36.5238 7.584 36.5078 7.44 36.4864 7.344C36.4758 7.23733 36.4491 7.11467 36.4064 6.976C36.3638 6.83733 36.3158 6.736 36.2624 6.672C36.2198 6.608 36.1504 6.54933 36.0544 6.496C35.9584 6.44267 35.8838 6.41067 35.8304 6.4C35.7664 6.37867 35.6704 6.36267 35.5424 6.352C35.4251 6.34133 35.3238 6.336 35.2384 6.336H33.4144V10.656C33.4144 10.752 33.4358 10.864 33.4784 10.992C33.5318 11.1093 33.5958 11.1947 33.6704 11.248C33.7558 11.312 33.8571 11.36 33.9744 11.392C34.1024 11.424 34.2198 11.4507 34.3264 11.472C34.4224 11.4827 34.5558 11.4933 34.7264 11.504C34.8971 11.5147 35.0358 11.52 35.1424 11.52H35.5584C35.7824 11.52 36.0438 11.5093 36.3424 11.488C36.6411 11.456 36.8864 11.4187 37.0784 11.376C37.2598 11.3227 37.4251 11.2587 37.5744 11.184C37.7344 11.0987 37.8731 11.0133 37.9904 10.928C38.1291 10.8213 38.2518 10.704 38.3584 10.576C38.4758 10.448 38.5878 10.288 38.6944 10.096C38.7798 9.95733 38.8598 9.792 38.9344 9.6C39.0198 9.408 39.0891 9.232 39.1424 9.072H39.3664L38.9824 12H31.2064V11.52C31.2811 11.52 31.3824 11.5147 31.5104 11.504C31.6491 11.4827 31.7558 11.4667 31.8304 11.456C31.8944 11.4347 31.9584 11.4133 32.0224 11.392C32.0864 11.3707 32.1451 11.344 32.1984 11.312C32.2518 11.28 32.2944 11.2427 32.3264 11.2C32.3691 11.1467 32.4011 11.088 32.4224 11.024C32.4438 10.9813 32.4598 10.9227 32.4704 10.848C32.4811 10.7627 32.4864 10.688 32.4864 10.624V2.016C32.4864 1.952 32.4811 1.88267 32.4704 1.808C32.4598 1.72267 32.4438 1.65867 32.4224 1.616C32.4011 1.552 32.3691 1.49867 32.3264 1.456C32.2944 1.40267 32.2518 1.36 32.1984 1.328C32.1451 1.296 32.0864 1.26933 32.0224 1.248C31.9584 1.216 31.8944 1.19467 31.8304 1.184C31.7558 1.16267 31.6491 1.14667 31.5104 1.136C31.3824 1.12533 31.2811 1.12 31.2064 1.12V0.639999H38.9184L39.2384 3.568H38.9664C38.9024 3.39733 38.8278 3.22133 38.7424 3.04C38.6571 2.85867 38.5664 2.68267 38.4704 2.512C38.3958 2.384 38.2838 2.23467 38.1344 2.064C37.9958 1.89333 37.8464 1.75467 37.6864 1.648C37.5478 1.552 37.3558 1.46133 37.1104 1.376C36.8758 1.29067 36.6784 1.23733 36.5184 1.216C36.3798 1.19467 36.2091 1.17333 36.0064 1.152C35.8144 1.13067 35.6224 1.12 35.4304 1.12H34.9824C34.8438 1.12 34.6678 1.13067 34.4544 1.152C34.2518 1.16267 34.1131 1.17867 34.0384 1.2C33.9424 1.22133 33.8518 1.25867 33.7664 1.312C33.6918 1.35467 33.6278 1.40267 33.5744 1.456C33.5318 1.50933 33.4944 1.584 33.4624 1.68C33.4304 1.776 33.4144 1.86667 33.4144 1.952V5.856H35.3024ZM45.0636 6.32C45.0636 5.968 45.0956 5.55733 45.1596 5.088C45.2236 4.61867 45.3036 4.224 45.3996 3.904C45.4849 3.616 45.6022 3.30667 45.7516 2.976C45.9009 2.64533 46.0716 2.35733 46.2636 2.112C46.4129 1.90933 46.5942 1.70667 46.8076 1.504C47.0316 1.30133 47.2769 1.12 47.5436 0.959999C47.7782 0.821333 48.1089 0.698666 48.5356 0.591999C48.9622 0.474666 49.3356 0.415999 49.6556 0.415999C49.9756 0.415999 50.3489 0.474666 50.7756 0.591999C51.2022 0.698666 51.5329 0.821333 51.7676 0.959999C52.0342 1.12 52.2742 1.30133 52.4876 1.504C52.7116 1.70667 52.8982 1.90933 53.0476 2.112C53.2396 2.35733 53.4102 2.64533 53.5596 2.976C53.7089 3.30667 53.8262 3.616 53.9116 3.904C54.0076 4.224 54.0876 4.61867 54.1516 5.088C54.2156 5.55733 54.2476 5.968 54.2476 6.32C54.2476 6.672 54.2156 7.08267 54.1516 7.552C54.0876 8.02133 54.0076 8.416 53.9116 8.736C53.8262 9.024 53.7089 9.33333 53.5596 9.664C53.4102 9.99467 53.2396 10.2827 53.0476 10.528C52.8982 10.7307 52.7116 10.9333 52.4876 11.136C52.2742 11.3387 52.0342 11.52 51.7676 11.68C51.5329 11.8187 51.2022 11.9413 50.7756 12.048C50.3489 12.1653 49.9756 12.224 49.6556 12.224C49.3356 12.224 48.9622 12.1653 48.5356 12.048C48.1089 11.9413 47.7782 11.8187 47.5436 11.68C47.2769 11.52 47.0316 11.3387 46.8076 11.136C46.5942 10.9333 46.4129 10.7307 46.2636 10.528C46.0716 10.2827 45.9009 9.99467 45.7516 9.664C45.6022 9.33333 45.4849 9.024 45.3996 8.736C45.3036 8.416 45.2236 8.02133 45.1596 7.552C45.0956 7.08267 45.0636 6.672 45.0636 6.32ZM46.1036 6.32C46.1036 6.55467 46.1196 6.88533 46.1516 7.312C46.1942 7.73867 46.2476 8.10667 46.3116 8.416C46.3649 8.672 46.4502 8.95467 46.5676 9.264C46.6956 9.57333 46.8182 9.824 46.9356 10.016C47.0529 10.208 47.2076 10.4107 47.3996 10.624C47.5916 10.8373 47.7889 11.0187 47.9916 11.168C48.1836 11.3067 48.4502 11.424 48.7916 11.52C49.1436 11.616 49.4316 11.664 49.6556 11.664C49.8796 11.664 50.1622 11.616 50.5036 11.52C50.8556 11.424 51.1276 11.3067 51.3196 11.168C51.5329 11.0187 51.7302 10.8373 51.9116 10.624C52.1036 10.4107 52.2582 10.208 52.3756 10.016C52.4929 9.824 52.6102 9.57333 52.7276 9.264C52.8556 8.95467 52.9462 8.672 52.9996 8.416C53.0636 8.10667 53.1116 7.73867 53.1436 7.312C53.1862 6.88533 53.2076 6.55467 53.2076 6.32C53.2076 6.08533 53.1862 5.75467 53.1436 5.328C53.1116 4.89067 53.0636 4.52267 52.9996 4.224C52.9462 3.968 52.8556 3.68533 52.7276 3.376C52.6102 3.06667 52.4929 2.816 52.3756 2.624C52.2582 2.432 52.1036 2.22933 51.9116 2.016C51.7302 1.80267 51.5329 1.62133 51.3196 1.472C51.1276 1.32267 50.8556 1.20533 50.5036 1.12C50.1622 1.024 49.8796 0.976 49.6556 0.976C49.4316 0.976 49.1436 1.024 48.7916 1.12C48.4502 1.20533 48.1836 1.32267 47.9916 1.472C47.7889 1.62133 47.5916 1.80267 47.3996 2.016C47.2076 2.22933 47.0529 2.432 46.9356 2.624C46.8182 2.816 46.6956 3.06667 46.5676 3.376C46.4502 3.68533 46.3649 3.968 46.3116 4.224C46.2476 4.52267 46.1942 4.89067 46.1516 5.328C46.1196 5.75467 46.1036 6.08533 46.1036 6.32ZM59.4363 5.856C59.5216 5.856 59.6283 5.85067 59.7563 5.84C59.8843 5.81867 59.975 5.80267 60.0283 5.792C60.0816 5.77067 60.1456 5.744 60.2203 5.712C60.3056 5.66933 60.3696 5.61067 60.4123 5.536C60.4656 5.472 60.5083 5.38133 60.5403 5.264C60.583 5.136 60.6096 5.01867 60.6203 4.912C60.6416 4.82667 60.6576 4.69867 60.6683 4.528C60.679 4.35733 60.6843 4.21867 60.6843 4.112H61.0363V8.192H60.6843C60.6843 8.10667 60.679 7.968 60.6683 7.776C60.6576 7.584 60.6416 7.44 60.6203 7.344C60.6096 7.23733 60.583 7.11467 60.5403 6.976C60.4976 6.83733 60.4496 6.736 60.3963 6.672C60.3536 6.608 60.2843 6.54933 60.1883 6.496C60.0923 6.44267 60.0176 6.41067 59.9643 6.4C59.9003 6.37867 59.8043 6.36267 59.6763 6.352C59.559 6.34133 59.4576 6.336 59.3723 6.336H57.6923V10.624C57.6923 10.688 57.6976 10.7627 57.7083 10.848C57.7296 10.9227 57.7456 10.9813 57.7563 11.024C57.7776 11.088 57.8096 11.1467 57.8523 11.2C57.895 11.2427 57.9376 11.28 57.9803 11.312C58.0336 11.344 58.0923 11.3707 58.1563 11.392C58.2203 11.4133 58.2843 11.4347 58.3483 11.456C58.4336 11.4667 58.5403 11.4827 58.6683 11.504C58.7963 11.5147 58.8976 11.52 58.9723 11.52V12H55.4843V11.52C55.559 11.52 55.6603 11.5147 55.7883 11.504C55.927 11.4827 56.0336 11.4667 56.1083 11.456C56.1723 11.4347 56.2363 11.4133 56.3003 11.392C56.3643 11.3707 56.423 11.344 56.4763 11.312C56.5296 11.28 56.5723 11.2427 56.6043 11.2C56.647 11.1467 56.679 11.088 56.7003 11.024C56.7216 10.9813 56.7376 10.9227 56.7483 10.848C56.759 10.7627 56.7643 10.688 56.7643 10.624V2.016C56.7643 1.952 56.759 1.88267 56.7483 1.808C56.7376 1.72267 56.7216 1.65867 56.7003 1.616C56.679 1.552 56.647 1.49867 56.6043 1.456C56.5723 1.40267 56.5296 1.36 56.4763 1.328C56.423 1.296 56.3643 1.26933 56.3003 1.248C56.2363 1.216 56.1723 1.19467 56.1083 1.184C56.0336 1.16267 55.927 1.14667 55.7883 1.136C55.6603 1.12533 55.559 1.12 55.4843 1.12V0.639999H63.3243L63.6763 3.68H63.4363C63.3616 3.488 63.271 3.29067 63.1643 3.088C63.0576 2.88533 62.951 2.69867 62.8443 2.528C62.7483 2.368 62.6256 2.208 62.4763 2.048C62.327 1.888 62.1723 1.75467 62.0123 1.648C61.8523 1.54133 61.6496 1.45067 61.4043 1.376C61.1696 1.29067 60.967 1.23733 60.7963 1.216C60.6896 1.19467 60.5243 1.17333 60.3003 1.152C60.087 1.13067 59.8896 1.12 59.7083 1.12H59.2123C59.0736 1.12 58.9083 1.13067 58.7163 1.152C58.5243 1.16267 58.391 1.17867 58.3163 1.2C58.2203 1.22133 58.1296 1.25867 58.0443 1.312C57.9696 1.35467 57.9056 1.40267 57.8523 1.456C57.8096 1.50933 57.7723 1.584 57.7403 1.68C57.7083 1.776 57.6923 1.86667 57.6923 1.952V5.856H59.4363ZM71.8047 10.624C71.8047 10.688 71.81 10.7627 71.8207 10.848C71.842 10.9227 71.858 10.9813 71.8687 11.024C71.89 11.088 71.922 11.1467 71.9647 11.2C72.0073 11.2427 72.05 11.28 72.0927 11.312C72.146 11.344 72.2047 11.3707 72.2687 11.392C72.3327 11.4133 72.3967 11.4347 72.4607 11.456C72.546 11.4667 72.6633 11.4827 72.8127 11.504C72.962 11.5147 73.074 11.52 73.1487 11.52V12H69.5327V11.52C69.6073 11.52 69.7193 11.5147 69.8687 11.504C70.0287 11.4827 70.146 11.4667 70.2207 11.456C70.2847 11.4347 70.3487 11.4133 70.4127 11.392C70.4767 11.3707 70.5353 11.344 70.5887 11.312C70.642 11.28 70.6847 11.2427 70.7167 11.2C70.7593 11.1467 70.7913 11.088 70.8127 11.024C70.834 10.9813 70.85 10.9227 70.8607 10.848C70.8713 10.7627 70.8767 10.688 70.8767 10.624V2.016C70.8767 1.952 70.8713 1.88267 70.8607 1.808C70.85 1.72267 70.834 1.65867 70.8127 1.616C70.7913 1.552 70.7593 1.49867 70.7167 1.456C70.6847 1.40267 70.642 1.36 70.5887 1.328C70.5353 1.296 70.4767 1.26933 70.4127 1.248C70.3487 1.216 70.2847 1.19467 70.2207 1.184C70.146 1.16267 70.0287 1.14667 69.8687 1.136C69.7193 1.12533 69.6073 1.12 69.5327 1.12V0.639999H73.1487V1.12C73.074 1.12 72.962 1.12533 72.8127 1.136C72.6633 1.14667 72.546 1.16267 72.4607 1.184C72.3967 1.19467 72.3327 1.216 72.2687 1.248C72.2047 1.26933 72.146 1.296 72.0927 1.328C72.05 1.36 72.0073 1.40267 71.9647 1.456C71.922 1.49867 71.89 1.552 71.8687 1.616C71.858 1.65867 71.842 1.72267 71.8207 1.808C71.81 1.88267 71.8047 1.952 71.8047 2.016V10.624ZM81.5194 3.728L81.2794 3.824C81.1408 3.57867 81.0021 3.33333 80.8634 3.088C80.7354 2.84267 80.5914 2.60267 80.4314 2.368C80.2928 2.15467 80.1274 1.96267 79.9354 1.792C79.7541 1.61067 79.5888 1.472 79.4394 1.376C79.2048 1.22667 78.9488 1.10933 78.6714 1.024C78.3941 0.938666 78.1221 0.896 77.8554 0.896C77.6208 0.896 77.3754 0.938666 77.1194 1.024C76.8741 1.09867 76.6608 1.21067 76.4794 1.36C76.3514 1.46667 76.2288 1.6 76.1114 1.76C76.0048 1.92 75.9194 2.07467 75.8554 2.224C75.7914 2.384 75.7434 2.56 75.7114 2.752C75.6901 2.93333 75.6794 3.08267 75.6794 3.2C75.6794 3.41333 75.7168 3.62667 75.7914 3.84C75.8768 4.04267 75.9728 4.21867 76.0794 4.368C76.1968 4.528 76.3674 4.68267 76.5914 4.832C76.8261 4.97067 77.0448 5.08267 77.2474 5.168C77.4928 5.27467 77.7434 5.38133 77.9994 5.488C78.2661 5.584 78.5008 5.66933 78.7034 5.744C78.9274 5.81867 79.1728 5.90933 79.4394 6.016C79.7061 6.112 79.9408 6.21867 80.1434 6.336C80.3888 6.47467 80.6074 6.61867 80.7994 6.768C81.0021 6.90667 81.1728 7.08267 81.3114 7.296C81.4608 7.50933 81.5781 7.78133 81.6634 8.112C81.7594 8.44267 81.8074 8.75733 81.8074 9.056C81.8074 9.25867 81.7594 9.53067 81.6634 9.872C81.5781 10.2027 81.4608 10.48 81.3114 10.704C81.1728 10.9067 80.9914 11.1147 80.7674 11.328C80.5541 11.5307 80.3408 11.6907 80.1274 11.808C79.9141 11.936 79.6528 12.0373 79.3434 12.112C79.0448 12.1867 78.7568 12.224 78.4794 12.224C78.3088 12.224 78.0741 12.192 77.7754 12.128C77.4874 12.0747 77.2208 12.0053 76.9754 11.92C76.7728 11.8347 76.5808 11.7707 76.3994 11.728C76.2288 11.6747 76.1114 11.648 76.0474 11.648C75.9408 11.648 75.8021 11.696 75.6314 11.792C75.4714 11.8773 75.3594 11.9467 75.2954 12L74.2394 8.736L74.5274 8.624C74.7514 9.08267 75.0181 9.53067 75.3274 9.968C75.6474 10.3947 75.9888 10.7467 76.3514 11.024C76.5968 11.2053 76.9008 11.3653 77.2634 11.504C77.6368 11.632 77.9888 11.696 78.3194 11.696C78.5434 11.696 78.7834 11.6693 79.0394 11.616C79.2954 11.5627 79.4928 11.4987 79.6314 11.424C79.8128 11.3173 79.9781 11.1947 80.1274 11.056C80.2874 10.9067 80.4208 10.7467 80.5274 10.576C80.6448 10.3947 80.7248 10.1973 80.7674 9.984C80.8208 9.76 80.8474 9.54667 80.8474 9.344C80.8474 9.13067 80.8208 8.92267 80.7674 8.72C80.7248 8.51733 80.6501 8.336 80.5434 8.176C80.4368 8.00533 80.3034 7.86133 80.1434 7.744C79.9941 7.616 79.8288 7.49867 79.6474 7.392C79.5088 7.30667 79.3061 7.21067 79.0394 7.104C78.7728 6.98667 78.5594 6.896 78.3994 6.832C78.1968 6.74667 77.9408 6.64 77.6314 6.512C77.3328 6.37333 77.0608 6.25067 76.8154 6.144C76.6021 6.03733 76.3514 5.89867 76.0634 5.728C75.7861 5.55733 75.5568 5.35467 75.3754 5.12C75.2048 4.90667 75.0661 4.65067 74.9594 4.352C74.8528 4.05333 74.7994 3.77067 74.7994 3.504C74.7994 3.30133 74.8208 3.06133 74.8634 2.784C74.9061 2.50667 74.9701 2.272 75.0554 2.08C75.1408 1.90933 75.2368 1.744 75.3434 1.584C75.4501 1.424 75.5674 1.28533 75.6954 1.168C75.8234 1.05067 75.9781 0.944 76.1594 0.848C76.3408 0.741333 76.5221 0.656 76.7034 0.591999C76.8421 0.538666 77.0341 0.495999 77.2794 0.464C77.5354 0.432 77.7168 0.415999 77.8234 0.415999C78.0048 0.415999 78.2288 0.447999 78.4954 0.511999C78.7621 0.565332 78.9914 0.645333 79.1834 0.752C79.3648 0.837333 79.5354 0.927999 79.6954 1.024C79.8661 1.10933 79.9834 1.152 80.0474 1.152C80.1434 1.152 80.2608 1.104 80.3994 1.008C80.5381 0.911999 80.6394 0.826666 80.7034 0.752L81.5194 3.728ZM89.9558 3.728L89.7158 3.824C89.5771 3.57867 89.4385 3.33333 89.2998 3.088C89.1718 2.84267 89.0278 2.60267 88.8678 2.368C88.7291 2.15467 88.5638 1.96267 88.3718 1.792C88.1905 1.61067 88.0251 1.472 87.8758 1.376C87.6411 1.22667 87.3851 1.10933 87.1078 1.024C86.8305 0.938666 86.5585 0.896 86.2918 0.896C86.0571 0.896 85.8118 0.938666 85.5558 1.024C85.3105 1.09867 85.0971 1.21067 84.9158 1.36C84.7878 1.46667 84.6651 1.6 84.5478 1.76C84.4411 1.92 84.3558 2.07467 84.2918 2.224C84.2278 2.384 84.1798 2.56 84.1478 2.752C84.1265 2.93333 84.1158 3.08267 84.1158 3.2C84.1158 3.41333 84.1531 3.62667 84.2278 3.84C84.3131 4.04267 84.4091 4.21867 84.5158 4.368C84.6331 4.528 84.8038 4.68267 85.0278 4.832C85.2625 4.97067 85.4811 5.08267 85.6838 5.168C85.9291 5.27467 86.1798 5.38133 86.4358 5.488C86.7025 5.584 86.9371 5.66933 87.1398 5.744C87.3638 5.81867 87.6091 5.90933 87.8758 6.016C88.1425 6.112 88.3771 6.21867 88.5798 6.336C88.8251 6.47467 89.0438 6.61867 89.2358 6.768C89.4385 6.90667 89.6091 7.08267 89.7478 7.296C89.8971 7.50933 90.0145 7.78133 90.0998 8.112C90.1958 8.44267 90.2438 8.75733 90.2438 9.056C90.2438 9.25867 90.1958 9.53067 90.0998 9.872C90.0145 10.2027 89.8971 10.48 89.7478 10.704C89.6091 10.9067 89.4278 11.1147 89.2038 11.328C88.9905 11.5307 88.7771 11.6907 88.5638 11.808C88.3505 11.936 88.0891 12.0373 87.7798 12.112C87.4811 12.1867 87.1931 12.224 86.9158 12.224C86.7451 12.224 86.5105 12.192 86.2118 12.128C85.9238 12.0747 85.6571 12.0053 85.4118 11.92C85.2091 11.8347 85.0171 11.7707 84.8358 11.728C84.6651 11.6747 84.5478 11.648 84.4838 11.648C84.3771 11.648 84.2385 11.696 84.0678 11.792C83.9078 11.8773 83.7958 11.9467 83.7318 12L82.6758 8.736L82.9638 8.624C83.1878 9.08267 83.4545 9.53067 83.7638 9.968C84.0838 10.3947 84.4251 10.7467 84.7878 11.024C85.0331 11.2053 85.3371 11.3653 85.6998 11.504C86.0731 11.632 86.4251 11.696 86.7558 11.696C86.9798 11.696 87.2198 11.6693 87.4758 11.616C87.7318 11.5627 87.9291 11.4987 88.0678 11.424C88.2491 11.3173 88.4145 11.1947 88.5638 11.056C88.7238 10.9067 88.8571 10.7467 88.9638 10.576C89.0811 10.3947 89.1611 10.1973 89.2038 9.984C89.2571 9.76 89.2838 9.54667 89.2838 9.344C89.2838 9.13067 89.2571 8.92267 89.2038 8.72C89.1611 8.51733 89.0865 8.336 88.9798 8.176C88.8731 8.00533 88.7398 7.86133 88.5798 7.744C88.4305 7.616 88.2651 7.49867 88.0838 7.392C87.9451 7.30667 87.7425 7.21067 87.4758 7.104C87.2091 6.98667 86.9958 6.896 86.8358 6.832C86.6331 6.74667 86.3771 6.64 86.0678 6.512C85.7691 6.37333 85.4971 6.25067 85.2518 6.144C85.0385 6.03733 84.7878 5.89867 84.4998 5.728C84.2225 5.55733 83.9931 5.35467 83.8118 5.12C83.6411 4.90667 83.5025 4.65067 83.3958 4.352C83.2891 4.05333 83.2358 3.77067 83.2358 3.504C83.2358 3.30133 83.2571 3.06133 83.2998 2.784C83.3425 2.50667 83.4065 2.272 83.4918 2.08C83.5771 1.90933 83.6731 1.744 83.7798 1.584C83.8865 1.424 84.0038 1.28533 84.1318 1.168C84.2598 1.05067 84.4145 0.944 84.5958 0.848C84.7771 0.741333 84.9585 0.656 85.1398 0.591999C85.2785 0.538666 85.4705 0.495999 85.7158 0.464C85.9718 0.432 86.1531 0.415999 86.2598 0.415999C86.4411 0.415999 86.6651 0.447999 86.9318 0.511999C87.1985 0.565332 87.4278 0.645333 87.6198 0.752C87.8011 0.837333 87.9718 0.927999 88.1318 1.024C88.3025 1.10933 88.4198 1.152 88.4838 1.152C88.5798 1.152 88.6971 1.104 88.8358 1.008C88.9745 0.911999 89.0758 0.826666 89.1398 0.752L89.9558 3.728ZM92.6962 2.016C92.6962 1.952 92.6909 1.88267 92.6802 1.808C92.6695 1.72267 92.6535 1.65867 92.6322 1.616C92.6109 1.552 92.5789 1.49867 92.5362 1.456C92.5042 1.40267 92.4615 1.36 92.4082 1.328C92.3549 1.296 92.2962 1.26933 92.2322 1.248C92.1682 1.216 92.1042 1.19467 92.0402 1.184C91.9655 1.16267 91.8589 1.14667 91.7202 1.136C91.5922 1.12533 91.4909 1.12 91.4162 1.12V0.639999H94.9042V1.12C94.8295 1.12 94.7282 1.12533 94.6002 1.136C94.4722 1.14667 94.3655 1.16267 94.2802 1.184C94.2162 1.19467 94.1522 1.216 94.0882 1.248C94.0242 1.26933 93.9655 1.296 93.9122 1.328C93.8695 1.36 93.8269 1.40267 93.7842 1.456C93.7415 1.49867 93.7095 1.552 93.6882 1.616C93.6775 1.65867 93.6615 1.72267 93.6402 1.808C93.6295 1.88267 93.6242 1.952 93.6242 2.016V8.416C93.6242 8.59733 93.6349 8.848 93.6562 9.168C93.6882 9.488 93.7362 9.73333 93.8002 9.904C93.8642 10.064 93.9442 10.2187 94.0402 10.368C94.1362 10.5173 94.2375 10.6453 94.3442 10.752C94.4509 10.8587 94.5789 10.96 94.7282 11.056C94.8882 11.1413 95.0375 11.2107 95.1762 11.264C95.3149 11.3173 95.4909 11.3653 95.7042 11.408C95.9175 11.44 96.1255 11.456 96.3282 11.456C96.5202 11.456 96.7389 11.44 96.9842 11.408C97.2295 11.376 97.4375 11.3227 97.6082 11.248C97.7789 11.1733 97.9442 11.0773 98.1042 10.96C98.2749 10.832 98.4135 10.704 98.5202 10.576C98.6162 10.4587 98.7015 10.3253 98.7762 10.176C98.8509 10.0267 98.9095 9.888 98.9522 9.76C98.9842 9.65333 99.0162 9.47733 99.0482 9.232C99.0802 8.976 99.0962 8.73067 99.0962 8.496V2.016C99.0962 1.952 99.0909 1.88267 99.0802 1.808C99.0695 1.72267 99.0535 1.65867 99.0322 1.616C99.0109 1.552 98.9789 1.49867 98.9362 1.456C98.9042 1.40267 98.8615 1.36 98.8082 1.328C98.7549 1.296 98.6962 1.26933 98.6322 1.248C98.5682 1.216 98.5042 1.19467 98.4402 1.184C98.3655 1.16267 98.2589 1.14667 98.1202 1.136C97.9922 1.12533 97.8909 1.12 97.8162 1.12V0.639999H100.856V1.12C100.782 1.12 100.68 1.12533 100.552 1.136C100.424 1.14667 100.318 1.16267 100.232 1.184C100.168 1.19467 100.104 1.216 100.04 1.248C99.9762 1.26933 99.9175 1.296 99.8642 1.328C99.8215 1.36 99.7789 1.40267 99.7362 1.456C99.6935 1.49867 99.6615 1.552 99.6402 1.616C99.6295 1.65867 99.6135 1.72267 99.5922 1.808C99.5815 1.88267 99.5762 1.952 99.5762 2.016V8.416C99.5762 8.736 99.5602 9.06133 99.5282 9.392C99.5069 9.72267 99.4695 9.968 99.4162 10.128C99.3522 10.352 99.2562 10.576 99.1282 10.8C99.0109 11.0133 98.8989 11.1787 98.7922 11.296C98.6749 11.4347 98.5095 11.568 98.2962 11.696C98.0935 11.824 97.8909 11.9253 97.6882 12C97.4535 12.0747 97.1869 12.128 96.8882 12.16C96.6002 12.2027 96.3335 12.224 96.0882 12.224C95.8429 12.224 95.5549 12.192 95.2242 12.128C94.9042 12.0747 94.6215 12 94.3762 11.904C94.1309 11.7973 93.9069 11.664 93.7042 11.504C93.5122 11.344 93.3202 11.12 93.1282 10.832C92.9682 10.5867 92.8562 10.272 92.7922 9.888C92.7282 9.504 92.6962 9.056 92.6962 8.544V2.016ZM106.183 5.856C106.268 5.856 106.375 5.85067 106.503 5.84C106.631 5.81867 106.722 5.80267 106.775 5.792C106.828 5.77067 106.892 5.744 106.967 5.712C107.052 5.66933 107.116 5.61067 107.159 5.536C107.212 5.472 107.255 5.38133 107.287 5.264C107.33 5.136 107.356 5.01867 107.367 4.912C107.388 4.82667 107.404 4.69867 107.415 4.528C107.426 4.35733 107.431 4.21867 107.431 4.112H107.783V8.192H107.431C107.431 8.10667 107.426 7.968 107.415 7.776C107.404 7.584 107.388 7.44 107.367 7.344C107.356 7.23733 107.33 7.11467 107.287 6.976C107.244 6.83733 107.196 6.736 107.143 6.672C107.1 6.608 107.031 6.54933 106.935 6.496C106.839 6.44267 106.764 6.41067 106.711 6.4C106.647 6.37867 106.551 6.36267 106.423 6.352C106.306 6.34133 106.204 6.336 106.119 6.336H104.295V10.656C104.295 10.752 104.316 10.864 104.359 10.992C104.412 11.1093 104.476 11.1947 104.551 11.248C104.636 11.312 104.738 11.36 104.855 11.392C104.983 11.424 105.1 11.4507 105.207 11.472C105.303 11.4827 105.436 11.4933 105.607 11.504C105.778 11.5147 105.916 11.52 106.023 11.52H106.439C106.663 11.52 106.924 11.5093 107.223 11.488C107.522 11.456 107.767 11.4187 107.959 11.376C108.14 11.3227 108.306 11.2587 108.455 11.184C108.615 11.0987 108.754 11.0133 108.871 10.928C109.01 10.8213 109.132 10.704 109.239 10.576C109.356 10.448 109.468 10.288 109.575 10.096C109.66 9.95733 109.74 9.792 109.815 9.6C109.9 9.408 109.97 9.232 110.023 9.072H110.247L109.863 12H102.087V11.52C102.162 11.52 102.263 11.5147 102.391 11.504C102.53 11.4827 102.636 11.4667 102.711 11.456C102.775 11.4347 102.839 11.4133 102.903 11.392C102.967 11.3707 103.026 11.344 103.079 11.312C103.132 11.28 103.175 11.2427 103.207 11.2C103.25 11.1467 103.282 11.088 103.303 11.024C103.324 10.9813 103.34 10.9227 103.351 10.848C103.362 10.7627 103.367 10.688 103.367 10.624V2.016C103.367 1.952 103.362 1.88267 103.351 1.808C103.34 1.72267 103.324 1.65867 103.303 1.616C103.282 1.552 103.25 1.49867 103.207 1.456C103.175 1.40267 103.132 1.36 103.079 1.328C103.026 1.296 102.967 1.26933 102.903 1.248C102.839 1.216 102.775 1.19467 102.711 1.184C102.636 1.16267 102.53 1.14667 102.391 1.136C102.263 1.12533 102.162 1.12 102.087 1.12V0.639999H109.799L110.119 3.568H109.847C109.783 3.39733 109.708 3.22133 109.623 3.04C109.538 2.85867 109.447 2.68267 109.351 2.512C109.276 2.384 109.164 2.23467 109.015 2.064C108.876 1.89333 108.727 1.75467 108.567 1.648C108.428 1.552 108.236 1.46133 107.991 1.376C107.756 1.29067 107.559 1.23733 107.399 1.216C107.26 1.19467 107.09 1.17333 106.887 1.152C106.695 1.13067 106.503 1.12 106.311 1.12H105.863C105.724 1.12 105.548 1.13067 105.335 1.152C105.132 1.16267 104.994 1.17867 104.919 1.2C104.823 1.22133 104.732 1.25867 104.647 1.312C104.572 1.35467 104.508 1.40267 104.455 1.456C104.412 1.50933 104.375 1.584 104.343 1.68C104.311 1.776 104.295 1.86667 104.295 1.952V5.856H106.183ZM112.859 9.472C112.859 9.216 112.945 8.99733 113.115 8.816C113.297 8.63467 113.51 8.544 113.755 8.544C114.022 8.544 114.235 8.63467 114.395 8.816C114.566 8.99733 114.651 9.216 114.651 9.472C114.651 9.728 114.566 9.94667 114.395 10.128C114.235 10.3093 114.022 10.4 113.755 10.4C113.51 10.4 113.297 10.3093 113.115 10.128C112.945 9.94667 112.859 9.728 112.859 9.472ZM112.859 3.632C112.859 3.376 112.945 3.15733 113.115 2.976C113.297 2.79467 113.51 2.704 113.755 2.704C114.022 2.704 114.235 2.79467 114.395 2.976C114.566 3.15733 114.651 3.376 114.651 3.632C114.651 3.888 114.566 4.10667 114.395 4.288C114.235 4.46933 114.022 4.56 113.755 4.56C113.51 4.56 113.297 4.46933 113.115 4.288C112.945 4.10667 112.859 3.888 112.859 3.632Z" fill="#55585B"/>
</svg>
