<svg width="155" height="13" viewBox="0 0 155 13" fill="none" xmlns="http://www.w3.org/2000/svg">
<path d="M3.95257 5.856C4.0379 5.856 4.14457 5.85067 4.27257 5.84C4.40057 5.81867 4.49123 5.80267 4.54457 5.792C4.5979 5.77067 4.6619 5.744 4.73657 5.712C4.8219 5.66933 4.8859 5.61067 4.92857 5.536C4.9819 5.472 5.02457 5.38133 5.05657 5.264C5.09923 5.136 5.1259 5.01867 5.13657 4.912C5.1579 4.82667 5.1739 4.69867 5.18457 4.528C5.19523 4.35733 5.20057 4.21867 5.20057 4.112H5.55257V8.192H5.20057C5.20057 8.10667 5.19523 7.968 5.18457 7.776C5.1739 7.584 5.1579 7.44 5.13657 7.344C5.1259 7.23733 5.09923 7.11467 5.05657 6.976C5.0139 6.83733 4.9659 6.736 4.91257 6.672C4.8699 6.608 4.80057 6.54933 4.70457 6.496C4.60857 6.44267 4.5339 6.41067 4.48057 6.4C4.41657 6.37867 4.32057 6.36267 4.19257 6.352C4.07523 6.34133 3.9739 6.336 3.88857 6.336H2.20857V10.624C2.20857 10.688 2.2139 10.7627 2.22457 10.848C2.2459 10.9227 2.2619 10.9813 2.27257 11.024C2.2939 11.088 2.3259 11.1467 2.36857 11.2C2.41123 11.2427 2.4539 11.28 2.49657 11.312C2.5499 11.344 2.60857 11.3707 2.67257 11.392C2.73657 11.4133 2.80057 11.4347 2.86457 11.456C2.9499 11.4667 3.05657 11.4827 3.18457 11.504C3.31257 11.5147 3.4139 11.52 3.48857 11.52V12H0.000565231V11.52C0.0752319 11.52 0.176565 11.5147 0.304565 11.504C0.443232 11.4827 0.549899 11.4667 0.624565 11.456C0.688565 11.4347 0.752565 11.4133 0.816565 11.392C0.880565 11.3707 0.939232 11.344 0.992565 11.312C1.0459 11.28 1.08857 11.2427 1.12057 11.2C1.16323 11.1467 1.19523 11.088 1.21657 11.024C1.2379 10.9813 1.2539 10.9227 1.26457 10.848C1.27523 10.7627 1.28057 10.688 1.28057 10.624V2.016C1.28057 1.952 1.27523 1.88267 1.26457 1.808C1.2539 1.72267 1.2379 1.65867 1.21657 1.616C1.19523 1.552 1.16323 1.49867 1.12057 1.456C1.08857 1.40267 1.0459 1.36 0.992565 1.328C0.939232 1.296 0.880565 1.26933 0.816565 1.248C0.752565 1.216 0.688565 1.19467 0.624565 1.184C0.549899 1.16267 0.443232 1.14667 0.304565 1.136C0.176565 1.12533 0.0752319 1.12 0.000565231 1.12V0.639999H7.84057L8.19257 3.68H7.95257C7.8779 3.488 7.78723 3.29067 7.68057 3.088C7.5739 2.88533 7.46723 2.69867 7.36057 2.528C7.26457 2.368 7.1419 2.208 6.99257 2.048C6.84323 1.888 6.68857 1.75467 6.52857 1.648C6.36857 1.54133 6.1659 1.45067 5.92057 1.376C5.6859 1.29067 5.48323 1.23733 5.31257 1.216C5.2059 1.19467 5.04057 1.17333 4.81657 1.152C4.60323 1.13067 4.4059 1.12 4.22457 1.12H3.72857C3.5899 1.12 3.42457 1.13067 3.23257 1.152C3.04057 1.16267 2.90723 1.17867 2.83257 1.2C2.73657 1.22133 2.6459 1.25867 2.56057 1.312C2.4859 1.35467 2.4219 1.40267 2.36857 1.456C2.3259 1.50933 2.28857 1.584 2.25657 1.68C2.22457 1.776 2.20857 1.86667 2.20857 1.952V5.856H3.95257ZM11.5081 7.712L10.5801 10.608C10.5587 10.6933 10.5374 10.784 10.5161 10.88C10.4947 10.976 10.4841 11.056 10.4841 11.12C10.4841 11.184 10.5107 11.2427 10.5641 11.296C10.6281 11.3493 10.6921 11.3867 10.7561 11.408C10.8627 11.44 10.9961 11.4667 11.1561 11.488C11.3161 11.5093 11.5081 11.52 11.7321 11.52V12H8.62806V11.52C8.8094 11.52 8.99606 11.4987 9.18806 11.456C9.39073 11.4133 9.54006 11.344 9.63606 11.248C9.7214 11.1733 9.80673 11.072 9.89206 10.944C9.9774 10.8053 10.0467 10.656 10.1001 10.496L13.3001 0.575999L13.8761 0.415999L17.4601 10.688C17.5027 10.7627 17.5454 10.848 17.5881 10.944C17.6414 11.0293 17.6894 11.0987 17.7321 11.152C17.7854 11.216 17.8387 11.2693 17.8921 11.312C17.9561 11.3547 18.0254 11.392 18.1001 11.424C18.1854 11.456 18.2761 11.4773 18.3721 11.488C18.4681 11.4987 18.5801 11.5093 18.7081 11.52V12H15.3481V11.52C15.5507 11.52 15.7267 11.5147 15.8761 11.504C16.0254 11.4827 16.1374 11.4613 16.2121 11.44C16.2974 11.4187 16.3667 11.3813 16.4201 11.328C16.4734 11.2747 16.5001 11.2107 16.5001 11.136C16.5001 11.0933 16.4894 11.024 16.4681 10.928C16.4574 10.8213 16.4361 10.7147 16.4041 10.608L15.3961 7.712H11.5081ZM13.3801 1.888L11.6681 7.232H15.2361L13.3801 1.888ZM23.5318 12.128L20.1878 1.824C20.1345 1.70667 20.0758 1.60533 20.0118 1.52C19.9478 1.424 19.8518 1.33867 19.7238 1.264C19.6278 1.21067 19.4945 1.17333 19.3238 1.152C19.1531 1.13067 19.0198 1.12 18.9238 1.12V0.639999H22.3958V1.12C22.2465 1.12 22.0651 1.13067 21.8518 1.152C21.6491 1.17333 21.5105 1.19467 21.4358 1.216C21.3718 1.23733 21.3131 1.26933 21.2598 1.312C21.2171 1.344 21.1851 1.38667 21.1638 1.44C21.1531 1.48267 21.1478 1.54667 21.1478 1.632C21.1585 1.70667 21.1691 1.776 21.1798 1.84L23.9478 10.464L26.7158 1.84C26.7371 1.776 26.7478 1.70667 26.7478 1.632C26.7585 1.54667 26.7531 1.48267 26.7318 1.44C26.7211 1.38667 26.6891 1.344 26.6358 1.312C26.5825 1.26933 26.5238 1.23733 26.4598 1.216C26.3851 1.19467 26.2465 1.17333 26.0438 1.152C25.8411 1.13067 25.6651 1.12 25.5158 1.12V0.639999H28.7158V1.12C28.6091 1.12 28.4438 1.136 28.2198 1.168C27.9958 1.18933 27.8251 1.22667 27.7078 1.28C27.5691 1.35467 27.4625 1.43467 27.3878 1.52C27.3238 1.60533 27.2651 1.70667 27.2118 1.824L23.8518 12.128H23.5318ZM29.4347 6.32C29.4347 5.968 29.4667 5.55733 29.5307 5.088C29.5947 4.61867 29.6747 4.224 29.7707 3.904C29.856 3.616 29.9734 3.30667 30.1227 2.976C30.272 2.64533 30.4427 2.35733 30.6347 2.112C30.784 1.90933 30.9654 1.70667 31.1787 1.504C31.4027 1.30133 31.648 1.12 31.9147 0.959999C32.1494 0.821333 32.48 0.698666 32.9067 0.591999C33.3334 0.474666 33.7067 0.415999 34.0267 0.415999C34.3467 0.415999 34.72 0.474666 35.1467 0.591999C35.5734 0.698666 35.904 0.821333 36.1387 0.959999C36.4054 1.12 36.6454 1.30133 36.8587 1.504C37.0827 1.70667 37.2694 1.90933 37.4187 2.112C37.6107 2.35733 37.7814 2.64533 37.9307 2.976C38.08 3.30667 38.1974 3.616 38.2827 3.904C38.3787 4.224 38.4587 4.61867 38.5227 5.088C38.5867 5.55733 38.6187 5.968 38.6187 6.32C38.6187 6.672 38.5867 7.08267 38.5227 7.552C38.4587 8.02133 38.3787 8.416 38.2827 8.736C38.1974 9.024 38.08 9.33333 37.9307 9.664C37.7814 9.99467 37.6107 10.2827 37.4187 10.528C37.2694 10.7307 37.0827 10.9333 36.8587 11.136C36.6454 11.3387 36.4054 11.52 36.1387 11.68C35.904 11.8187 35.5734 11.9413 35.1467 12.048C34.72 12.1653 34.3467 12.224 34.0267 12.224C33.7067 12.224 33.3334 12.1653 32.9067 12.048C32.48 11.9413 32.1494 11.8187 31.9147 11.68C31.648 11.52 31.4027 11.3387 31.1787 11.136C30.9654 10.9333 30.784 10.7307 30.6347 10.528C30.4427 10.2827 30.272 9.99467 30.1227 9.664C29.9734 9.33333 29.856 9.024 29.7707 8.736C29.6747 8.416 29.5947 8.02133 29.5307 7.552C29.4667 7.08267 29.4347 6.672 29.4347 6.32ZM30.4747 6.32C30.4747 6.55467 30.4907 6.88533 30.5227 7.312C30.5654 7.73867 30.6187 8.10667 30.6827 8.416C30.736 8.672 30.8214 8.95467 30.9387 9.264C31.0667 9.57333 31.1894 9.824 31.3067 10.016C31.424 10.208 31.5787 10.4107 31.7707 10.624C31.9627 10.8373 32.16 11.0187 32.3627 11.168C32.5547 11.3067 32.8214 11.424 33.1627 11.52C33.5147 11.616 33.8027 11.664 34.0267 11.664C34.2507 11.664 34.5334 11.616 34.8747 11.52C35.2267 11.424 35.4987 11.3067 35.6907 11.168C35.904 11.0187 36.1014 10.8373 36.2827 10.624C36.4747 10.4107 36.6294 10.208 36.7467 10.016C36.864 9.824 36.9814 9.57333 37.0987 9.264C37.2267 8.95467 37.3174 8.672 37.3707 8.416C37.4347 8.10667 37.4827 7.73867 37.5147 7.312C37.5574 6.88533 37.5787 6.55467 37.5787 6.32C37.5787 6.08533 37.5574 5.75467 37.5147 5.328C37.4827 4.89067 37.4347 4.52267 37.3707 4.224C37.3174 3.968 37.2267 3.68533 37.0987 3.376C36.9814 3.06667 36.864 2.816 36.7467 2.624C36.6294 2.432 36.4747 2.22933 36.2827 2.016C36.1014 1.80267 35.904 1.62133 35.6907 1.472C35.4987 1.32267 35.2267 1.20533 34.8747 1.12C34.5334 1.024 34.2507 0.976 34.0267 0.976C33.8027 0.976 33.5147 1.024 33.1627 1.12C32.8214 1.20533 32.5547 1.32267 32.3627 1.472C32.16 1.62133 31.9627 1.80267 31.7707 2.016C31.5787 2.22933 31.424 2.432 31.3067 2.624C31.1894 2.816 31.0667 3.06667 30.9387 3.376C30.8214 3.68533 30.736 3.968 30.6827 4.224C30.6187 4.52267 30.5654 4.89067 30.5227 5.328C30.4907 5.75467 30.4747 6.08533 30.4747 6.32ZM47.6314 10.704C47.7061 10.8 47.7914 10.9013 47.8874 11.008C47.9834 11.1147 48.0688 11.1947 48.1434 11.248C48.2288 11.312 48.3408 11.3707 48.4794 11.424C48.6181 11.4667 48.7461 11.488 48.8634 11.488H49.2794V12H47.2314L43.9194 6.4H42.0634V10.624C42.0634 10.688 42.0688 10.7627 42.0794 10.848C42.1008 10.9227 42.1168 10.9813 42.1274 11.024C42.1488 11.088 42.1808 11.1467 42.2234 11.2C42.2661 11.2427 42.3088 11.28 42.3514 11.312C42.4048 11.344 42.4634 11.3707 42.5274 11.392C42.5914 11.4133 42.6554 11.4347 42.7194 11.456C42.8048 11.4667 42.9114 11.4827 43.0394 11.504C43.1674 11.5147 43.2688 11.52 43.3434 11.52V12H39.8554V11.52C39.9301 11.52 40.0314 11.5147 40.1594 11.504C40.2981 11.4827 40.4048 11.4667 40.4794 11.456C40.5434 11.4347 40.6074 11.4133 40.6714 11.392C40.7354 11.3707 40.7941 11.344 40.8474 11.312C40.9008 11.28 40.9434 11.2427 40.9754 11.2C41.0181 11.1467 41.0501 11.088 41.0714 11.024C41.0928 10.9813 41.1088 10.9227 41.1194 10.848C41.1301 10.7627 41.1354 10.688 41.1354 10.624V2.016C41.1354 1.952 41.1301 1.88267 41.1194 1.808C41.1088 1.72267 41.0928 1.65867 41.0714 1.616C41.0501 1.552 41.0181 1.49867 40.9754 1.456C40.9434 1.40267 40.9008 1.36 40.8474 1.328C40.7941 1.296 40.7354 1.26933 40.6714 1.248C40.6074 1.216 40.5434 1.19467 40.4794 1.184C40.4048 1.16267 40.2981 1.14667 40.1594 1.136C40.0314 1.12533 39.9301 1.12 39.8554 1.12V0.639999H44.2234C44.3941 0.639999 44.6661 0.656 45.0394 0.688C45.4128 0.709333 45.6954 0.746666 45.8874 0.799999C46.1008 0.853333 46.3141 0.922666 46.5274 1.008C46.7408 1.09333 46.9168 1.184 47.0554 1.28C47.1728 1.35467 47.3114 1.47733 47.4714 1.648C47.6314 1.81867 47.7488 1.984 47.8234 2.144C47.9088 2.304 47.9781 2.512 48.0314 2.768C48.0848 3.024 48.1114 3.27467 48.1114 3.52C48.1114 3.76533 48.0848 4.02667 48.0314 4.304C47.9888 4.57067 47.9248 4.784 47.8394 4.944C47.7541 5.12533 47.6421 5.29067 47.5034 5.44C47.3648 5.58933 47.2368 5.70667 47.1194 5.792C46.9808 5.89867 46.8208 5.98933 46.6394 6.064C46.4581 6.128 46.2554 6.18667 46.0314 6.24C45.8928 6.272 45.7168 6.29867 45.5034 6.32C45.3008 6.34133 45.1034 6.36267 44.9114 6.384L47.6314 10.704ZM44.1114 5.92C44.3354 5.92 44.5754 5.90933 44.8314 5.888C45.0981 5.86667 45.3168 5.83467 45.4874 5.792C45.6368 5.76 45.7968 5.70133 45.9674 5.616C46.1381 5.52 46.2661 5.43467 46.3514 5.36C46.4368 5.27467 46.5328 5.168 46.6394 5.04C46.7568 4.90133 46.8421 4.77333 46.8954 4.656C46.9488 4.53867 46.9968 4.368 47.0394 4.144C47.0928 3.92 47.1194 3.712 47.1194 3.52C47.1194 3.33867 47.0928 3.14133 47.0394 2.928C46.9861 2.704 46.9328 2.528 46.8794 2.4C46.8261 2.272 46.7354 2.13867 46.6074 2C46.4901 1.86133 46.3834 1.75467 46.2874 1.68C46.1808 1.59467 46.0314 1.51467 45.8394 1.44C45.6474 1.35467 45.4714 1.29067 45.3114 1.248C45.1088 1.19467 44.8794 1.16267 44.6234 1.152C44.3781 1.13067 44.1434 1.12 43.9194 1.12H43.3434C43.2688 1.12 43.1674 1.12533 43.0394 1.136C42.9114 1.14667 42.8048 1.16267 42.7194 1.184C42.6554 1.19467 42.5914 1.216 42.5274 1.248C42.4634 1.26933 42.4048 1.296 42.3514 1.328C42.3088 1.36 42.2661 1.40267 42.2234 1.456C42.1808 1.49867 42.1488 1.552 42.1274 1.616C42.1168 1.65867 42.1008 1.72267 42.0794 1.808C42.0688 1.88267 42.0634 1.952 42.0634 2.016V5.92H44.1114ZM52.3801 10.624C52.3801 10.688 52.3854 10.7627 52.3961 10.848C52.4174 10.9227 52.4334 10.9813 52.4441 11.024C52.4654 11.088 52.4974 11.1467 52.5401 11.2C52.5827 11.2427 52.6254 11.28 52.6681 11.312C52.7214 11.344 52.7801 11.3707 52.8441 11.392C52.9081 11.4133 52.9721 11.4347 53.0361 11.456C53.1214 11.4667 53.2387 11.4827 53.3881 11.504C53.5374 11.5147 53.6494 11.52 53.7241 11.52V12H50.1081V11.52C50.1827 11.52 50.2947 11.5147 50.4441 11.504C50.6041 11.4827 50.7214 11.4667 50.7961 11.456C50.8601 11.4347 50.9241 11.4133 50.9881 11.392C51.0521 11.3707 51.1107 11.344 51.1641 11.312C51.2174 11.28 51.2601 11.2427 51.2921 11.2C51.3347 11.1467 51.3667 11.088 51.3881 11.024C51.4094 10.9813 51.4254 10.9227 51.4361 10.848C51.4467 10.7627 51.4521 10.688 51.4521 10.624V2.016C51.4521 1.952 51.4467 1.88267 51.4361 1.808C51.4254 1.72267 51.4094 1.65867 51.3881 1.616C51.3667 1.552 51.3347 1.49867 51.2921 1.456C51.2601 1.40267 51.2174 1.36 51.1641 1.328C51.1107 1.296 51.0521 1.26933 50.9881 1.248C50.9241 1.216 50.8601 1.19467 50.7961 1.184C50.7214 1.16267 50.6041 1.14667 50.4441 1.136C50.2947 1.12533 50.1827 1.12 50.1081 1.12V0.639999H53.7241V1.12C53.6494 1.12 53.5374 1.12533 53.3881 1.136C53.2387 1.14667 53.1214 1.16267 53.0361 1.184C52.9721 1.19467 52.9081 1.216 52.8441 1.248C52.7801 1.26933 52.7214 1.296 52.6681 1.328C52.6254 1.36 52.5827 1.40267 52.5401 1.456C52.4974 1.49867 52.4654 1.552 52.4441 1.616C52.4334 1.65867 52.4174 1.72267 52.3961 1.808C52.3854 1.88267 52.3801 1.952 52.3801 2.016V10.624ZM63.6468 0.639999L64.1748 3.472H63.8868C63.8228 3.33333 63.7482 3.184 63.6628 3.024C63.5882 2.864 63.5082 2.71467 63.4228 2.576C63.3482 2.43733 63.2628 2.29867 63.1668 2.16C63.0708 2.02133 62.9588 1.888 62.8308 1.76C62.7242 1.65333 62.6015 1.55733 62.4628 1.472C62.3348 1.38667 62.2015 1.31733 62.0628 1.264C61.9562 1.22133 61.8122 1.18933 61.6308 1.168C61.4602 1.136 61.3162 1.12 61.1988 1.12H60.9588C60.8842 1.12 60.7935 1.12533 60.6868 1.136C60.5908 1.14667 60.5108 1.16267 60.4468 1.184C60.3722 1.20533 60.2922 1.24267 60.2068 1.296C60.1322 1.33867 60.0682 1.38667 60.0148 1.44C59.9722 1.49333 59.9348 1.568 59.9028 1.664C59.8708 1.76 59.8548 1.85067 59.8548 1.936V10.624C59.8548 10.688 59.8602 10.7627 59.8708 10.848C59.8922 10.9227 59.9082 10.9813 59.9188 11.024C59.9402 11.088 59.9722 11.1467 60.0148 11.2C60.0575 11.2427 60.1002 11.28 60.1428 11.312C60.1962 11.344 60.2548 11.3707 60.3188 11.392C60.3935 11.4133 60.4628 11.4347 60.5268 11.456C60.6122 11.4667 60.7402 11.4827 60.9108 11.504C61.0922 11.5147 61.2202 11.52 61.2948 11.52V12H57.4868V11.52C57.5615 11.52 57.6895 11.5147 57.8708 11.504C58.0522 11.4827 58.1802 11.4667 58.2548 11.456C58.3188 11.4347 58.3828 11.4133 58.4468 11.392C58.5215 11.3707 58.5855 11.344 58.6388 11.312C58.6922 11.28 58.7348 11.2427 58.7668 11.2C58.8095 11.1467 58.8415 11.088 58.8628 11.024C58.8842 10.9813 58.9002 10.9227 58.9108 10.848C58.9215 10.7627 58.9268 10.688 58.9268 10.624V1.936C58.9268 1.85067 58.9108 1.76 58.8788 1.664C58.8575 1.568 58.8202 1.49333 58.7668 1.44C58.7242 1.38667 58.6602 1.33867 58.5748 1.296C58.5002 1.24267 58.4202 1.20533 58.3348 1.184C58.2708 1.16267 58.1855 1.14667 58.0788 1.136C57.9828 1.12533 57.8975 1.12 57.8228 1.12H57.5828C57.4655 1.12 57.3162 1.136 57.1348 1.168C56.9642 1.18933 56.8255 1.22133 56.7188 1.264C56.5802 1.31733 56.4415 1.38667 56.3028 1.472C56.1748 1.55733 56.0575 1.65333 55.9508 1.76C55.8228 1.888 55.7108 2.02133 55.6148 2.16C55.5295 2.29867 55.4442 2.43733 55.3588 2.576C55.2842 2.71467 55.2042 2.864 55.1188 3.024C55.0335 3.184 54.9588 3.33333 54.8948 3.472H54.6068L55.1348 0.639999H63.6468ZM68.9949 5.856C69.0803 5.856 69.1869 5.85067 69.3149 5.84C69.4429 5.81867 69.5336 5.80267 69.5869 5.792C69.6403 5.77067 69.7043 5.744 69.7789 5.712C69.8643 5.66933 69.9283 5.61067 69.9709 5.536C70.0243 5.472 70.0669 5.38133 70.0989 5.264C70.1416 5.136 70.1683 5.01867 70.1789 4.912C70.2003 4.82667 70.2163 4.69867 70.2269 4.528C70.2376 4.35733 70.2429 4.21867 70.2429 4.112H70.5949V8.192H70.2429C70.2429 8.10667 70.2376 7.968 70.2269 7.776C70.2163 7.584 70.2003 7.44 70.1789 7.344C70.1683 7.23733 70.1416 7.11467 70.0989 6.976C70.0563 6.83733 70.0083 6.736 69.9549 6.672C69.9123 6.608 69.8429 6.54933 69.7469 6.496C69.6509 6.44267 69.5763 6.41067 69.5229 6.4C69.4589 6.37867 69.3629 6.36267 69.2349 6.352C69.1176 6.34133 69.0163 6.336 68.9309 6.336H67.1069V10.656C67.1069 10.752 67.1283 10.864 67.1709 10.992C67.2243 11.1093 67.2883 11.1947 67.3629 11.248C67.4483 11.312 67.5496 11.36 67.6669 11.392C67.7949 11.424 67.9123 11.4507 68.0189 11.472C68.1149 11.4827 68.2483 11.4933 68.4189 11.504C68.5896 11.5147 68.7283 11.52 68.8349 11.52H69.2509C69.4749 11.52 69.7363 11.5093 70.0349 11.488C70.3336 11.456 70.5789 11.4187 70.7709 11.376C70.9523 11.3227 71.1176 11.2587 71.2669 11.184C71.4269 11.0987 71.5656 11.0133 71.6829 10.928C71.8216 10.8213 71.9443 10.704 72.0509 10.576C72.1683 10.448 72.2803 10.288 72.3869 10.096C72.4723 9.95733 72.5523 9.792 72.6269 9.6C72.7123 9.408 72.7816 9.232 72.8349 9.072H73.0589L72.6749 12H64.8989V11.52C64.9736 11.52 65.0749 11.5147 65.2029 11.504C65.3416 11.4827 65.4483 11.4667 65.5229 11.456C65.5869 11.4347 65.6509 11.4133 65.7149 11.392C65.7789 11.3707 65.8376 11.344 65.8909 11.312C65.9443 11.28 65.9869 11.2427 66.0189 11.2C66.0616 11.1467 66.0936 11.088 66.1149 11.024C66.1363 10.9813 66.1523 10.9227 66.1629 10.848C66.1736 10.7627 66.1789 10.688 66.1789 10.624V2.016C66.1789 1.952 66.1736 1.88267 66.1629 1.808C66.1523 1.72267 66.1363 1.65867 66.1149 1.616C66.0936 1.552 66.0616 1.49867 66.0189 1.456C65.9869 1.40267 65.9443 1.36 65.8909 1.328C65.8376 1.296 65.7789 1.26933 65.7149 1.248C65.6509 1.216 65.5869 1.19467 65.5229 1.184C65.4483 1.16267 65.3416 1.14667 65.2029 1.136C65.0749 1.12533 64.9736 1.12 64.8989 1.12V0.639999H72.6109L72.9309 3.568H72.6589C72.5949 3.39733 72.5203 3.22133 72.4349 3.04C72.3496 2.85867 72.2589 2.68267 72.1629 2.512C72.0883 2.384 71.9763 2.23467 71.8269 2.064C71.6883 1.89333 71.5389 1.75467 71.3789 1.648C71.2403 1.552 71.0483 1.46133 70.8029 1.376C70.5683 1.29067 70.3709 1.23733 70.2109 1.216C70.0723 1.19467 69.9016 1.17333 69.6989 1.152C69.5069 1.13067 69.3149 1.12 69.1229 1.12H68.6749C68.5363 1.12 68.3603 1.13067 68.1469 1.152C67.9443 1.16267 67.8056 1.17867 67.7309 1.2C67.6349 1.22133 67.5443 1.25867 67.4589 1.312C67.3843 1.35467 67.3203 1.40267 67.2669 1.456C67.2243 1.50933 67.1869 1.584 67.1549 1.68C67.1229 1.776 67.1069 1.86667 67.1069 1.952V5.856H68.9949ZM86.6281 3.344L86.3721 3.44C86.2654 3.216 86.1481 3.00267 86.0201 2.8C85.8921 2.58667 85.7587 2.37867 85.6201 2.176C85.5241 2.02667 85.3854 1.872 85.2041 1.712C85.0227 1.552 84.8307 1.424 84.6281 1.328C84.4787 1.25333 84.2654 1.17333 83.9881 1.088C83.7107 1.00267 83.4174 0.959999 83.1081 0.959999C82.8414 0.959999 82.5267 1.03467 82.1641 1.184C81.8014 1.33333 81.4974 1.536 81.2521 1.792C81.0387 2.02667 80.8361 2.31467 80.6441 2.656C80.4521 2.99733 80.3134 3.29067 80.2281 3.536C80.1107 3.92 80.0094 4.37333 79.9241 4.896C79.8494 5.408 79.8121 5.86133 79.8121 6.256C79.8121 6.65067 79.8494 7.11467 79.9241 7.648C79.9987 8.18133 80.1161 8.61867 80.2761 8.96C80.4147 9.25867 80.5854 9.55733 80.7881 9.856C81.0014 10.144 81.2254 10.384 81.4601 10.576C81.7481 10.8107 82.0841 10.992 82.4681 11.12C82.8521 11.2373 83.2361 11.296 83.6201 11.296C83.8014 11.296 84.0521 11.2533 84.3721 11.168C84.6921 11.0827 84.9854 10.944 85.2521 10.752C85.4547 10.6027 85.6307 10.4533 85.7801 10.304C85.9294 10.144 86.0734 9.97333 86.2121 9.792C86.3294 9.64267 86.4521 9.456 86.5801 9.232C86.7187 9.008 86.8254 8.81067 86.9001 8.64L87.1401 8.752C87.0654 8.98667 86.9801 9.21067 86.8841 9.424C86.7987 9.63733 86.7134 9.82933 86.6281 10C86.5321 10.1813 86.4254 10.3573 86.3081 10.528C86.1907 10.6987 86.0681 10.8587 85.9401 11.008C85.7801 11.1787 85.5934 11.344 85.3801 11.504C85.1774 11.664 84.9694 11.7973 84.7561 11.904C84.5534 12 84.2921 12.0747 83.9721 12.128C83.6627 12.192 83.4014 12.224 83.1881 12.224C82.8894 12.224 82.5161 12.1493 82.0681 12C81.6201 11.84 81.2734 11.6693 81.0281 11.488C80.6441 11.2107 80.2974 10.8693 79.9881 10.464C79.6787 10.048 79.4441 9.63733 79.2841 9.232C79.1561 8.90133 79.0441 8.45867 78.9481 7.904C78.8627 7.33867 78.8201 6.85333 78.8201 6.448C78.8201 5.98933 78.8627 5.456 78.9481 4.848C79.0441 4.24 79.1721 3.73867 79.3321 3.344C79.4814 2.97067 79.6947 2.58133 79.9721 2.176C80.2494 1.76 80.5694 1.41333 80.9321 1.136C81.2201 0.911999 81.5774 0.735999 82.0041 0.608C82.4307 0.48 82.7881 0.415999 83.0761 0.415999C83.2254 0.415999 83.4281 0.442666 83.6841 0.495999C83.9507 0.549333 84.1641 0.607999 84.3241 0.672C84.4734 0.736 84.6334 0.794666 84.8041 0.848C84.9747 0.890666 85.0921 0.912 85.1561 0.912C85.2521 0.912 85.3747 0.879999 85.5241 0.815999C85.6841 0.751999 85.8014 0.693333 85.8761 0.639999L86.6281 3.344ZM88.1456 6.32C88.1456 5.968 88.1776 5.55733 88.2416 5.088C88.3056 4.61867 88.3856 4.224 88.4816 3.904C88.5669 3.616 88.6842 3.30667 88.8336 2.976C88.9829 2.64533 89.1536 2.35733 89.3456 2.112C89.4949 1.90933 89.6762 1.70667 89.8896 1.504C90.1136 1.30133 90.3589 1.12 90.6256 0.959999C90.8602 0.821333 91.1909 0.698666 91.6176 0.591999C92.0442 0.474666 92.4176 0.415999 92.7376 0.415999C93.0576 0.415999 93.4309 0.474666 93.8576 0.591999C94.2842 0.698666 94.6149 0.821333 94.8496 0.959999C95.1162 1.12 95.3562 1.30133 95.5696 1.504C95.7936 1.70667 95.9802 1.90933 96.1296 2.112C96.3216 2.35733 96.4922 2.64533 96.6416 2.976C96.7909 3.30667 96.9082 3.616 96.9936 3.904C97.0896 4.224 97.1696 4.61867 97.2336 5.088C97.2976 5.55733 97.3296 5.968 97.3296 6.32C97.3296 6.672 97.2976 7.08267 97.2336 7.552C97.1696 8.02133 97.0896 8.416 96.9936 8.736C96.9082 9.024 96.7909 9.33333 96.6416 9.664C96.4922 9.99467 96.3216 10.2827 96.1296 10.528C95.9802 10.7307 95.7936 10.9333 95.5696 11.136C95.3562 11.3387 95.1162 11.52 94.8496 11.68C94.6149 11.8187 94.2842 11.9413 93.8576 12.048C93.4309 12.1653 93.0576 12.224 92.7376 12.224C92.4176 12.224 92.0442 12.1653 91.6176 12.048C91.1909 11.9413 90.8602 11.8187 90.6256 11.68C90.3589 11.52 90.1136 11.3387 89.8896 11.136C89.6762 10.9333 89.4949 10.7307 89.3456 10.528C89.1536 10.2827 88.9829 9.99467 88.8336 9.664C88.6842 9.33333 88.5669 9.024 88.4816 8.736C88.3856 8.416 88.3056 8.02133 88.2416 7.552C88.1776 7.08267 88.1456 6.672 88.1456 6.32ZM89.1856 6.32C89.1856 6.55467 89.2016 6.88533 89.2336 7.312C89.2762 7.73867 89.3296 8.10667 89.3936 8.416C89.4469 8.672 89.5322 8.95467 89.6496 9.264C89.7776 9.57333 89.9002 9.824 90.0176 10.016C90.1349 10.208 90.2896 10.4107 90.4816 10.624C90.6736 10.8373 90.8709 11.0187 91.0736 11.168C91.2656 11.3067 91.5322 11.424 91.8736 11.52C92.2256 11.616 92.5136 11.664 92.7376 11.664C92.9616 11.664 93.2442 11.616 93.5856 11.52C93.9376 11.424 94.2096 11.3067 94.4016 11.168C94.6149 11.0187 94.8122 10.8373 94.9936 10.624C95.1856 10.4107 95.3402 10.208 95.4576 10.016C95.5749 9.824 95.6922 9.57333 95.8096 9.264C95.9376 8.95467 96.0282 8.672 96.0816 8.416C96.1456 8.10667 96.1936 7.73867 96.2256 7.312C96.2682 6.88533 96.2896 6.55467 96.2896 6.32C96.2896 6.08533 96.2682 5.75467 96.2256 5.328C96.1936 4.89067 96.1456 4.52267 96.0816 4.224C96.0282 3.968 95.9376 3.68533 95.8096 3.376C95.6922 3.06667 95.5749 2.816 95.4576 2.624C95.3402 2.432 95.1856 2.22933 94.9936 2.016C94.8122 1.80267 94.6149 1.62133 94.4016 1.472C94.2096 1.32267 93.9376 1.20533 93.5856 1.12C93.2442 1.024 92.9616 0.976 92.7376 0.976C92.5136 0.976 92.2256 1.024 91.8736 1.12C91.5322 1.20533 91.2656 1.32267 91.0736 1.472C90.8709 1.62133 90.6736 1.80267 90.4816 2.016C90.2896 2.22933 90.1349 2.432 90.0176 2.624C89.9002 2.816 89.7776 3.06667 89.6496 3.376C89.5322 3.68533 89.4469 3.968 89.3936 4.224C89.3296 4.52267 89.2762 4.89067 89.2336 5.328C89.2016 5.75467 89.1856 6.08533 89.1856 6.32ZM99.8463 2.016C99.8463 1.952 99.841 1.88267 99.8303 1.808C99.8196 1.72267 99.8036 1.65867 99.7823 1.616C99.761 1.552 99.729 1.49867 99.6863 1.456C99.6543 1.40267 99.6116 1.36 99.5583 1.328C99.505 1.296 99.4463 1.26933 99.3823 1.248C99.3183 1.216 99.2543 1.19467 99.1903 1.184C99.1156 1.16267 99.009 1.14667 98.8703 1.136C98.7423 1.12533 98.641 1.12 98.5663 1.12V0.639999H102.054V1.12C101.98 1.12 101.878 1.12533 101.75 1.136C101.622 1.14667 101.516 1.16267 101.43 1.184C101.366 1.19467 101.302 1.216 101.238 1.248C101.174 1.26933 101.116 1.296 101.062 1.328C101.02 1.36 100.977 1.40267 100.934 1.456C100.892 1.49867 100.86 1.552 100.838 1.616C100.828 1.65867 100.812 1.72267 100.79 1.808C100.78 1.88267 100.774 1.952 100.774 2.016V8.416C100.774 8.59733 100.785 8.848 100.806 9.168C100.838 9.488 100.886 9.73333 100.95 9.904C101.014 10.064 101.094 10.2187 101.19 10.368C101.286 10.5173 101.388 10.6453 101.494 10.752C101.601 10.8587 101.729 10.96 101.878 11.056C102.038 11.1413 102.188 11.2107 102.326 11.264C102.465 11.3173 102.641 11.3653 102.854 11.408C103.068 11.44 103.276 11.456 103.478 11.456C103.67 11.456 103.889 11.44 104.134 11.408C104.38 11.376 104.588 11.3227 104.758 11.248C104.929 11.1733 105.094 11.0773 105.254 10.96C105.425 10.832 105.564 10.704 105.67 10.576C105.766 10.4587 105.852 10.3253 105.926 10.176C106.001 10.0267 106.06 9.888 106.102 9.76C106.134 9.65333 106.166 9.47733 106.198 9.232C106.23 8.976 106.246 8.73067 106.246 8.496V2.016C106.246 1.952 106.241 1.88267 106.23 1.808C106.22 1.72267 106.204 1.65867 106.182 1.616C106.161 1.552 106.129 1.49867 106.086 1.456C106.054 1.40267 106.012 1.36 105.958 1.328C105.905 1.296 105.846 1.26933 105.782 1.248C105.718 1.216 105.654 1.19467 105.59 1.184C105.516 1.16267 105.409 1.14667 105.27 1.136C105.142 1.12533 105.041 1.12 104.966 1.12V0.639999H108.006V1.12C107.932 1.12 107.83 1.12533 107.702 1.136C107.574 1.14667 107.468 1.16267 107.382 1.184C107.318 1.19467 107.254 1.216 107.19 1.248C107.126 1.26933 107.068 1.296 107.014 1.328C106.972 1.36 106.929 1.40267 106.886 1.456C106.844 1.49867 106.812 1.552 106.79 1.616C106.78 1.65867 106.764 1.72267 106.742 1.808C106.732 1.88267 106.726 1.952 106.726 2.016V8.416C106.726 8.736 106.71 9.06133 106.678 9.392C106.657 9.72267 106.62 9.968 106.566 10.128C106.502 10.352 106.406 10.576 106.278 10.8C106.161 11.0133 106.049 11.1787 105.942 11.296C105.825 11.4347 105.66 11.568 105.446 11.696C105.244 11.824 105.041 11.9253 104.838 12C104.604 12.0747 104.337 12.128 104.038 12.16C103.75 12.2027 103.484 12.224 103.238 12.224C102.993 12.224 102.705 12.192 102.374 12.128C102.054 12.0747 101.772 12 101.526 11.904C101.281 11.7973 101.057 11.664 100.854 11.504C100.662 11.344 100.47 11.12 100.278 10.832C100.118 10.5867 100.006 10.272 99.9423 9.888C99.8783 9.504 99.8463 9.056 99.8463 8.544V2.016ZM117.685 2.016C117.685 1.952 117.68 1.88267 117.669 1.808C117.658 1.72267 117.642 1.65867 117.621 1.616C117.6 1.552 117.568 1.49867 117.525 1.456C117.493 1.40267 117.45 1.36 117.397 1.328C117.354 1.296 117.301 1.26933 117.237 1.248C117.173 1.216 117.109 1.19467 117.045 1.184C116.97 1.16267 116.864 1.14667 116.725 1.136C116.586 1.12533 116.48 1.12 116.405 1.12V0.639999H119.477V1.12C119.402 1.12 119.296 1.12533 119.157 1.136C119.029 1.14667 118.922 1.16267 118.837 1.184C118.773 1.19467 118.709 1.216 118.645 1.248C118.592 1.26933 118.538 1.296 118.485 1.328C118.442 1.36 118.4 1.40267 118.357 1.456C118.314 1.49867 118.282 1.552 118.261 1.616C118.25 1.65867 118.234 1.72267 118.213 1.808C118.202 1.88267 118.197 1.952 118.197 2.016V12H117.637L111.029 1.648V10.624C111.029 10.688 111.034 10.7627 111.045 10.848C111.066 10.9227 111.082 10.9813 111.093 11.024C111.114 11.088 111.146 11.1467 111.189 11.2C111.232 11.2427 111.274 11.28 111.317 11.312C111.37 11.344 111.424 11.3707 111.477 11.392C111.541 11.4133 111.605 11.4347 111.669 11.456C111.754 11.4667 111.861 11.4827 111.989 11.504C112.128 11.5147 112.234 11.52 112.309 11.52V12H109.237V11.52C109.312 11.52 109.418 11.5147 109.557 11.504C109.696 11.4827 109.802 11.4667 109.877 11.456C109.941 11.4347 110.005 11.4133 110.069 11.392C110.133 11.3707 110.186 11.344 110.229 11.312C110.282 11.28 110.325 11.2427 110.357 11.2C110.4 11.1467 110.432 11.088 110.453 11.024C110.474 10.9813 110.49 10.9227 110.501 10.848C110.512 10.7627 110.517 10.688 110.517 10.624V2.016C110.517 1.952 110.512 1.88267 110.501 1.808C110.49 1.72267 110.474 1.65867 110.453 1.616C110.432 1.552 110.4 1.49867 110.357 1.456C110.325 1.40267 110.282 1.36 110.229 1.328C110.186 1.296 110.133 1.26933 110.069 1.248C110.005 1.216 109.941 1.19467 109.877 1.184C109.802 1.16267 109.696 1.14667 109.557 1.136C109.418 1.12533 109.312 1.12 109.237 1.12V0.639999H111.381L117.685 10.16V2.016ZM129.233 0.639999L129.761 3.472H129.473C129.409 3.33333 129.334 3.184 129.249 3.024C129.174 2.864 129.094 2.71467 129.009 2.576C128.934 2.43733 128.849 2.29867 128.753 2.16C128.657 2.02133 128.545 1.888 128.417 1.76C128.31 1.65333 128.187 1.55733 128.049 1.472C127.921 1.38667 127.787 1.31733 127.649 1.264C127.542 1.22133 127.398 1.18933 127.217 1.168C127.046 1.136 126.902 1.12 126.785 1.12H126.545C126.47 1.12 126.379 1.12533 126.273 1.136C126.177 1.14667 126.097 1.16267 126.033 1.184C125.958 1.20533 125.878 1.24267 125.793 1.296C125.718 1.33867 125.654 1.38667 125.601 1.44C125.558 1.49333 125.521 1.568 125.489 1.664C125.457 1.76 125.441 1.85067 125.441 1.936V10.624C125.441 10.688 125.446 10.7627 125.457 10.848C125.478 10.9227 125.494 10.9813 125.505 11.024C125.526 11.088 125.558 11.1467 125.601 11.2C125.643 11.2427 125.686 11.28 125.729 11.312C125.782 11.344 125.841 11.3707 125.905 11.392C125.979 11.4133 126.049 11.4347 126.113 11.456C126.198 11.4667 126.326 11.4827 126.497 11.504C126.678 11.5147 126.806 11.52 126.881 11.52V12H123.073V11.52C123.147 11.52 123.275 11.5147 123.457 11.504C123.638 11.4827 123.766 11.4667 123.841 11.456C123.905 11.4347 123.969 11.4133 124.033 11.392C124.107 11.3707 124.171 11.344 124.225 11.312C124.278 11.28 124.321 11.2427 124.353 11.2C124.395 11.1467 124.427 11.088 124.449 11.024C124.47 10.9813 124.486 10.9227 124.497 10.848C124.507 10.7627 124.513 10.688 124.513 10.624V1.936C124.513 1.85067 124.497 1.76 124.465 1.664C124.443 1.568 124.406 1.49333 124.353 1.44C124.31 1.38667 124.246 1.33867 124.161 1.296C124.086 1.24267 124.006 1.20533 123.921 1.184C123.857 1.16267 123.771 1.14667 123.665 1.136C123.569 1.12533 123.483 1.12 123.409 1.12H123.169C123.051 1.12 122.902 1.136 122.721 1.168C122.55 1.18933 122.411 1.22133 122.305 1.264C122.166 1.31733 122.027 1.38667 121.889 1.472C121.761 1.55733 121.643 1.65333 121.537 1.76C121.409 1.888 121.297 2.02133 121.201 2.16C121.115 2.29867 121.03 2.43733 120.945 2.576C120.87 2.71467 120.79 2.864 120.705 3.024C120.619 3.184 120.545 3.33333 120.481 3.472H120.193L120.721 0.639999H129.233ZM138.261 10.704C138.335 10.8 138.421 10.9013 138.517 11.008C138.613 11.1147 138.698 11.1947 138.773 11.248C138.858 11.312 138.97 11.3707 139.109 11.424C139.247 11.4667 139.375 11.488 139.493 11.488H139.909V12H137.861L134.549 6.4H132.693V10.624C132.693 10.688 132.698 10.7627 132.709 10.848C132.73 10.9227 132.746 10.9813 132.757 11.024C132.778 11.088 132.81 11.1467 132.853 11.2C132.895 11.2427 132.938 11.28 132.981 11.312C133.034 11.344 133.093 11.3707 133.157 11.392C133.221 11.4133 133.285 11.4347 133.349 11.456C133.434 11.4667 133.541 11.4827 133.669 11.504C133.797 11.5147 133.898 11.52 133.973 11.52V12H130.485V11.52C130.559 11.52 130.661 11.5147 130.789 11.504C130.927 11.4827 131.034 11.4667 131.109 11.456C131.173 11.4347 131.237 11.4133 131.301 11.392C131.365 11.3707 131.423 11.344 131.477 11.312C131.53 11.28 131.573 11.2427 131.605 11.2C131.647 11.1467 131.679 11.088 131.701 11.024C131.722 10.9813 131.738 10.9227 131.749 10.848C131.759 10.7627 131.765 10.688 131.765 10.624V2.016C131.765 1.952 131.759 1.88267 131.749 1.808C131.738 1.72267 131.722 1.65867 131.701 1.616C131.679 1.552 131.647 1.49867 131.605 1.456C131.573 1.40267 131.53 1.36 131.477 1.328C131.423 1.296 131.365 1.26933 131.301 1.248C131.237 1.216 131.173 1.19467 131.109 1.184C131.034 1.16267 130.927 1.14667 130.789 1.136C130.661 1.12533 130.559 1.12 130.485 1.12V0.639999H134.853C135.023 0.639999 135.295 0.656 135.669 0.688C136.042 0.709333 136.325 0.746666 136.517 0.799999C136.73 0.853333 136.943 0.922666 137.157 1.008C137.37 1.09333 137.546 1.184 137.685 1.28C137.802 1.35467 137.941 1.47733 138.101 1.648C138.261 1.81867 138.378 1.984 138.453 2.144C138.538 2.304 138.607 2.512 138.661 2.768C138.714 3.024 138.741 3.27467 138.741 3.52C138.741 3.76533 138.714 4.02667 138.661 4.304C138.618 4.57067 138.554 4.784 138.469 4.944C138.383 5.12533 138.271 5.29067 138.133 5.44C137.994 5.58933 137.866 5.70667 137.749 5.792C137.61 5.89867 137.45 5.98933 137.269 6.064C137.087 6.128 136.885 6.18667 136.661 6.24C136.522 6.272 136.346 6.29867 136.133 6.32C135.93 6.34133 135.733 6.36267 135.541 6.384L138.261 10.704ZM134.741 5.92C134.965 5.92 135.205 5.90933 135.461 5.888C135.727 5.86667 135.946 5.83467 136.117 5.792C136.266 5.76 136.426 5.70133 136.597 5.616C136.767 5.52 136.895 5.43467 136.981 5.36C137.066 5.27467 137.162 5.168 137.269 5.04C137.386 4.90133 137.471 4.77333 137.525 4.656C137.578 4.53867 137.626 4.368 137.669 4.144C137.722 3.92 137.749 3.712 137.749 3.52C137.749 3.33867 137.722 3.14133 137.669 2.928C137.615 2.704 137.562 2.528 137.509 2.4C137.455 2.272 137.365 2.13867 137.237 2C137.119 1.86133 137.013 1.75467 136.917 1.68C136.81 1.59467 136.661 1.51467 136.469 1.44C136.277 1.35467 136.101 1.29067 135.941 1.248C135.738 1.19467 135.509 1.16267 135.253 1.152C135.007 1.13067 134.773 1.12 134.549 1.12H133.973C133.898 1.12 133.797 1.12533 133.669 1.136C133.541 1.14667 133.434 1.16267 133.349 1.184C133.285 1.19467 133.221 1.216 133.157 1.248C133.093 1.26933 133.034 1.296 132.981 1.328C132.938 1.36 132.895 1.40267 132.853 1.456C132.81 1.49867 132.778 1.552 132.757 1.616C132.746 1.65867 132.73 1.72267 132.709 1.808C132.698 1.88267 132.693 1.952 132.693 2.016V5.92H134.741ZM145.457 10.624C145.457 10.688 145.463 10.7627 145.473 10.848C145.495 10.9227 145.511 10.9813 145.521 11.024C145.543 11.088 145.575 11.1467 145.617 11.2C145.66 11.2427 145.703 11.28 145.745 11.312C145.799 11.344 145.857 11.3707 145.921 11.392C145.996 11.4133 146.065 11.4347 146.129 11.456C146.215 11.4667 146.327 11.4827 146.465 11.504C146.615 11.5147 146.727 11.52 146.801 11.52V12H143.185V11.52C143.26 11.52 143.372 11.5147 143.521 11.504C143.671 11.4827 143.783 11.4667 143.857 11.456C143.921 11.4347 143.985 11.4133 144.049 11.392C144.124 11.3707 144.188 11.344 144.241 11.312C144.295 11.28 144.337 11.2427 144.369 11.2C144.412 11.1467 144.444 11.088 144.465 11.024C144.487 10.9813 144.503 10.9227 144.513 10.848C144.524 10.7627 144.529 10.688 144.529 10.624V7.504L141.521 1.776C141.457 1.69067 141.377 1.6 141.281 1.504C141.196 1.39733 141.089 1.31733 140.961 1.264C140.855 1.21067 140.711 1.17333 140.529 1.152C140.348 1.13067 140.193 1.12 140.065 1.12V0.639999H143.825V1.12C143.655 1.12 143.463 1.13067 143.249 1.152C143.047 1.17333 142.919 1.19467 142.865 1.216C142.812 1.23733 142.753 1.26933 142.689 1.312C142.625 1.35467 142.593 1.40267 142.593 1.456C142.593 1.49867 142.604 1.55733 142.625 1.632C142.647 1.696 142.679 1.77067 142.721 1.856L145.313 6.8L148.017 1.856C148.06 1.792 148.092 1.72267 148.113 1.648C148.145 1.56267 148.161 1.49867 148.161 1.456C148.161 1.40267 148.135 1.35467 148.081 1.312C148.039 1.26933 147.991 1.23733 147.937 1.216C147.873 1.19467 147.724 1.17333 147.489 1.152C147.255 1.13067 147.041 1.12 146.849 1.12V0.639999H150.145V1.12C150.007 1.12 149.847 1.13067 149.665 1.152C149.495 1.17333 149.351 1.21067 149.233 1.264C149.095 1.31733 148.977 1.392 148.881 1.488C148.796 1.584 148.716 1.68 148.641 1.776L145.457 7.536V10.624ZM152.537 9.472C152.537 9.216 152.623 8.99733 152.793 8.816C152.975 8.63467 153.188 8.544 153.433 8.544C153.7 8.544 153.913 8.63467 154.073 8.816C154.244 8.99733 154.329 9.216 154.329 9.472C154.329 9.728 154.244 9.94667 154.073 10.128C153.913 10.3093 153.7 10.4 153.433 10.4C153.188 10.4 152.975 10.3093 152.793 10.128C152.623 9.94667 152.537 9.728 152.537 9.472ZM152.537 3.632C152.537 3.376 152.623 3.15733 152.793 2.976C152.975 2.79467 153.188 2.704 153.433 2.704C153.7 2.704 153.913 2.79467 154.073 2.976C154.244 3.15733 154.329 3.376 154.329 3.632C154.329 3.888 154.244 4.10667 154.073 4.288C153.913 4.46933 153.7 4.56 153.433 4.56C153.188 4.56 152.975 4.46933 152.793 4.288C152.623 4.10667 152.537 3.888 152.537 3.632Z" fill="#55585B"/>
</svg>
