<svg width="143" height="13" viewBox="0 0 143 13" fill="none" xmlns="http://www.w3.org/2000/svg">
<path d="M9.26238 0.639999L9.79038 3.472H9.50238C9.43838 3.33333 9.36371 3.184 9.27838 3.024C9.20371 2.864 9.12371 2.71467 9.03838 2.576C8.96371 2.43733 8.87838 2.29867 8.78238 2.16C8.68638 2.02133 8.57438 1.888 8.44638 1.76C8.33971 1.65333 8.21704 1.55733 8.07838 1.472C7.95038 1.38667 7.81704 1.31733 7.67838 1.264C7.57171 1.22133 7.42771 1.18933 7.24638 1.168C7.07571 1.136 6.93171 1.12 6.81438 1.12H6.57438C6.49971 1.12 6.40904 1.12533 6.30238 1.136C6.20638 1.14667 6.12638 1.16267 6.06238 1.184C5.98771 1.20533 5.90771 1.24267 5.82238 1.296C5.74771 1.33867 5.68371 1.38667 5.63038 1.44C5.58771 1.49333 5.55038 1.568 5.51838 1.664C5.48638 1.76 5.47038 1.85067 5.47038 1.936V10.624C5.47038 10.688 5.47571 10.7627 5.48638 10.848C5.50771 10.9227 5.52371 10.9813 5.53438 11.024C5.55571 11.088 5.58771 11.1467 5.63038 11.2C5.67304 11.2427 5.71571 11.28 5.75838 11.312C5.81171 11.344 5.87038 11.3707 5.93438 11.392C6.00904 11.4133 6.07838 11.4347 6.14238 11.456C6.22771 11.4667 6.35571 11.4827 6.52638 11.504C6.70771 11.5147 6.83571 11.52 6.91038 11.52V12H3.10238V11.52C3.17704 11.52 3.30504 11.5147 3.48638 11.504C3.66771 11.4827 3.79571 11.4667 3.87038 11.456C3.93438 11.4347 3.99838 11.4133 4.06238 11.392C4.13704 11.3707 4.20104 11.344 4.25438 11.312C4.30771 11.28 4.35038 11.2427 4.38238 11.2C4.42504 11.1467 4.45704 11.088 4.47838 11.024C4.49971 10.9813 4.51571 10.9227 4.52638 10.848C4.53704 10.7627 4.54238 10.688 4.54238 10.624V1.936C4.54238 1.85067 4.52638 1.76 4.49438 1.664C4.47304 1.568 4.43571 1.49333 4.38238 1.44C4.33971 1.38667 4.27571 1.33867 4.19038 1.296C4.11571 1.24267 4.03571 1.20533 3.95038 1.184C3.88638 1.16267 3.80104 1.14667 3.69438 1.136C3.59838 1.12533 3.51304 1.12 3.43838 1.12H3.19838C3.08104 1.12 2.93171 1.136 2.75038 1.168C2.57971 1.18933 2.44104 1.22133 2.33438 1.264C2.19571 1.31733 2.05704 1.38667 1.91838 1.472C1.79038 1.55733 1.67304 1.65333 1.56638 1.76C1.43838 1.888 1.32638 2.02133 1.23038 2.16C1.14504 2.29867 1.05971 2.43733 0.974376 2.576C0.899709 2.71467 0.819709 2.864 0.734376 3.024C0.649042 3.184 0.574376 3.33333 0.510376 3.472H0.222376L0.750376 0.639999H9.26238ZM18.2905 10.704C18.3652 10.8 18.4505 10.9013 18.5465 11.008C18.6425 11.1147 18.7278 11.1947 18.8025 11.248C18.8878 11.312 18.9998 11.3707 19.1385 11.424C19.2772 11.4667 19.4052 11.488 19.5225 11.488H19.9385V12H17.8905L14.5785 6.4H12.7225V10.624C12.7225 10.688 12.7278 10.7627 12.7385 10.848C12.7598 10.9227 12.7758 10.9813 12.7865 11.024C12.8078 11.088 12.8398 11.1467 12.8825 11.2C12.9252 11.2427 12.9678 11.28 13.0105 11.312C13.0638 11.344 13.1225 11.3707 13.1865 11.392C13.2505 11.4133 13.3145 11.4347 13.3785 11.456C13.4638 11.4667 13.5705 11.4827 13.6985 11.504C13.8265 11.5147 13.9278 11.52 14.0025 11.52V12H10.5145V11.52C10.5892 11.52 10.6905 11.5147 10.8185 11.504C10.9572 11.4827 11.0638 11.4667 11.1385 11.456C11.2025 11.4347 11.2665 11.4133 11.3305 11.392C11.3945 11.3707 11.4532 11.344 11.5065 11.312C11.5598 11.28 11.6025 11.2427 11.6345 11.2C11.6772 11.1467 11.7092 11.088 11.7305 11.024C11.7518 10.9813 11.7678 10.9227 11.7785 10.848C11.7892 10.7627 11.7945 10.688 11.7945 10.624V2.016C11.7945 1.952 11.7892 1.88267 11.7785 1.808C11.7678 1.72267 11.7518 1.65867 11.7305 1.616C11.7092 1.552 11.6772 1.49867 11.6345 1.456C11.6025 1.40267 11.5598 1.36 11.5065 1.328C11.4532 1.296 11.3945 1.26933 11.3305 1.248C11.2665 1.216 11.2025 1.19467 11.1385 1.184C11.0638 1.16267 10.9572 1.14667 10.8185 1.136C10.6905 1.12533 10.5892 1.12 10.5145 1.12V0.639999H14.8825C15.0532 0.639999 15.3252 0.656 15.6985 0.688C16.0718 0.709333 16.3545 0.746666 16.5465 0.799999C16.7598 0.853333 16.9732 0.922666 17.1865 1.008C17.3998 1.09333 17.5758 1.184 17.7145 1.28C17.8318 1.35467 17.9705 1.47733 18.1305 1.648C18.2905 1.81867 18.4078 1.984 18.4825 2.144C18.5678 2.304 18.6372 2.512 18.6905 2.768C18.7438 3.024 18.7705 3.27467 18.7705 3.52C18.7705 3.76533 18.7438 4.02667 18.6905 4.304C18.6478 4.57067 18.5838 4.784 18.4985 4.944C18.4132 5.12533 18.3012 5.29067 18.1625 5.44C18.0238 5.58933 17.8958 5.70667 17.7785 5.792C17.6398 5.89867 17.4798 5.98933 17.2985 6.064C17.1172 6.128 16.9145 6.18667 16.6905 6.24C16.5518 6.272 16.3758 6.29867 16.1625 6.32C15.9598 6.34133 15.7625 6.36267 15.5705 6.384L18.2905 10.704ZM14.7705 5.92C14.9945 5.92 15.2345 5.90933 15.4905 5.888C15.7572 5.86667 15.9758 5.83467 16.1465 5.792C16.2958 5.76 16.4558 5.70133 16.6265 5.616C16.7972 5.52 16.9252 5.43467 17.0105 5.36C17.0958 5.27467 17.1918 5.168 17.2985 5.04C17.4158 4.90133 17.5012 4.77333 17.5545 4.656C17.6078 4.53867 17.6558 4.368 17.6985 4.144C17.7518 3.92 17.7785 3.712 17.7785 3.52C17.7785 3.33867 17.7518 3.14133 17.6985 2.928C17.6452 2.704 17.5918 2.528 17.5385 2.4C17.4852 2.272 17.3945 2.13867 17.2665 2C17.1492 1.86133 17.0425 1.75467 16.9465 1.68C16.8398 1.59467 16.6905 1.51467 16.4985 1.44C16.3065 1.35467 16.1305 1.29067 15.9705 1.248C15.7678 1.19467 15.5385 1.16267 15.2825 1.152C15.0372 1.13067 14.8025 1.12 14.5785 1.12H14.0025C13.9278 1.12 13.8265 1.12533 13.6985 1.136C13.5705 1.14667 13.4638 1.16267 13.3785 1.184C13.3145 1.19467 13.2505 1.216 13.1865 1.248C13.1225 1.26933 13.0638 1.296 13.0105 1.328C12.9678 1.36 12.9252 1.40267 12.8825 1.456C12.8398 1.49867 12.8078 1.552 12.7865 1.616C12.7758 1.65867 12.7598 1.72267 12.7385 1.808C12.7278 1.88267 12.7225 1.952 12.7225 2.016V5.92H14.7705ZM22.9751 7.712L22.0471 10.608C22.0258 10.6933 22.0045 10.784 21.9831 10.88C21.9618 10.976 21.9511 11.056 21.9511 11.12C21.9511 11.184 21.9778 11.2427 22.0311 11.296C22.0951 11.3493 22.1591 11.3867 22.2231 11.408C22.3298 11.44 22.4631 11.4667 22.6231 11.488C22.7831 11.5093 22.9751 11.52 23.1991 11.52V12H20.0951V11.52C20.2765 11.52 20.4631 11.4987 20.6551 11.456C20.8578 11.4133 21.0071 11.344 21.1031 11.248C21.1885 11.1733 21.2738 11.072 21.3591 10.944C21.4445 10.8053 21.5138 10.656 21.5671 10.496L24.7671 0.575999L25.3431 0.415999L28.9271 10.688C28.9698 10.7627 29.0125 10.848 29.0551 10.944C29.1085 11.0293 29.1565 11.0987 29.1991 11.152C29.2525 11.216 29.3058 11.2693 29.3591 11.312C29.4231 11.3547 29.4925 11.392 29.5671 11.424C29.6525 11.456 29.7431 11.4773 29.8391 11.488C29.9351 11.4987 30.0471 11.5093 30.1751 11.52V12H26.8151V11.52C27.0178 11.52 27.1938 11.5147 27.3431 11.504C27.4925 11.4827 27.6045 11.4613 27.6791 11.44C27.7645 11.4187 27.8338 11.3813 27.8871 11.328C27.9405 11.2747 27.9671 11.2107 27.9671 11.136C27.9671 11.0933 27.9565 11.024 27.9351 10.928C27.9245 10.8213 27.9031 10.7147 27.8711 10.608L26.8631 7.712H22.9751ZM24.8471 1.888L23.1351 7.232H26.7031L24.8471 1.888ZM34.9989 12.128L31.6549 1.824C31.6015 1.70667 31.5429 1.60533 31.4789 1.52C31.4149 1.424 31.3189 1.33867 31.1909 1.264C31.0949 1.21067 30.9615 1.17333 30.7909 1.152C30.6202 1.13067 30.4869 1.12 30.3909 1.12V0.639999H33.8629V1.12C33.7135 1.12 33.5322 1.13067 33.3189 1.152C33.1162 1.17333 32.9775 1.19467 32.9029 1.216C32.8389 1.23733 32.7802 1.26933 32.7269 1.312C32.6842 1.344 32.6522 1.38667 32.6309 1.44C32.6202 1.48267 32.6149 1.54667 32.6149 1.632C32.6255 1.70667 32.6362 1.776 32.6469 1.84L35.4149 10.464L38.1829 1.84C38.2042 1.776 38.2149 1.70667 38.2149 1.632C38.2255 1.54667 38.2202 1.48267 38.1989 1.44C38.1882 1.38667 38.1562 1.344 38.1029 1.312C38.0495 1.26933 37.9909 1.23733 37.9269 1.216C37.8522 1.19467 37.7135 1.17333 37.5109 1.152C37.3082 1.13067 37.1322 1.12 36.9829 1.12V0.639999H40.1829V1.12C40.0762 1.12 39.9109 1.136 39.6869 1.168C39.4629 1.18933 39.2922 1.22667 39.1749 1.28C39.0362 1.35467 38.9295 1.43467 38.8549 1.52C38.7909 1.60533 38.7322 1.70667 38.6789 1.824L35.3189 12.128H34.9989ZM44.9977 5.856C45.0831 5.856 45.1897 5.85067 45.3177 5.84C45.4457 5.81867 45.5364 5.80267 45.5897 5.792C45.6431 5.77067 45.7071 5.744 45.7817 5.712C45.8671 5.66933 45.9311 5.61067 45.9737 5.536C46.0271 5.472 46.0697 5.38133 46.1017 5.264C46.1444 5.136 46.1711 5.01867 46.1817 4.912C46.2031 4.82667 46.2191 4.69867 46.2297 4.528C46.2404 4.35733 46.2457 4.21867 46.2457 4.112H46.5977V8.192H46.2457C46.2457 8.10667 46.2404 7.968 46.2297 7.776C46.2191 7.584 46.2031 7.44 46.1817 7.344C46.1711 7.23733 46.1444 7.11467 46.1017 6.976C46.0591 6.83733 46.0111 6.736 45.9577 6.672C45.9151 6.608 45.8457 6.54933 45.7497 6.496C45.6537 6.44267 45.5791 6.41067 45.5257 6.4C45.4617 6.37867 45.3657 6.36267 45.2377 6.352C45.1204 6.34133 45.0191 6.336 44.9337 6.336H43.1097V10.656C43.1097 10.752 43.1311 10.864 43.1737 10.992C43.2271 11.1093 43.2911 11.1947 43.3657 11.248C43.4511 11.312 43.5524 11.36 43.6697 11.392C43.7977 11.424 43.9151 11.4507 44.0217 11.472C44.1177 11.4827 44.2511 11.4933 44.4217 11.504C44.5924 11.5147 44.7311 11.52 44.8377 11.52H45.2537C45.4777 11.52 45.7391 11.5093 46.0377 11.488C46.3364 11.456 46.5817 11.4187 46.7737 11.376C46.9551 11.3227 47.1204 11.2587 47.2697 11.184C47.4297 11.0987 47.5684 11.0133 47.6857 10.928C47.8244 10.8213 47.9471 10.704 48.0537 10.576C48.1711 10.448 48.2831 10.288 48.3897 10.096C48.4751 9.95733 48.5551 9.792 48.6297 9.6C48.7151 9.408 48.7844 9.232 48.8377 9.072H49.0617L48.6777 12H40.9017V11.52C40.9764 11.52 41.0777 11.5147 41.2057 11.504C41.3444 11.4827 41.4511 11.4667 41.5257 11.456C41.5897 11.4347 41.6537 11.4133 41.7177 11.392C41.7817 11.3707 41.8404 11.344 41.8937 11.312C41.9471 11.28 41.9897 11.2427 42.0217 11.2C42.0644 11.1467 42.0964 11.088 42.1177 11.024C42.1391 10.9813 42.1551 10.9227 42.1657 10.848C42.1764 10.7627 42.1817 10.688 42.1817 10.624V2.016C42.1817 1.952 42.1764 1.88267 42.1657 1.808C42.1551 1.72267 42.1391 1.65867 42.1177 1.616C42.0964 1.552 42.0644 1.49867 42.0217 1.456C41.9897 1.40267 41.9471 1.36 41.8937 1.328C41.8404 1.296 41.7817 1.26933 41.7177 1.248C41.6537 1.216 41.5897 1.19467 41.5257 1.184C41.4511 1.16267 41.3444 1.14667 41.2057 1.136C41.0777 1.12533 40.9764 1.12 40.9017 1.12V0.639999H48.6137L48.9338 3.568H48.6617C48.5978 3.39733 48.5231 3.22133 48.4377 3.04C48.3524 2.85867 48.2617 2.68267 48.1657 2.512C48.0911 2.384 47.9791 2.23467 47.8297 2.064C47.6911 1.89333 47.5417 1.75467 47.3817 1.648C47.2431 1.552 47.0511 1.46133 46.8057 1.376C46.5711 1.29067 46.3737 1.23733 46.2137 1.216C46.0751 1.19467 45.9044 1.17333 45.7017 1.152C45.5097 1.13067 45.3177 1.12 45.1257 1.12H44.6777C44.5391 1.12 44.3631 1.13067 44.1497 1.152C43.9471 1.16267 43.8084 1.17867 43.7337 1.2C43.6377 1.22133 43.5471 1.25867 43.4617 1.312C43.3871 1.35467 43.3231 1.40267 43.2697 1.456C43.2271 1.50933 43.1897 1.584 43.1577 1.68C43.1257 1.776 43.1097 1.86667 43.1097 1.952V5.856H44.9977ZM52.218 10.64C52.218 10.736 52.2393 10.848 52.282 10.976C52.3353 11.0933 52.3993 11.1787 52.474 11.232C52.5593 11.296 52.6607 11.344 52.778 11.376C52.906 11.408 53.0233 11.4347 53.13 11.456C53.226 11.4667 53.3593 11.4773 53.53 11.488C53.7007 11.4987 53.8393 11.504 53.946 11.504H54.362C54.586 11.504 54.8367 11.4933 55.114 11.472C55.3913 11.44 55.6153 11.4027 55.786 11.36C55.978 11.3067 56.154 11.2427 56.314 11.168C56.4847 11.0827 56.6287 10.9973 56.746 10.912C56.8953 10.7947 57.0233 10.6773 57.13 10.56C57.2473 10.432 57.3593 10.272 57.466 10.08C57.5513 9.94133 57.6367 9.76 57.722 9.536C57.818 9.30133 57.8873 9.10933 57.93 8.96H58.17L57.754 12H50.01V11.52C50.0847 11.52 50.186 11.5147 50.314 11.504C50.4527 11.4827 50.5593 11.4667 50.634 11.456C50.698 11.4347 50.762 11.4133 50.826 11.392C50.89 11.3707 50.9487 11.344 51.002 11.312C51.0553 11.28 51.098 11.2427 51.13 11.2C51.1727 11.1467 51.2047 11.088 51.226 11.024C51.2473 10.9813 51.2633 10.9227 51.274 10.848C51.2847 10.7627 51.29 10.688 51.29 10.624V2.016C51.29 1.952 51.2847 1.88267 51.274 1.808C51.2633 1.72267 51.2473 1.65867 51.226 1.616C51.2047 1.552 51.1727 1.49867 51.13 1.456C51.098 1.40267 51.0553 1.36 51.002 1.328C50.9487 1.296 50.89 1.26933 50.826 1.248C50.762 1.216 50.698 1.19467 50.634 1.184C50.5593 1.16267 50.4527 1.14667 50.314 1.136C50.186 1.12533 50.0847 1.12 50.01 1.12V0.639999H53.498V1.12C53.4233 1.12 53.322 1.12533 53.194 1.136C53.066 1.14667 52.9593 1.16267 52.874 1.184C52.81 1.19467 52.746 1.216 52.682 1.248C52.618 1.26933 52.5593 1.296 52.506 1.328C52.4633 1.36 52.4207 1.40267 52.378 1.456C52.3353 1.49867 52.3033 1.552 52.282 1.616C52.2713 1.65867 52.2553 1.72267 52.234 1.808C52.2233 1.88267 52.218 1.952 52.218 2.016V10.64ZM63.0424 5.856C63.1277 5.856 63.2344 5.85067 63.3624 5.84C63.4904 5.81867 63.581 5.80267 63.6344 5.792C63.6877 5.77067 63.7517 5.744 63.8264 5.712C63.9117 5.66933 63.9757 5.61067 64.0184 5.536C64.0717 5.472 64.1144 5.38133 64.1464 5.264C64.189 5.136 64.2157 5.01867 64.2264 4.912C64.2477 4.82667 64.2637 4.69867 64.2744 4.528C64.285 4.35733 64.2904 4.21867 64.2904 4.112H64.6424V8.192H64.2904C64.2904 8.10667 64.285 7.968 64.2744 7.776C64.2637 7.584 64.2477 7.44 64.2264 7.344C64.2157 7.23733 64.189 7.11467 64.1464 6.976C64.1037 6.83733 64.0557 6.736 64.0024 6.672C63.9597 6.608 63.8904 6.54933 63.7944 6.496C63.6984 6.44267 63.6237 6.41067 63.5704 6.4C63.5064 6.37867 63.4104 6.36267 63.2824 6.352C63.165 6.34133 63.0637 6.336 62.9784 6.336H61.1544V10.656C61.1544 10.752 61.1757 10.864 61.2184 10.992C61.2717 11.1093 61.3357 11.1947 61.4104 11.248C61.4957 11.312 61.597 11.36 61.7144 11.392C61.8424 11.424 61.9597 11.4507 62.0664 11.472C62.1624 11.4827 62.2957 11.4933 62.4664 11.504C62.637 11.5147 62.7757 11.52 62.8824 11.52H63.2984C63.5224 11.52 63.7837 11.5093 64.0824 11.488C64.381 11.456 64.6264 11.4187 64.8184 11.376C64.9997 11.3227 65.165 11.2587 65.3144 11.184C65.4744 11.0987 65.613 11.0133 65.7304 10.928C65.869 10.8213 65.9917 10.704 66.0984 10.576C66.2157 10.448 66.3277 10.288 66.4344 10.096C66.5197 9.95733 66.5997 9.792 66.6744 9.6C66.7597 9.408 66.829 9.232 66.8824 9.072H67.1064L66.7224 12H58.9464V11.52C59.021 11.52 59.1224 11.5147 59.2504 11.504C59.389 11.4827 59.4957 11.4667 59.5704 11.456C59.6344 11.4347 59.6984 11.4133 59.7624 11.392C59.8264 11.3707 59.885 11.344 59.9384 11.312C59.9917 11.28 60.0344 11.2427 60.0664 11.2C60.109 11.1467 60.141 11.088 60.1624 11.024C60.1837 10.9813 60.1997 10.9227 60.2104 10.848C60.221 10.7627 60.2264 10.688 60.2264 10.624V2.016C60.2264 1.952 60.221 1.88267 60.2104 1.808C60.1997 1.72267 60.1837 1.65867 60.1624 1.616C60.141 1.552 60.109 1.49867 60.0664 1.456C60.0344 1.40267 59.9917 1.36 59.9384 1.328C59.885 1.296 59.8264 1.26933 59.7624 1.248C59.6984 1.216 59.6344 1.19467 59.5704 1.184C59.4957 1.16267 59.389 1.14667 59.2504 1.136C59.1224 1.12533 59.021 1.12 58.9464 1.12V0.639999H66.6584L66.9784 3.568H66.7064C66.6424 3.39733 66.5677 3.22133 66.4824 3.04C66.397 2.85867 66.3064 2.68267 66.2104 2.512C66.1357 2.384 66.0237 2.23467 65.8744 2.064C65.7357 1.89333 65.5864 1.75467 65.4264 1.648C65.2877 1.552 65.0957 1.46133 64.8504 1.376C64.6157 1.29067 64.4184 1.23733 64.2584 1.216C64.1197 1.19467 63.949 1.17333 63.7464 1.152C63.5544 1.13067 63.3624 1.12 63.1704 1.12H62.7224C62.5837 1.12 62.4077 1.13067 62.1944 1.152C61.9917 1.16267 61.853 1.17867 61.7784 1.2C61.6824 1.22133 61.5917 1.25867 61.5064 1.312C61.4317 1.35467 61.3677 1.40267 61.3144 1.456C61.2717 1.50933 61.2344 1.584 61.2024 1.68C61.1704 1.776 61.1544 1.86667 61.1544 1.952V5.856H63.0424ZM75.8306 10.704C75.9053 10.8 75.9906 10.9013 76.0866 11.008C76.1826 11.1147 76.268 11.1947 76.3426 11.248C76.428 11.312 76.54 11.3707 76.6786 11.424C76.8173 11.4667 76.9453 11.488 77.0626 11.488H77.4786V12H75.4306L72.1186 6.4H70.2626V10.624C70.2626 10.688 70.268 10.7627 70.2786 10.848C70.3 10.9227 70.316 10.9813 70.3266 11.024C70.348 11.088 70.38 11.1467 70.4226 11.2C70.4653 11.2427 70.508 11.28 70.5506 11.312C70.604 11.344 70.6626 11.3707 70.7266 11.392C70.7906 11.4133 70.8546 11.4347 70.9186 11.456C71.004 11.4667 71.1106 11.4827 71.2386 11.504C71.3666 11.5147 71.468 11.52 71.5426 11.52V12H68.0546V11.52C68.1293 11.52 68.2306 11.5147 68.3586 11.504C68.4973 11.4827 68.604 11.4667 68.6786 11.456C68.7426 11.4347 68.8066 11.4133 68.8706 11.392C68.9346 11.3707 68.9933 11.344 69.0466 11.312C69.1 11.28 69.1426 11.2427 69.1746 11.2C69.2173 11.1467 69.2493 11.088 69.2706 11.024C69.292 10.9813 69.308 10.9227 69.3186 10.848C69.3293 10.7627 69.3346 10.688 69.3346 10.624V2.016C69.3346 1.952 69.3293 1.88267 69.3186 1.808C69.308 1.72267 69.292 1.65867 69.2706 1.616C69.2493 1.552 69.2173 1.49867 69.1746 1.456C69.1426 1.40267 69.1 1.36 69.0466 1.328C68.9933 1.296 68.9346 1.26933 68.8706 1.248C68.8066 1.216 68.7426 1.19467 68.6786 1.184C68.604 1.16267 68.4973 1.14667 68.3586 1.136C68.2306 1.12533 68.1293 1.12 68.0546 1.12V0.639999H72.4226C72.5933 0.639999 72.8653 0.656 73.2386 0.688C73.612 0.709333 73.8946 0.746666 74.0866 0.799999C74.3 0.853333 74.5133 0.922666 74.7266 1.008C74.94 1.09333 75.116 1.184 75.2546 1.28C75.372 1.35467 75.5106 1.47733 75.6706 1.648C75.8306 1.81867 75.948 1.984 76.0226 2.144C76.108 2.304 76.1773 2.512 76.2306 2.768C76.284 3.024 76.3106 3.27467 76.3106 3.52C76.3106 3.76533 76.284 4.02667 76.2306 4.304C76.188 4.57067 76.124 4.784 76.0386 4.944C75.9533 5.12533 75.8413 5.29067 75.7026 5.44C75.564 5.58933 75.436 5.70667 75.3186 5.792C75.18 5.89867 75.02 5.98933 74.8386 6.064C74.6573 6.128 74.4546 6.18667 74.2306 6.24C74.092 6.272 73.916 6.29867 73.7026 6.32C73.5 6.34133 73.3026 6.36267 73.1106 6.384L75.8306 10.704ZM72.3106 5.92C72.5346 5.92 72.7746 5.90933 73.0306 5.888C73.2973 5.86667 73.516 5.83467 73.6866 5.792C73.836 5.76 73.996 5.70133 74.1666 5.616C74.3373 5.52 74.4653 5.43467 74.5506 5.36C74.636 5.27467 74.732 5.168 74.8386 5.04C74.956 4.90133 75.0413 4.77333 75.0946 4.656C75.148 4.53867 75.196 4.368 75.2386 4.144C75.292 3.92 75.3186 3.712 75.3186 3.52C75.3186 3.33867 75.292 3.14133 75.2386 2.928C75.1853 2.704 75.132 2.528 75.0786 2.4C75.0253 2.272 74.9346 2.13867 74.8066 2C74.6893 1.86133 74.5826 1.75467 74.4866 1.68C74.38 1.59467 74.2306 1.51467 74.0386 1.44C73.8466 1.35467 73.6706 1.29067 73.5106 1.248C73.308 1.19467 73.0786 1.16267 72.8226 1.152C72.5773 1.13067 72.3426 1.12 72.1186 1.12H71.5426C71.468 1.12 71.3666 1.12533 71.2386 1.136C71.1106 1.14667 71.004 1.16267 70.9186 1.184C70.8546 1.19467 70.7906 1.216 70.7266 1.248C70.6626 1.26933 70.604 1.296 70.5506 1.328C70.508 1.36 70.4653 1.40267 70.4226 1.456C70.38 1.49867 70.348 1.552 70.3266 1.616C70.316 1.65867 70.3 1.72267 70.2786 1.808C70.268 1.88267 70.2626 1.952 70.2626 2.016V5.92H72.3106ZM85.3281 10.624C85.3281 10.688 85.3335 10.7627 85.3441 10.848C85.3655 10.9227 85.3815 10.9813 85.3921 11.024C85.4135 11.088 85.4455 11.1467 85.4881 11.2C85.5308 11.2427 85.5735 11.28 85.6161 11.312C85.6695 11.344 85.7281 11.3707 85.7921 11.392C85.8561 11.4133 85.9201 11.4347 85.9841 11.456C86.0695 11.4667 86.1868 11.4827 86.3361 11.504C86.4855 11.5147 86.5975 11.52 86.6721 11.52V12H83.0561V11.52C83.1308 11.52 83.2428 11.5147 83.3921 11.504C83.5521 11.4827 83.6695 11.4667 83.7441 11.456C83.8081 11.4347 83.8721 11.4133 83.9361 11.392C84.0001 11.3707 84.0588 11.344 84.1121 11.312C84.1655 11.28 84.2081 11.2427 84.2401 11.2C84.2828 11.1467 84.3148 11.088 84.3361 11.024C84.3575 10.9813 84.3735 10.9227 84.3841 10.848C84.3948 10.7627 84.4001 10.688 84.4001 10.624V2.016C84.4001 1.952 84.3948 1.88267 84.3841 1.808C84.3735 1.72267 84.3575 1.65867 84.3361 1.616C84.3148 1.552 84.2828 1.49867 84.2401 1.456C84.2081 1.40267 84.1655 1.36 84.1121 1.328C84.0588 1.296 84.0001 1.26933 83.9361 1.248C83.8721 1.216 83.8081 1.19467 83.7441 1.184C83.6695 1.16267 83.5521 1.14667 83.3921 1.136C83.2428 1.12533 83.1308 1.12 83.0561 1.12V0.639999H86.6721V1.12C86.5975 1.12 86.4855 1.12533 86.3361 1.136C86.1868 1.14667 86.0695 1.16267 85.9841 1.184C85.9201 1.19467 85.8561 1.216 85.7921 1.248C85.7281 1.26933 85.6695 1.296 85.6161 1.328C85.5735 1.36 85.5308 1.40267 85.4881 1.456C85.4455 1.49867 85.4135 1.552 85.3921 1.616C85.3815 1.65867 85.3655 1.72267 85.3441 1.808C85.3335 1.88267 85.3281 1.952 85.3281 2.016V10.624ZM88.0669 12V11.52C88.1415 11.52 88.2429 11.5147 88.3709 11.504C88.5095 11.4827 88.6162 11.4667 88.6909 11.456C88.7549 11.4347 88.8189 11.4133 88.8829 11.392C88.9469 11.3707 89.0055 11.344 89.0589 11.312C89.1122 11.28 89.1549 11.2427 89.1869 11.2C89.2295 11.1467 89.2615 11.088 89.2829 11.024C89.3042 10.9813 89.3202 10.9227 89.3309 10.848C89.3415 10.7627 89.3469 10.688 89.3469 10.624V2.016C89.3469 1.952 89.3415 1.88267 89.3309 1.808C89.3202 1.72267 89.3042 1.65867 89.2829 1.616C89.2615 1.552 89.2295 1.49867 89.1869 1.456C89.1549 1.40267 89.1122 1.36 89.0589 1.328C89.0055 1.296 88.9469 1.26933 88.8829 1.248C88.8189 1.216 88.7549 1.19467 88.6909 1.184C88.6162 1.16267 88.5095 1.14667 88.3709 1.136C88.2429 1.12533 88.1415 1.12 88.0669 1.12V0.639999H92.0989C92.3442 0.639999 92.7122 0.682666 93.2029 0.768C93.7042 0.842666 94.1042 0.938666 94.4029 1.056C94.6695 1.16267 94.9362 1.296 95.2029 1.456C95.4695 1.616 95.6882 1.77067 95.8589 1.92C96.0722 2.112 96.2749 2.35733 96.4669 2.656C96.6589 2.95467 96.8189 3.27467 96.9469 3.616C97.0642 3.94667 97.1655 4.368 97.2509 4.88C97.3362 5.38133 97.3789 5.81333 97.3789 6.176C97.3789 6.50667 97.3362 6.95467 97.2509 7.52C97.1762 8.07467 97.0855 8.50133 96.9789 8.8C96.8402 9.20533 96.6909 9.55733 96.5309 9.856C96.3709 10.144 96.1842 10.3947 95.9709 10.608C95.8002 10.7787 95.5922 10.9547 95.3469 11.136C95.1122 11.3067 94.8829 11.4453 94.6589 11.552C94.4029 11.6693 94.0402 11.776 93.5709 11.872C93.1015 11.9573 92.7229 12 92.4349 12H88.0669ZM91.6829 1.12C91.5655 1.12 91.4429 1.12533 91.3149 1.136C91.1975 1.14667 91.1122 1.15733 91.0589 1.168C90.9629 1.17867 90.8722 1.2 90.7869 1.232C90.7015 1.264 90.6162 1.312 90.5309 1.376C90.4669 1.41867 90.4082 1.49333 90.3549 1.6C90.3015 1.70667 90.2749 1.824 90.2749 1.952V10.688C90.2749 10.784 90.2909 10.8907 90.3229 11.008C90.3655 11.1253 90.4295 11.216 90.5149 11.28C90.6002 11.344 90.6962 11.392 90.8029 11.424C90.9202 11.456 91.0215 11.4773 91.1069 11.488C91.2029 11.4987 91.3095 11.5093 91.4269 11.52C91.5549 11.52 91.6669 11.52 91.7629 11.52H92.1789C92.3602 11.52 92.6429 11.4933 93.0269 11.44C93.4215 11.376 93.7362 11.2907 93.9709 11.184C94.2055 11.0773 94.4402 10.944 94.6749 10.784C94.9095 10.6133 95.1015 10.4427 95.2509 10.272C95.4322 10.0587 95.5869 9.808 95.7149 9.52C95.8535 9.232 95.9709 8.91733 96.0669 8.576C96.1415 8.32 96.2109 7.94667 96.2749 7.456C96.3495 6.95467 96.3869 6.528 96.3869 6.176C96.3869 5.87733 96.3602 5.51467 96.3069 5.088C96.2535 4.66133 96.2002 4.36267 96.1469 4.192C96.0829 3.95733 96.0029 3.728 95.9069 3.504C95.8109 3.28 95.6935 3.06133 95.5549 2.848C95.4162 2.63467 95.2349 2.42667 95.0109 2.224C94.7975 2.01067 94.6002 1.84533 94.4189 1.728C94.2589 1.62133 94.0669 1.53067 93.8429 1.456C93.6295 1.37067 93.4375 1.30667 93.2669 1.264C93.0962 1.22133 92.8935 1.18933 92.6589 1.168C92.4242 1.136 92.2322 1.12 92.0829 1.12H91.6829ZM111.14 3.344L110.884 3.44C110.777 3.216 110.66 3.00267 110.532 2.8C110.404 2.58667 110.27 2.37867 110.132 2.176C110.036 2.02667 109.897 1.872 109.716 1.712C109.534 1.552 109.342 1.424 109.14 1.328C108.99 1.25333 108.777 1.17333 108.5 1.088C108.222 1.00267 107.929 0.959999 107.62 0.959999C107.353 0.959999 107.038 1.03467 106.676 1.184C106.313 1.33333 106.009 1.536 105.764 1.792C105.55 2.02667 105.348 2.31467 105.156 2.656C104.964 2.99733 104.825 3.29067 104.74 3.536C104.622 3.92 104.521 4.37333 104.436 4.896C104.361 5.408 104.324 5.86133 104.324 6.256C104.324 6.65067 104.361 7.11467 104.436 7.648C104.51 8.18133 104.628 8.61867 104.788 8.96C104.926 9.25867 105.097 9.55733 105.3 9.856C105.513 10.144 105.737 10.384 105.972 10.576C106.26 10.8107 106.596 10.992 106.98 11.12C107.364 11.2373 107.748 11.296 108.132 11.296C108.313 11.296 108.564 11.2533 108.884 11.168C109.204 11.0827 109.497 10.944 109.764 10.752C109.966 10.6027 110.142 10.4533 110.292 10.304C110.441 10.144 110.585 9.97333 110.724 9.792C110.841 9.64267 110.964 9.456 111.092 9.232C111.23 9.008 111.337 8.81067 111.412 8.64L111.652 8.752C111.577 8.98667 111.492 9.21067 111.396 9.424C111.31 9.63733 111.225 9.82933 111.14 10C111.044 10.1813 110.937 10.3573 110.82 10.528C110.702 10.6987 110.58 10.8587 110.452 11.008C110.292 11.1787 110.105 11.344 109.892 11.504C109.689 11.664 109.481 11.7973 109.268 11.904C109.065 12 108.804 12.0747 108.484 12.128C108.174 12.192 107.913 12.224 107.7 12.224C107.401 12.224 107.028 12.1493 106.58 12C106.132 11.84 105.785 11.6693 105.54 11.488C105.156 11.2107 104.809 10.8693 104.5 10.464C104.19 10.048 103.956 9.63733 103.796 9.232C103.668 8.90133 103.556 8.45867 103.46 7.904C103.374 7.33867 103.332 6.85333 103.332 6.448C103.332 5.98933 103.374 5.456 103.46 4.848C103.556 4.24 103.684 3.73867 103.844 3.344C103.993 2.97067 104.206 2.58133 104.484 2.176C104.761 1.76 105.081 1.41333 105.444 1.136C105.732 0.911999 106.089 0.735999 106.516 0.608C106.942 0.48 107.3 0.415999 107.588 0.415999C107.737 0.415999 107.94 0.442666 108.196 0.495999C108.462 0.549333 108.676 0.607999 108.836 0.672C108.985 0.736 109.145 0.794666 109.316 0.848C109.486 0.890666 109.604 0.912 109.668 0.912C109.764 0.912 109.886 0.879999 110.036 0.815999C110.196 0.751999 110.313 0.693333 110.388 0.639999L111.14 3.344ZM115.025 7.712L114.097 10.608C114.076 10.6933 114.055 10.784 114.033 10.88C114.012 10.976 114.001 11.056 114.001 11.12C114.001 11.184 114.028 11.2427 114.081 11.296C114.145 11.3493 114.209 11.3867 114.273 11.408C114.38 11.44 114.513 11.4667 114.673 11.488C114.833 11.5093 115.025 11.52 115.249 11.52V12H112.145V11.52C112.327 11.52 112.513 11.4987 112.705 11.456C112.908 11.4133 113.057 11.344 113.153 11.248C113.239 11.1733 113.324 11.072 113.409 10.944C113.495 10.8053 113.564 10.656 113.617 10.496L116.817 0.575999L117.393 0.415999L120.977 10.688C121.02 10.7627 121.063 10.848 121.105 10.944C121.159 11.0293 121.207 11.0987 121.249 11.152C121.303 11.216 121.356 11.2693 121.409 11.312C121.473 11.3547 121.543 11.392 121.617 11.424C121.703 11.456 121.793 11.4773 121.889 11.488C121.985 11.4987 122.097 11.5093 122.225 11.52V12H118.865V11.52C119.068 11.52 119.244 11.5147 119.393 11.504C119.543 11.4827 119.655 11.4613 119.729 11.44C119.815 11.4187 119.884 11.3813 119.937 11.328C119.991 11.2747 120.017 11.2107 120.017 11.136C120.017 11.0933 120.007 11.024 119.985 10.928C119.975 10.8213 119.953 10.7147 119.921 10.608L118.913 7.712H115.025ZM116.897 1.888L115.185 7.232H118.753L116.897 1.888ZM130.729 10.704C130.804 10.8 130.889 10.9013 130.985 11.008C131.081 11.1147 131.166 11.1947 131.241 11.248C131.326 11.312 131.438 11.3707 131.577 11.424C131.716 11.4667 131.844 11.488 131.961 11.488H132.377V12H130.329L127.017 6.4H125.161V10.624C125.161 10.688 125.166 10.7627 125.177 10.848C125.198 10.9227 125.214 10.9813 125.225 11.024C125.246 11.088 125.278 11.1467 125.321 11.2C125.364 11.2427 125.406 11.28 125.449 11.312C125.502 11.344 125.561 11.3707 125.625 11.392C125.689 11.4133 125.753 11.4347 125.817 11.456C125.902 11.4667 126.009 11.4827 126.137 11.504C126.265 11.5147 126.366 11.52 126.441 11.52V12H122.953V11.52C123.028 11.52 123.129 11.5147 123.257 11.504C123.396 11.4827 123.502 11.4667 123.577 11.456C123.641 11.4347 123.705 11.4133 123.769 11.392C123.833 11.3707 123.892 11.344 123.945 11.312C123.998 11.28 124.041 11.2427 124.073 11.2C124.116 11.1467 124.148 11.088 124.169 11.024C124.19 10.9813 124.206 10.9227 124.217 10.848C124.228 10.7627 124.233 10.688 124.233 10.624V2.016C124.233 1.952 124.228 1.88267 124.217 1.808C124.206 1.72267 124.19 1.65867 124.169 1.616C124.148 1.552 124.116 1.49867 124.073 1.456C124.041 1.40267 123.998 1.36 123.945 1.328C123.892 1.296 123.833 1.26933 123.769 1.248C123.705 1.216 123.641 1.19467 123.577 1.184C123.502 1.16267 123.396 1.14667 123.257 1.136C123.129 1.12533 123.028 1.12 122.953 1.12V0.639999H127.321C127.492 0.639999 127.764 0.656 128.137 0.688C128.51 0.709333 128.793 0.746666 128.985 0.799999C129.198 0.853333 129.412 0.922666 129.625 1.008C129.838 1.09333 130.014 1.184 130.153 1.28C130.27 1.35467 130.409 1.47733 130.569 1.648C130.729 1.81867 130.846 1.984 130.921 2.144C131.006 2.304 131.076 2.512 131.129 2.768C131.182 3.024 131.209 3.27467 131.209 3.52C131.209 3.76533 131.182 4.02667 131.129 4.304C131.086 4.57067 131.022 4.784 130.937 4.944C130.852 5.12533 130.74 5.29067 130.601 5.44C130.462 5.58933 130.334 5.70667 130.217 5.792C130.078 5.89867 129.918 5.98933 129.737 6.064C129.556 6.128 129.353 6.18667 129.129 6.24C128.99 6.272 128.814 6.29867 128.601 6.32C128.398 6.34133 128.201 6.36267 128.009 6.384L130.729 10.704ZM127.209 5.92C127.433 5.92 127.673 5.90933 127.929 5.888C128.196 5.86667 128.414 5.83467 128.585 5.792C128.734 5.76 128.894 5.70133 129.065 5.616C129.236 5.52 129.364 5.43467 129.449 5.36C129.534 5.27467 129.63 5.168 129.737 5.04C129.854 4.90133 129.94 4.77333 129.993 4.656C130.046 4.53867 130.094 4.368 130.137 4.144C130.19 3.92 130.217 3.712 130.217 3.52C130.217 3.33867 130.19 3.14133 130.137 2.928C130.084 2.704 130.03 2.528 129.977 2.4C129.924 2.272 129.833 2.13867 129.705 2C129.588 1.86133 129.481 1.75467 129.385 1.68C129.278 1.59467 129.129 1.51467 128.937 1.44C128.745 1.35467 128.569 1.29067 128.409 1.248C128.206 1.19467 127.977 1.16267 127.721 1.152C127.476 1.13067 127.241 1.12 127.017 1.12H126.441C126.366 1.12 126.265 1.12533 126.137 1.136C126.009 1.14667 125.902 1.16267 125.817 1.184C125.753 1.19467 125.689 1.216 125.625 1.248C125.561 1.26933 125.502 1.296 125.449 1.328C125.406 1.36 125.364 1.40267 125.321 1.456C125.278 1.49867 125.246 1.552 125.225 1.616C125.214 1.65867 125.198 1.72267 125.177 1.808C125.166 1.88267 125.161 1.952 125.161 2.016V5.92H127.209ZM133.046 12V11.52C133.12 11.52 133.222 11.5147 133.35 11.504C133.488 11.4827 133.595 11.4667 133.67 11.456C133.734 11.4347 133.798 11.4133 133.862 11.392C133.926 11.3707 133.984 11.344 134.038 11.312C134.091 11.28 134.134 11.2427 134.166 11.2C134.208 11.1467 134.24 11.088 134.262 11.024C134.283 10.9813 134.299 10.9227 134.31 10.848C134.32 10.7627 134.326 10.688 134.326 10.624V2.016C134.326 1.952 134.32 1.88267 134.31 1.808C134.299 1.72267 134.283 1.65867 134.262 1.616C134.24 1.552 134.208 1.49867 134.166 1.456C134.134 1.40267 134.091 1.36 134.038 1.328C133.984 1.296 133.926 1.26933 133.862 1.248C133.798 1.216 133.734 1.19467 133.67 1.184C133.595 1.16267 133.488 1.14667 133.35 1.136C133.222 1.12533 133.12 1.12 133.046 1.12V0.639999H137.078C137.323 0.639999 137.691 0.682666 138.182 0.768C138.683 0.842666 139.083 0.938666 139.382 1.056C139.648 1.16267 139.915 1.296 140.182 1.456C140.448 1.616 140.667 1.77067 140.838 1.92C141.051 2.112 141.254 2.35733 141.446 2.656C141.638 2.95467 141.798 3.27467 141.926 3.616C142.043 3.94667 142.144 4.368 142.23 4.88C142.315 5.38133 142.358 5.81333 142.358 6.176C142.358 6.50667 142.315 6.95467 142.23 7.52C142.155 8.07467 142.064 8.50133 141.958 8.8C141.819 9.20533 141.67 9.55733 141.51 9.856C141.35 10.144 141.163 10.3947 140.95 10.608C140.779 10.7787 140.571 10.9547 140.326 11.136C140.091 11.3067 139.862 11.4453 139.638 11.552C139.382 11.6693 139.019 11.776 138.55 11.872C138.08 11.9573 137.702 12 137.414 12H133.046ZM136.662 1.12C136.544 1.12 136.422 1.12533 136.294 1.136C136.176 1.14667 136.091 1.15733 136.038 1.168C135.942 1.17867 135.851 1.2 135.766 1.232C135.68 1.264 135.595 1.312 135.51 1.376C135.446 1.41867 135.387 1.49333 135.334 1.6C135.28 1.70667 135.254 1.824 135.254 1.952V10.688C135.254 10.784 135.27 10.8907 135.302 11.008C135.344 11.1253 135.408 11.216 135.494 11.28C135.579 11.344 135.675 11.392 135.782 11.424C135.899 11.456 136 11.4773 136.086 11.488C136.182 11.4987 136.288 11.5093 136.406 11.52C136.534 11.52 136.646 11.52 136.742 11.52H137.158C137.339 11.52 137.622 11.4933 138.006 11.44C138.4 11.376 138.715 11.2907 138.95 11.184C139.184 11.0773 139.419 10.944 139.654 10.784C139.888 10.6133 140.08 10.4427 140.23 10.272C140.411 10.0587 140.566 9.808 140.694 9.52C140.832 9.232 140.95 8.91733 141.046 8.576C141.12 8.32 141.19 7.94667 141.254 7.456C141.328 6.95467 141.366 6.528 141.366 6.176C141.366 5.87733 141.339 5.51467 141.286 5.088C141.232 4.66133 141.179 4.36267 141.126 4.192C141.062 3.95733 140.982 3.728 140.886 3.504C140.79 3.28 140.672 3.06133 140.534 2.848C140.395 2.63467 140.214 2.42667 139.99 2.224C139.776 2.01067 139.579 1.84533 139.398 1.728C139.238 1.62133 139.046 1.53067 138.822 1.456C138.608 1.37067 138.416 1.30667 138.246 1.264C138.075 1.22133 137.872 1.18933 137.638 1.168C137.403 1.136 137.211 1.12 137.062 1.12H136.662Z" fill="#55585B"/>
</svg>
