<svg width="20" height="24" viewBox="0 0 20 24" fill="none" xmlns="http://www.w3.org/2000/svg">
<path d="M8.33448 14.833C8.69235 15.3114 9.14894 15.7073 9.67327 15.9938C10.1976 16.2802 10.7774 16.4506 11.3734 16.4933C11.9693 16.5359 12.5675 16.45 13.1273 16.2411C13.6871 16.0323 14.1954 15.7055 14.6178 15.283L17.1178 12.783C17.8768 11.9971 18.2968 10.9446 18.2873 9.85214C18.2778 8.75965 17.8396 7.7146 17.0671 6.94207C16.2945 6.16953 15.2495 5.73133 14.157 5.72184C13.0645 5.71234 12.012 6.13232 11.2261 6.89131L9.79281 8.31631M11.6678 13.1663C11.3099 12.6879 10.8533 12.292 10.329 12.0055C9.80469 11.7191 9.22489 11.5487 8.62893 11.506C8.03298 11.4634 7.43482 11.5493 6.87502 11.7582C6.31522 11.967 5.80688 12.2938 5.38448 12.7163L2.88448 15.2163C2.12548 16.0022 1.70551 17.0547 1.715 18.1472C1.72449 19.2396 2.1627 20.2847 2.93523 21.0572C3.70777 21.8298 4.75282 22.268 5.8453 22.2775C6.93779 22.2869 7.9903 21.867 8.77614 21.108L10.2011 19.683" stroke="#292A2C" stroke-linecap="round" stroke-linejoin="round"/>
</svg>
