<svg width="16" height="17" viewBox="0 0 16 17" fill="none" xmlns="http://www.w3.org/2000/svg">
<path d="M6.6668 9.16697C6.9531 9.54972 7.31837 9.86642 7.73783 10.0956C8.1573 10.3248 8.62114 10.461 9.0979 10.4952C9.57466 10.5293 10.0532 10.4605 10.501 10.2935C10.9489 10.1264 11.3555 9.86501 11.6935 9.52697L13.6935 7.52697C14.3007 6.89829 14.6366 6.05629 14.629 5.1823C14.6215 4.30831 14.2709 3.47227 13.6529 2.85424C13.0348 2.23621 12.1988 1.88565 11.3248 1.87806C10.4508 1.87046 9.60881 2.20644 8.98013 2.81364L7.83347 3.95364M9.33347 7.83363C9.04716 7.45088 8.68189 7.13418 8.26243 6.90501C7.84297 6.67584 7.37913 6.53956 6.90237 6.50541C6.4256 6.47127 5.94708 6.54006 5.49924 6.70711C5.0514 6.87417 4.64472 7.13559 4.3068 7.47363L2.3068 9.47363C1.69961 10.1023 1.36363 10.9443 1.37122 11.8183C1.37881 12.6923 1.72938 13.5283 2.3474 14.1464C2.96543 14.7644 3.80147 15.115 4.67546 15.1225C5.54945 15.1301 6.39146 14.7942 7.02013 14.187L8.16013 13.047" stroke="white" stroke-linecap="round" stroke-linejoin="round"/>
</svg>
