<svg width="80" height="13" viewBox="0 0 80 13" fill="none" xmlns="http://www.w3.org/2000/svg">
<path d="M2.20406 10.64C2.20406 10.736 2.2254 10.848 2.26806 10.976C2.3214 11.0933 2.3854 11.1787 2.46006 11.232C2.5454 11.296 2.64673 11.344 2.76406 11.376C2.89206 11.408 3.0094 11.4347 3.11606 11.456C3.21206 11.4667 3.3454 11.4773 3.51606 11.488C3.68673 11.4987 3.8254 11.504 3.93206 11.504H4.34806C4.57206 11.504 4.82273 11.4933 5.10006 11.472C5.3774 11.44 5.6014 11.4027 5.77206 11.36C5.96406 11.3067 6.14006 11.2427 6.30006 11.168C6.47073 11.0827 6.61473 10.9973 6.73206 10.912C6.8814 10.7947 7.0094 10.6773 7.11606 10.56C7.2334 10.432 7.3454 10.272 7.45206 10.08C7.5374 9.94133 7.62273 9.76 7.70806 9.536C7.80406 9.30133 7.8734 9.10933 7.91606 8.96H8.15606L7.74006 12H-0.00393611V11.52C0.0707305 11.52 0.172064 11.5147 0.300064 11.504C0.438731 11.4827 0.545397 11.4667 0.620064 11.456C0.684064 11.4347 0.748064 11.4133 0.812064 11.392C0.876064 11.3707 0.934731 11.344 0.988064 11.312C1.0414 11.28 1.08406 11.2427 1.11606 11.2C1.15873 11.1467 1.19073 11.088 1.21206 11.024C1.2334 10.9813 1.2494 10.9227 1.26006 10.848C1.27073 10.7627 1.27606 10.688 1.27606 10.624V2.016C1.27606 1.952 1.27073 1.88267 1.26006 1.808C1.2494 1.72267 1.2334 1.65867 1.21206 1.616C1.19073 1.552 1.15873 1.49867 1.11606 1.456C1.08406 1.40267 1.0414 1.36 0.988064 1.328C0.934731 1.296 0.876064 1.26933 0.812064 1.248C0.748064 1.216 0.684064 1.19467 0.620064 1.184C0.545397 1.16267 0.438731 1.14667 0.300064 1.136C0.172064 1.12533 0.0707305 1.12 -0.00393611 1.12V0.639999H3.48406V1.12C3.4094 1.12 3.30806 1.12533 3.18006 1.136C3.05206 1.14667 2.9454 1.16267 2.86006 1.184C2.79606 1.19467 2.73206 1.216 2.66806 1.248C2.60406 1.26933 2.5454 1.296 2.49206 1.328C2.4494 1.36 2.40673 1.40267 2.36406 1.456C2.3214 1.49867 2.2894 1.552 2.26806 1.616C2.2574 1.65867 2.2414 1.72267 2.22006 1.808C2.2094 1.88267 2.20406 1.952 2.20406 2.016V10.64ZM8.93244 6.32C8.93244 5.968 8.96444 5.55733 9.02844 5.088C9.09244 4.61867 9.17244 4.224 9.26844 3.904C9.35377 3.616 9.47111 3.30667 9.62044 2.976C9.76977 2.64533 9.94044 2.35733 10.1324 2.112C10.2818 1.90933 10.4631 1.70667 10.6764 1.504C10.9004 1.30133 11.1458 1.12 11.4124 0.959999C11.6471 0.821333 11.9778 0.698666 12.4044 0.591999C12.8311 0.474666 13.2044 0.415999 13.5244 0.415999C13.8444 0.415999 14.2178 0.474666 14.6444 0.591999C15.0711 0.698666 15.4018 0.821333 15.6364 0.959999C15.9031 1.12 16.1431 1.30133 16.3564 1.504C16.5804 1.70667 16.7671 1.90933 16.9164 2.112C17.1084 2.35733 17.2791 2.64533 17.4284 2.976C17.5778 3.30667 17.6951 3.616 17.7804 3.904C17.8764 4.224 17.9564 4.61867 18.0204 5.088C18.0844 5.55733 18.1164 5.968 18.1164 6.32C18.1164 6.672 18.0844 7.08267 18.0204 7.552C17.9564 8.02133 17.8764 8.416 17.7804 8.736C17.6951 9.024 17.5778 9.33333 17.4284 9.664C17.2791 9.99467 17.1084 10.2827 16.9164 10.528C16.7671 10.7307 16.5804 10.9333 16.3564 11.136C16.1431 11.3387 15.9031 11.52 15.6364 11.68C15.4018 11.8187 15.0711 11.9413 14.6444 12.048C14.2178 12.1653 13.8444 12.224 13.5244 12.224C13.2044 12.224 12.8311 12.1653 12.4044 12.048C11.9778 11.9413 11.6471 11.8187 11.4124 11.68C11.1458 11.52 10.9004 11.3387 10.6764 11.136C10.4631 10.9333 10.2818 10.7307 10.1324 10.528C9.94044 10.2827 9.76977 9.99467 9.62044 9.664C9.47111 9.33333 9.35377 9.024 9.26844 8.736C9.17244 8.416 9.09244 8.02133 9.02844 7.552C8.96444 7.08267 8.93244 6.672 8.93244 6.32ZM9.97244 6.32C9.97244 6.55467 9.98844 6.88533 10.0204 7.312C10.0631 7.73867 10.1164 8.10667 10.1804 8.416C10.2338 8.672 10.3191 8.95467 10.4364 9.264C10.5644 9.57333 10.6871 9.824 10.8044 10.016C10.9218 10.208 11.0764 10.4107 11.2684 10.624C11.4604 10.8373 11.6578 11.0187 11.8604 11.168C12.0524 11.3067 12.3191 11.424 12.6604 11.52C13.0124 11.616 13.3004 11.664 13.5244 11.664C13.7484 11.664 14.0311 11.616 14.3724 11.52C14.7244 11.424 14.9964 11.3067 15.1884 11.168C15.4018 11.0187 15.5991 10.8373 15.7804 10.624C15.9724 10.4107 16.1271 10.208 16.2444 10.016C16.3618 9.824 16.4791 9.57333 16.5964 9.264C16.7244 8.95467 16.8151 8.672 16.8684 8.416C16.9324 8.10667 16.9804 7.73867 17.0124 7.312C17.0551 6.88533 17.0764 6.55467 17.0764 6.32C17.0764 6.08533 17.0551 5.75467 17.0124 5.328C16.9804 4.89067 16.9324 4.52267 16.8684 4.224C16.8151 3.968 16.7244 3.68533 16.5964 3.376C16.4791 3.06667 16.3618 2.816 16.2444 2.624C16.1271 2.432 15.9724 2.22933 15.7804 2.016C15.5991 1.80267 15.4018 1.62133 15.1884 1.472C14.9964 1.32267 14.7244 1.20533 14.3724 1.12C14.0311 1.024 13.7484 0.976 13.5244 0.976C13.3004 0.976 13.0124 1.024 12.6604 1.12C12.3191 1.20533 12.0524 1.32267 11.8604 1.472C11.6578 1.62133 11.4604 1.80267 11.2684 2.016C11.0764 2.22933 10.9218 2.432 10.8044 2.624C10.6871 2.816 10.5644 3.06667 10.4364 3.376C10.3191 3.68533 10.2338 3.968 10.1804 4.224C10.1164 4.52267 10.0631 4.89067 10.0204 5.328C9.98844 5.75467 9.97244 6.08533 9.97244 6.32ZM27.2252 3.344L26.9692 3.44C26.8625 3.216 26.7452 3.00267 26.6172 2.8C26.4892 2.58667 26.3559 2.37867 26.2172 2.176C26.1212 2.02667 25.9825 1.872 25.8012 1.712C25.6199 1.552 25.4279 1.424 25.2252 1.328C25.0759 1.25333 24.8625 1.17333 24.5852 1.088C24.3079 1.00267 24.0145 0.959999 23.7052 0.959999C23.4385 0.959999 23.1239 1.03467 22.7612 1.184C22.3985 1.33333 22.0945 1.536 21.8492 1.792C21.6359 2.02667 21.4332 2.31467 21.2412 2.656C21.0492 2.99733 20.9105 3.29067 20.8252 3.536C20.7079 3.92 20.6065 4.37333 20.5212 4.896C20.4465 5.408 20.4092 5.86133 20.4092 6.256C20.4092 6.65067 20.4465 7.11467 20.5212 7.648C20.5959 8.18133 20.7132 8.61867 20.8732 8.96C21.0119 9.25867 21.1825 9.55733 21.3852 9.856C21.5985 10.144 21.8225 10.384 22.0572 10.576C22.3452 10.8107 22.6812 10.992 23.0652 11.12C23.4492 11.2373 23.8332 11.296 24.2172 11.296C24.3985 11.296 24.6492 11.2533 24.9692 11.168C25.2892 11.0827 25.5825 10.944 25.8492 10.752C26.0519 10.6027 26.2279 10.4533 26.3772 10.304C26.5265 10.144 26.6705 9.97333 26.8092 9.792C26.9265 9.64267 27.0492 9.456 27.1772 9.232C27.3159 9.008 27.4225 8.81067 27.4972 8.64L27.7372 8.752C27.6625 8.98667 27.5772 9.21067 27.4812 9.424C27.3959 9.63733 27.3105 9.82933 27.2252 10C27.1292 10.1813 27.0225 10.3573 26.9052 10.528C26.7879 10.6987 26.6652 10.8587 26.5372 11.008C26.3772 11.1787 26.1905 11.344 25.9772 11.504C25.7745 11.664 25.5665 11.7973 25.3532 11.904C25.1505 12 24.8892 12.0747 24.5692 12.128C24.2599 12.192 23.9985 12.224 23.7852 12.224C23.4865 12.224 23.1132 12.1493 22.6652 12C22.2172 11.84 21.8705 11.6693 21.6252 11.488C21.2412 11.2107 20.8945 10.8693 20.5852 10.464C20.2759 10.048 20.0412 9.63733 19.8812 9.232C19.7532 8.90133 19.6412 8.45867 19.5452 7.904C19.4599 7.33867 19.4172 6.85333 19.4172 6.448C19.4172 5.98933 19.4599 5.456 19.5452 4.848C19.6412 4.24 19.7692 3.73867 19.9292 3.344C20.0785 2.97067 20.2919 2.58133 20.5692 2.176C20.8465 1.76 21.1665 1.41333 21.5292 1.136C21.8172 0.911999 22.1745 0.735999 22.6012 0.608C23.0279 0.48 23.3852 0.415999 23.6732 0.415999C23.8225 0.415999 24.0252 0.442666 24.2812 0.495999C24.5479 0.549333 24.7612 0.607999 24.9212 0.672C25.0705 0.736 25.2305 0.794666 25.4012 0.848C25.5719 0.890666 25.6892 0.912 25.7532 0.912C25.8492 0.912 25.9719 0.879999 26.1212 0.815999C26.2812 0.751999 26.3985 0.693333 26.4732 0.639999L27.2252 3.344ZM31.1107 7.712L30.1827 10.608C30.1614 10.6933 30.14 10.784 30.1187 10.88C30.0974 10.976 30.0867 11.056 30.0867 11.12C30.0867 11.184 30.1134 11.2427 30.1667 11.296C30.2307 11.3493 30.2947 11.3867 30.3587 11.408C30.4654 11.44 30.5987 11.4667 30.7587 11.488C30.9187 11.5093 31.1107 11.52 31.3347 11.52V12H28.2307V11.52C28.412 11.52 28.5987 11.4987 28.7907 11.456C28.9934 11.4133 29.1427 11.344 29.2387 11.248C29.324 11.1733 29.4094 11.072 29.4947 10.944C29.58 10.8053 29.6494 10.656 29.7027 10.496L32.9027 0.575999L33.4787 0.415999L37.0627 10.688C37.1054 10.7627 37.148 10.848 37.1907 10.944C37.244 11.0293 37.292 11.0987 37.3347 11.152C37.388 11.216 37.4414 11.2693 37.4947 11.312C37.5587 11.3547 37.628 11.392 37.7027 11.424C37.788 11.456 37.8787 11.4773 37.9747 11.488C38.0707 11.4987 38.1827 11.5093 38.3107 11.52V12H34.9507V11.52C35.1534 11.52 35.3294 11.5147 35.4787 11.504C35.628 11.4827 35.74 11.4613 35.8147 11.44C35.9 11.4187 35.9694 11.3813 36.0227 11.328C36.076 11.2747 36.1027 11.2107 36.1027 11.136C36.1027 11.0933 36.092 11.024 36.0707 10.928C36.06 10.8213 36.0387 10.7147 36.0067 10.608L34.9987 7.712H31.1107ZM32.9827 1.888L31.2707 7.232H34.8387L32.9827 1.888ZM47.5664 0.639999L48.0944 3.472H47.8064C47.7424 3.33333 47.6678 3.184 47.5824 3.024C47.5078 2.864 47.4278 2.71467 47.3424 2.576C47.2678 2.43733 47.1824 2.29867 47.0864 2.16C46.9904 2.02133 46.8784 1.888 46.7504 1.76C46.6438 1.65333 46.5211 1.55733 46.3824 1.472C46.2544 1.38667 46.1211 1.31733 45.9824 1.264C45.8758 1.22133 45.7318 1.18933 45.5504 1.168C45.3798 1.136 45.2358 1.12 45.1184 1.12H44.8784C44.8038 1.12 44.7131 1.12533 44.6064 1.136C44.5104 1.14667 44.4304 1.16267 44.3664 1.184C44.2918 1.20533 44.2118 1.24267 44.1264 1.296C44.0518 1.33867 43.9878 1.38667 43.9344 1.44C43.8918 1.49333 43.8544 1.568 43.8224 1.664C43.7904 1.76 43.7744 1.85067 43.7744 1.936V10.624C43.7744 10.688 43.7798 10.7627 43.7904 10.848C43.8118 10.9227 43.8278 10.9813 43.8384 11.024C43.8598 11.088 43.8918 11.1467 43.9344 11.2C43.9771 11.2427 44.0198 11.28 44.0624 11.312C44.1158 11.344 44.1744 11.3707 44.2384 11.392C44.3131 11.4133 44.3824 11.4347 44.4464 11.456C44.5318 11.4667 44.6598 11.4827 44.8304 11.504C45.0118 11.5147 45.1398 11.52 45.2144 11.52V12H41.4064V11.52C41.4811 11.52 41.6091 11.5147 41.7904 11.504C41.9718 11.4827 42.0998 11.4667 42.1744 11.456C42.2384 11.4347 42.3024 11.4133 42.3664 11.392C42.4411 11.3707 42.5051 11.344 42.5584 11.312C42.6118 11.28 42.6544 11.2427 42.6864 11.2C42.7291 11.1467 42.7611 11.088 42.7824 11.024C42.8038 10.9813 42.8198 10.9227 42.8304 10.848C42.8411 10.7627 42.8464 10.688 42.8464 10.624V1.936C42.8464 1.85067 42.8304 1.76 42.7984 1.664C42.7771 1.568 42.7398 1.49333 42.6864 1.44C42.6438 1.38667 42.5798 1.33867 42.4944 1.296C42.4198 1.24267 42.3398 1.20533 42.2544 1.184C42.1904 1.16267 42.1051 1.14667 41.9984 1.136C41.9024 1.12533 41.8171 1.12 41.7424 1.12H41.5024C41.3851 1.12 41.2358 1.136 41.0544 1.168C40.8838 1.18933 40.7451 1.22133 40.6384 1.264C40.4998 1.31733 40.3611 1.38667 40.2224 1.472C40.0944 1.55733 39.9771 1.65333 39.8704 1.76C39.7424 1.888 39.6304 2.02133 39.5344 2.16C39.4491 2.29867 39.3638 2.43733 39.2784 2.576C39.2038 2.71467 39.1238 2.864 39.0384 3.024C38.9531 3.184 38.8784 3.33333 38.8144 3.472H38.5264L39.0544 0.639999H47.5664ZM51.2506 10.624C51.2506 10.688 51.2559 10.7627 51.2666 10.848C51.2879 10.9227 51.3039 10.9813 51.3146 11.024C51.3359 11.088 51.3679 11.1467 51.4106 11.2C51.4532 11.2427 51.4959 11.28 51.5386 11.312C51.5919 11.344 51.6506 11.3707 51.7146 11.392C51.7786 11.4133 51.8426 11.4347 51.9066 11.456C51.9919 11.4667 52.1092 11.4827 52.2586 11.504C52.4079 11.5147 52.5199 11.52 52.5946 11.52V12H48.9786V11.52C49.0532 11.52 49.1652 11.5147 49.3146 11.504C49.4746 11.4827 49.5919 11.4667 49.6666 11.456C49.7306 11.4347 49.7946 11.4133 49.8586 11.392C49.9226 11.3707 49.9812 11.344 50.0346 11.312C50.0879 11.28 50.1306 11.2427 50.1626 11.2C50.2052 11.1467 50.2372 11.088 50.2586 11.024C50.2799 10.9813 50.2959 10.9227 50.3066 10.848C50.3172 10.7627 50.3226 10.688 50.3226 10.624V2.016C50.3226 1.952 50.3172 1.88267 50.3066 1.808C50.2959 1.72267 50.2799 1.65867 50.2586 1.616C50.2372 1.552 50.2052 1.49867 50.1626 1.456C50.1306 1.40267 50.0879 1.36 50.0346 1.328C49.9812 1.296 49.9226 1.26933 49.8586 1.248C49.7946 1.216 49.7306 1.19467 49.6666 1.184C49.5919 1.16267 49.4746 1.14667 49.3146 1.136C49.1652 1.12533 49.0532 1.12 48.9786 1.12V0.639999H52.5946V1.12C52.5199 1.12 52.4079 1.12533 52.2586 1.136C52.1092 1.14667 51.9919 1.16267 51.9066 1.184C51.8426 1.19467 51.7786 1.216 51.7146 1.248C51.6506 1.26933 51.5919 1.296 51.5386 1.328C51.4959 1.36 51.4532 1.40267 51.4106 1.456C51.3679 1.49867 51.3359 1.552 51.3146 1.616C51.3039 1.65867 51.2879 1.72267 51.2666 1.808C51.2559 1.88267 51.2506 1.952 51.2506 2.016V10.624ZM53.9893 6.32C53.9893 5.968 54.0213 5.55733 54.0853 5.088C54.1493 4.61867 54.2293 4.224 54.3253 3.904C54.4106 3.616 54.528 3.30667 54.6773 2.976C54.8266 2.64533 54.9973 2.35733 55.1893 2.112C55.3386 1.90933 55.52 1.70667 55.7333 1.504C55.9573 1.30133 56.2026 1.12 56.4693 0.959999C56.704 0.821333 57.0346 0.698666 57.4613 0.591999C57.888 0.474666 58.2613 0.415999 58.5813 0.415999C58.9013 0.415999 59.2746 0.474666 59.7013 0.591999C60.128 0.698666 60.4586 0.821333 60.6933 0.959999C60.96 1.12 61.2 1.30133 61.4133 1.504C61.6373 1.70667 61.824 1.90933 61.9733 2.112C62.1653 2.35733 62.336 2.64533 62.4853 2.976C62.6346 3.30667 62.752 3.616 62.8373 3.904C62.9333 4.224 63.0133 4.61867 63.0773 5.088C63.1413 5.55733 63.1733 5.968 63.1733 6.32C63.1733 6.672 63.1413 7.08267 63.0773 7.552C63.0133 8.02133 62.9333 8.416 62.8373 8.736C62.752 9.024 62.6346 9.33333 62.4853 9.664C62.336 9.99467 62.1653 10.2827 61.9733 10.528C61.824 10.7307 61.6373 10.9333 61.4133 11.136C61.2 11.3387 60.96 11.52 60.6933 11.68C60.4586 11.8187 60.128 11.9413 59.7013 12.048C59.2746 12.1653 58.9013 12.224 58.5813 12.224C58.2613 12.224 57.888 12.1653 57.4613 12.048C57.0346 11.9413 56.704 11.8187 56.4693 11.68C56.2026 11.52 55.9573 11.3387 55.7333 11.136C55.52 10.9333 55.3386 10.7307 55.1893 10.528C54.9973 10.2827 54.8266 9.99467 54.6773 9.664C54.528 9.33333 54.4106 9.024 54.3253 8.736C54.2293 8.416 54.1493 8.02133 54.0853 7.552C54.0213 7.08267 53.9893 6.672 53.9893 6.32ZM55.0293 6.32C55.0293 6.55467 55.0453 6.88533 55.0773 7.312C55.12 7.73867 55.1733 8.10667 55.2373 8.416C55.2906 8.672 55.376 8.95467 55.4933 9.264C55.6213 9.57333 55.744 9.824 55.8613 10.016C55.9786 10.208 56.1333 10.4107 56.3253 10.624C56.5173 10.8373 56.7146 11.0187 56.9173 11.168C57.1093 11.3067 57.376 11.424 57.7173 11.52C58.0693 11.616 58.3573 11.664 58.5813 11.664C58.8053 11.664 59.088 11.616 59.4293 11.52C59.7813 11.424 60.0533 11.3067 60.2453 11.168C60.4586 11.0187 60.656 10.8373 60.8373 10.624C61.0293 10.4107 61.184 10.208 61.3013 10.016C61.4186 9.824 61.536 9.57333 61.6533 9.264C61.7813 8.95467 61.872 8.672 61.9253 8.416C61.9893 8.10667 62.0373 7.73867 62.0693 7.312C62.112 6.88533 62.1333 6.55467 62.1333 6.32C62.1333 6.08533 62.112 5.75467 62.0693 5.328C62.0373 4.89067 61.9893 4.52267 61.9253 4.224C61.872 3.968 61.7813 3.68533 61.6533 3.376C61.536 3.06667 61.4186 2.816 61.3013 2.624C61.184 2.432 61.0293 2.22933 60.8373 2.016C60.656 1.80267 60.4586 1.62133 60.2453 1.472C60.0533 1.32267 59.7813 1.20533 59.4293 1.12C59.088 1.024 58.8053 0.976 58.5813 0.976C58.3573 0.976 58.0693 1.024 57.7173 1.12C57.376 1.20533 57.1093 1.32267 56.9173 1.472C56.7146 1.62133 56.5173 1.80267 56.3253 2.016C56.1333 2.22933 55.9786 2.432 55.8613 2.624C55.744 2.816 55.6213 3.06667 55.4933 3.376C55.376 3.68533 55.2906 3.968 55.2373 4.224C55.1733 4.52267 55.12 4.89067 55.0773 5.328C55.0453 5.75467 55.0293 6.08533 55.0293 6.32ZM72.8581 2.016C72.8581 1.952 72.8527 1.88267 72.8421 1.808C72.8314 1.72267 72.8154 1.65867 72.7941 1.616C72.7727 1.552 72.7407 1.49867 72.6981 1.456C72.6661 1.40267 72.6234 1.36 72.5701 1.328C72.5274 1.296 72.4741 1.26933 72.4101 1.248C72.3461 1.216 72.2821 1.19467 72.2181 1.184C72.1434 1.16267 72.0367 1.14667 71.8981 1.136C71.7594 1.12533 71.6527 1.12 71.5781 1.12V0.639999H74.6501V1.12C74.5754 1.12 74.4687 1.12533 74.3301 1.136C74.2021 1.14667 74.0954 1.16267 74.0101 1.184C73.9461 1.19467 73.8821 1.216 73.8181 1.248C73.7647 1.26933 73.7114 1.296 73.6581 1.328C73.6154 1.36 73.5727 1.40267 73.5301 1.456C73.4874 1.49867 73.4554 1.552 73.4341 1.616C73.4234 1.65867 73.4074 1.72267 73.3861 1.808C73.3754 1.88267 73.3701 1.952 73.3701 2.016V12H72.8101L66.2021 1.648V10.624C66.2021 10.688 66.2074 10.7627 66.2181 10.848C66.2394 10.9227 66.2554 10.9813 66.2661 11.024C66.2874 11.088 66.3194 11.1467 66.3621 11.2C66.4047 11.2427 66.4474 11.28 66.4901 11.312C66.5434 11.344 66.5967 11.3707 66.6501 11.392C66.7141 11.4133 66.7781 11.4347 66.8421 11.456C66.9274 11.4667 67.0341 11.4827 67.1621 11.504C67.3007 11.5147 67.4074 11.52 67.4821 11.52V12H64.4101V11.52C64.4847 11.52 64.5914 11.5147 64.7301 11.504C64.8687 11.4827 64.9754 11.4667 65.0501 11.456C65.1141 11.4347 65.1781 11.4133 65.2421 11.392C65.3061 11.3707 65.3594 11.344 65.4021 11.312C65.4554 11.28 65.4981 11.2427 65.5301 11.2C65.5727 11.1467 65.6047 11.088 65.6261 11.024C65.6474 10.9813 65.6634 10.9227 65.6741 10.848C65.6847 10.7627 65.6901 10.688 65.6901 10.624V2.016C65.6901 1.952 65.6847 1.88267 65.6741 1.808C65.6634 1.72267 65.6474 1.65867 65.6261 1.616C65.6047 1.552 65.5727 1.49867 65.5301 1.456C65.4981 1.40267 65.4554 1.36 65.4021 1.328C65.3594 1.296 65.3061 1.26933 65.2421 1.248C65.1781 1.216 65.1141 1.19467 65.0501 1.184C64.9754 1.16267 64.8687 1.14667 64.7301 1.136C64.5914 1.12533 64.4847 1.12 64.4101 1.12V0.639999H66.5541L72.8581 10.16V2.016ZM77.5417 9.472C77.5417 9.216 77.627 8.99733 77.7977 8.816C77.979 8.63467 78.1924 8.544 78.4377 8.544C78.7044 8.544 78.9177 8.63467 79.0777 8.816C79.2484 8.99733 79.3337 9.216 79.3337 9.472C79.3337 9.728 79.2484 9.94667 79.0777 10.128C78.9177 10.3093 78.7044 10.4 78.4377 10.4C78.1924 10.4 77.979 10.3093 77.7977 10.128C77.627 9.94667 77.5417 9.728 77.5417 9.472ZM77.5417 3.632C77.5417 3.376 77.627 3.15733 77.7977 2.976C77.979 2.79467 78.1924 2.704 78.4377 2.704C78.7044 2.704 78.9177 2.79467 79.0777 2.976C79.2484 3.15733 79.3337 3.376 79.3337 3.632C79.3337 3.888 79.2484 4.10667 79.0777 4.288C78.9177 4.46933 78.7044 4.56 78.4377 4.56C78.1924 4.56 77.979 4.46933 77.7977 4.288C77.627 4.10667 77.5417 3.888 77.5417 3.632Z" fill="#55585B"/>
</svg>
