<svg width="150" height="20" viewBox="0 0 150 20" fill="none" xmlns="http://www.w3.org/2000/svg">
<path d="M11.5213 8.84H9.12125L9.10625 7.715H11.5213V4.94H12.8413V18.05H11.5213V13.16H9.10625L9.12125 12.05H11.5213V8.84ZM3.01625 13.85C2.46625 12.99 2.19125 11.875 2.19125 10.505C2.19125 9.135 2.46625 8.02 3.01625 7.16C3.56625 6.3 4.38125 5.87 5.46125 5.87C6.54125 5.87 7.35125 6.3 7.89125 7.16C8.44125 8.02 8.71625 9.14 8.71625 10.52C8.71625 11.89 8.44125 13.005 7.89125 13.865C7.35125 14.715 6.54125 15.14 5.46125 15.14C4.38125 15.14 3.56625 14.71 3.01625 13.85ZM7.44125 10.52C7.44125 9.47 7.26625 8.625 6.91625 7.985C6.57625 7.335 6.09125 7.01 5.46125 7.01C4.83125 7.01 4.34625 7.33 4.00625 7.97C3.67625 8.61 3.51125 9.46 3.51125 10.52C3.51125 11.56 3.67625 12.4 4.00625 13.04C4.34625 13.68 4.83125 14 5.46125 14C6.09125 14 6.57625 13.68 6.91625 13.04C7.26625 12.4 7.44125 11.56 7.44125 10.52ZM25.0398 14.09C25.8298 14.49 26.2248 15.045 26.2248 15.755C26.2248 16.465 25.8298 17.02 25.0398 17.42C24.2598 17.83 23.1748 18.035 21.7848 18.035C20.3948 18.035 19.3048 17.83 18.5148 17.42C17.7248 17.02 17.3298 16.465 17.3298 15.755C17.3298 15.045 17.7248 14.49 18.5148 14.09C19.3048 13.69 20.3948 13.49 21.7848 13.49C23.1748 13.49 24.2598 13.69 25.0398 14.09ZM26.0748 13.535H24.7998V9.74H23.3598V13.07H22.0998V5.18H23.3598V8.645H24.7998V4.94H26.0748V13.535ZM21.1548 11.03C21.1548 11.67 20.9048 12.18 20.4048 12.56C19.9148 12.93 19.2248 13.115 18.3348 13.115C17.4448 13.115 16.7498 12.93 16.2498 12.56C15.7498 12.18 15.4998 11.67 15.4998 11.03C15.4998 10.38 15.7498 9.865 16.2498 9.485C16.7498 9.105 17.4448 8.915 18.3348 8.915C19.2248 8.915 19.9148 9.105 20.4048 9.485C20.9048 9.865 21.1548 10.38 21.1548 11.03ZM21.7848 14.525C20.8248 14.525 20.0648 14.635 19.5048 14.855C18.9548 15.075 18.6798 15.375 18.6798 15.755C18.6798 16.135 18.9548 16.44 19.5048 16.67C20.0648 16.89 20.8248 17 21.7848 17C22.7348 17 23.4848 16.89 24.0348 16.67C24.5948 16.44 24.8748 16.135 24.8748 15.755C24.8748 15.375 24.5948 15.075 24.0348 14.855C23.4848 14.635 22.7348 14.525 21.7848 14.525ZM21.6648 8.435H14.9298V7.37H21.6648V8.435ZM19.4598 11.75C19.7398 11.57 19.8798 11.33 19.8798 11.03C19.8798 10.73 19.7398 10.49 19.4598 10.31C19.1898 10.13 18.8148 10.04 18.3348 10.04C17.8548 10.04 17.4748 10.13 17.1948 10.31C16.9148 10.49 16.7748 10.73 16.7748 11.03C16.7748 11.33 16.9148 11.57 17.1948 11.75C17.4748 11.93 17.8548 12.02 18.3348 12.02C18.8148 12.02 19.1898 11.93 19.4598 11.75ZM19.9548 6.575H16.5198V5.51H19.9548V6.575ZM38.0333 4.94V10.31H40.1333V11.42H38.0333V18.05H36.7133V4.94H38.0333ZM34.5833 6.335C34.5433 8.375 34.0183 10.165 33.0083 11.705C31.9983 13.245 30.5733 14.515 28.7333 15.515L27.9233 14.51C29.4433 13.78 30.6633 12.78 31.5833 11.51C32.5133 10.24 33.0383 8.89 33.1583 7.46H28.4933V6.335H34.5833ZM49.9122 8.465L49.4622 13.595C50.0922 13.565 50.6222 13.51 51.0522 13.43L51.1722 14.495C50.0822 14.635 49.0622 14.725 48.1122 14.765C46.8522 14.855 45.7122 14.9 44.6922 14.9L44.4822 13.775C45.1022 13.775 45.5822 13.77 45.9222 13.76L45.5172 8.51L46.8222 8.33L47.1072 13.73L48.0372 13.685C48.1572 13.685 48.2522 13.68 48.3222 13.67L48.6372 8.345L49.9122 8.465ZM53.3322 17.405H52.0572V11.09H50.3772V10.01H52.0572V5.24H53.3322V17.405ZM55.7472 18.05H54.4722V4.94H55.7472V18.05ZM50.7822 7.61H44.7972V6.53H50.7822V7.61ZM68.3957 18.05H67.0607V4.94H68.3957V18.05ZM58.0457 10.55C58.0457 9.18 58.3307 8.07 58.9007 7.22C59.4707 6.36 60.3107 5.93 61.4207 5.93C62.5307 5.93 63.3657 6.36 63.9257 7.22C64.4957 8.07 64.7807 9.185 64.7807 10.565C64.7807 11.945 64.4957 13.065 63.9257 13.925C63.3657 14.775 62.5307 15.2 61.4207 15.2C60.3107 15.2 59.4707 14.77 58.9007 13.91C58.3307 13.05 58.0457 11.93 58.0457 10.55ZM62.9357 13.1C63.2857 12.46 63.4607 11.615 63.4607 10.565C63.4607 9.515 63.2857 8.67 62.9357 8.03C62.5857 7.39 62.0807 7.07 61.4207 7.07C60.7707 7.07 60.2707 7.39 59.9207 8.03C59.5707 8.67 59.3957 9.515 59.3957 10.565C59.3957 11.615 59.5707 12.46 59.9207 13.1C60.2707 13.73 60.7707 14.045 61.4207 14.045C62.0807 14.045 62.5857 13.73 62.9357 13.1ZM78.5543 13.94L77.7743 14.93C77.1043 14.54 76.4493 13.98 75.8093 13.25C75.1693 12.51 74.7493 11.79 74.5493 11.09C74.3593 11.86 73.9593 12.63 73.3493 13.4C72.7393 14.16 72.0443 14.77 71.2643 15.23L70.4243 14.27C71.4543 13.66 72.2843 12.84 72.9143 11.81C73.5443 10.77 73.8593 9.63 73.8593 8.39V7.34H70.8893V6.26H78.1643V7.34H75.2243V8.39C75.2243 9.61 75.5343 10.71 76.1543 11.69C76.7743 12.66 77.5743 13.41 78.5543 13.94ZM79.9643 4.94H81.2993V18.05H79.9643V4.94ZM95.2228 16.385H83.3878V15.305H88.6078V13.235H84.8128V9.02H92.4328V7.1H84.7828V6.02H93.7528V10.1H86.1328V12.155H94.1128V13.235H89.9428V15.305H95.2228V16.385ZM110.972 18.05H109.637V4.94H110.972V18.05ZM100.622 10.55C100.622 9.18 100.907 8.07 101.477 7.22C102.047 6.36 102.887 5.93 103.997 5.93C105.107 5.93 105.942 6.36 106.502 7.22C107.072 8.07 107.357 9.185 107.357 10.565C107.357 11.945 107.072 13.065 106.502 13.925C105.942 14.775 105.107 15.2 103.997 15.2C102.887 15.2 102.047 14.77 101.477 13.91C100.907 13.05 100.622 11.93 100.622 10.55ZM105.512 13.1C105.862 12.46 106.037 11.615 106.037 10.565C106.037 9.515 105.862 8.67 105.512 8.03C105.162 7.39 104.657 7.07 103.997 7.07C103.347 7.07 102.847 7.39 102.497 8.03C102.147 8.67 101.972 9.515 101.972 10.565C101.972 11.615 102.147 12.46 102.497 13.1C102.847 13.73 103.347 14.045 103.997 14.045C104.657 14.045 105.162 13.73 105.512 13.1ZM123.455 9.89H119.63V11.45H124.895V12.53H113.06V11.45H118.295V9.89H114.485V5.465H123.365V6.545H115.805V8.81H123.455V9.89ZM122.315 14C123.105 14.4 123.5 14.97 123.5 15.71C123.5 16.45 123.105 17.025 122.315 17.435C121.525 17.845 120.41 18.05 118.97 18.05C117.54 18.05 116.43 17.845 115.64 17.435C114.85 17.025 114.455 16.45 114.455 15.71C114.455 14.99 114.85 14.425 115.64 14.015C116.44 13.595 117.55 13.385 118.97 13.385C120.41 13.385 121.525 13.59 122.315 14ZM118.97 14.465C118 14.465 117.23 14.58 116.66 14.81C116.1 15.03 115.82 15.335 115.82 15.725C115.82 16.125 116.1 16.435 116.66 16.655C117.22 16.875 117.99 16.985 118.97 16.985C119.96 16.985 120.735 16.875 121.295 16.655C121.865 16.435 122.15 16.125 122.15 15.725C122.15 15.325 121.865 15.015 121.295 14.795C120.735 14.575 119.96 14.465 118.97 14.465Z" fill="#005CF9"/>
<path d="M144.069 4.99145C144.752 4.28561 145.881 4.27648 146.576 4.97118C147.252 5.64684 147.264 6.73836 146.604 7.42941L144.636 9.4905C144.482 9.65205 144.405 9.73282 144.357 9.82743C144.315 9.91118 144.29 10.0024 144.284 10.0959C144.276 10.2016 144.301 10.3104 144.352 10.528L145.575 15.8317C145.627 16.0551 145.653 16.1669 145.644 16.2749C145.637 16.3706 145.61 16.4637 145.566 16.5487C145.516 16.6448 145.435 16.7258 145.273 16.888L145.01 17.1506C144.581 17.5799 144.366 17.7946 144.146 17.8335C143.954 17.8674 143.757 17.8208 143.601 17.7047C143.421 17.5716 143.325 17.2836 143.133 16.7076L141.71 12.4368L139.34 14.8065C139.199 14.9479 139.128 15.0186 139.081 15.1019C139.039 15.1757 139.01 15.2564 138.997 15.3402C138.982 15.4348 138.993 15.5342 139.015 15.733L139.145 16.9041C139.167 17.103 139.178 17.2024 139.163 17.2969C139.15 17.3807 139.122 17.4615 139.08 17.5352C139.032 17.6185 138.962 17.6892 138.82 17.8307L138.68 17.9706C138.345 18.3057 138.178 18.4732 137.992 18.5217C137.828 18.5643 137.655 18.5472 137.503 18.4734C137.33 18.3893 137.199 18.1922 136.936 17.7979L135.825 16.1315C135.778 16.0611 135.755 16.0259 135.727 15.9939C135.703 15.9655 135.677 15.9391 135.648 15.9149C135.616 15.8876 135.581 15.8642 135.511 15.8172L133.844 14.7063C133.45 14.4434 133.253 14.312 133.169 14.1389C133.095 13.9872 133.078 13.814 133.121 13.6507C133.169 13.4645 133.337 13.297 133.672 12.9619L133.812 12.822C133.953 12.6806 134.024 12.6098 134.107 12.5625C134.181 12.5206 134.262 12.4923 134.345 12.479C134.44 12.4639 134.539 12.4749 134.738 12.497L135.909 12.6271C136.108 12.6492 136.208 12.6603 136.302 12.6452C136.386 12.6318 136.467 12.6035 136.54 12.5616C136.624 12.5143 136.694 12.4436 136.836 12.3021L139.205 9.93251L134.935 8.50893C134.359 8.31692 134.071 8.22091 133.938 8.04177C133.821 7.88534 133.775 7.68798 133.809 7.49612C133.848 7.2764 134.062 7.06172 134.492 6.63237L134.754 6.36974C134.916 6.20761 134.998 6.12654 135.094 6.07633C135.179 6.03188 135.272 6.00517 135.367 5.9978C135.475 5.98948 135.587 6.01526 135.811 6.06682L141.094 7.2861C141.314 7.33677 141.423 7.3621 141.529 7.35456C141.632 7.34728 141.731 7.31787 141.821 7.26834C141.914 7.21705 141.993 7.13611 142.149 6.97423L144.069 4.99145Z" stroke="#005CF9" stroke-linecap="round" stroke-linejoin="round"/>
</svg>
