<svg width="85" height="13" viewBox="0 0 85 13" fill="none" xmlns="http://www.w3.org/2000/svg">
<path d="M8.4675 2.016C8.4675 1.952 8.46217 1.88267 8.4515 1.808C8.44084 1.72267 8.42484 1.65867 8.4035 1.616C8.38217 1.552 8.35017 1.49867 8.3075 1.456C8.2755 1.40267 8.23283 1.36 8.1795 1.328C8.13683 1.296 8.0835 1.26933 8.0195 1.248C7.9555 1.216 7.8915 1.19467 7.8275 1.184C7.75283 1.16267 7.64617 1.14667 7.5075 1.136C7.36884 1.12533 7.26217 1.12 7.1875 1.12V0.639999H10.2595V1.12C10.1848 1.12 10.0782 1.12533 9.9395 1.136C9.8115 1.14667 9.70483 1.16267 9.6195 1.184C9.5555 1.19467 9.4915 1.216 9.4275 1.248C9.37417 1.26933 9.32084 1.296 9.2675 1.328C9.22484 1.36 9.18217 1.40267 9.1395 1.456C9.09683 1.49867 9.06483 1.552 9.0435 1.616C9.03284 1.65867 9.01684 1.72267 8.9955 1.808C8.98483 1.88267 8.9795 1.952 8.9795 2.016V12H8.4195L1.8115 1.648V10.624C1.8115 10.688 1.81683 10.7627 1.8275 10.848C1.84883 10.9227 1.86483 10.9813 1.8755 11.024C1.89683 11.088 1.92883 11.1467 1.9715 11.2C2.01417 11.2427 2.05683 11.28 2.0995 11.312C2.15283 11.344 2.20617 11.3707 2.2595 11.392C2.3235 11.4133 2.3875 11.4347 2.4515 11.456C2.53683 11.4667 2.6435 11.4827 2.7715 11.504C2.91017 11.5147 3.01683 11.52 3.0915 11.52V12H0.0195014V11.52C0.094168 11.52 0.200835 11.5147 0.339501 11.504C0.478168 11.4827 0.584835 11.4667 0.659501 11.456C0.723501 11.4347 0.787501 11.4133 0.851501 11.392C0.915501 11.3707 0.968835 11.344 1.0115 11.312C1.06483 11.28 1.1075 11.2427 1.1395 11.2C1.18217 11.1467 1.21417 11.088 1.2355 11.024C1.25683 10.9813 1.27283 10.9227 1.2835 10.848C1.29417 10.7627 1.2995 10.688 1.2995 10.624V2.016C1.2995 1.952 1.29417 1.88267 1.2835 1.808C1.27283 1.72267 1.25683 1.65867 1.2355 1.616C1.21417 1.552 1.18217 1.49867 1.1395 1.456C1.1075 1.40267 1.06483 1.36 1.0115 1.328C0.968835 1.296 0.915501 1.26933 0.851501 1.248C0.787501 1.216 0.723501 1.19467 0.659501 1.184C0.584835 1.16267 0.478168 1.14667 0.339501 1.136C0.200835 1.12533 0.094168 1.12 0.0195014 1.12V0.639999H2.1635L8.4675 10.16V2.016ZM13.9191 10.624C13.9191 10.688 13.9245 10.7627 13.9351 10.848C13.9565 10.9227 13.9725 10.9813 13.9831 11.024C14.0045 11.088 14.0365 11.1467 14.0791 11.2C14.1218 11.2427 14.1645 11.28 14.2071 11.312C14.2605 11.344 14.3191 11.3707 14.3831 11.392C14.4471 11.4133 14.5111 11.4347 14.5751 11.456C14.6605 11.4667 14.7778 11.4827 14.9271 11.504C15.0765 11.5147 15.1885 11.52 15.2631 11.52V12H11.6471V11.52C11.7218 11.52 11.8338 11.5147 11.9831 11.504C12.1431 11.4827 12.2605 11.4667 12.3351 11.456C12.3991 11.4347 12.4631 11.4133 12.5271 11.392C12.5911 11.3707 12.6498 11.344 12.7031 11.312C12.7565 11.28 12.7991 11.2427 12.8311 11.2C12.8738 11.1467 12.9058 11.088 12.9271 11.024C12.9485 10.9813 12.9645 10.9227 12.9751 10.848C12.9858 10.7627 12.9911 10.688 12.9911 10.624V2.016C12.9911 1.952 12.9858 1.88267 12.9751 1.808C12.9645 1.72267 12.9485 1.65867 12.9271 1.616C12.9058 1.552 12.8738 1.49867 12.8311 1.456C12.7991 1.40267 12.7565 1.36 12.7031 1.328C12.6498 1.296 12.5911 1.26933 12.5271 1.248C12.4631 1.216 12.3991 1.19467 12.3351 1.184C12.2605 1.16267 12.1431 1.14667 11.9831 1.136C11.8338 1.12533 11.7218 1.12 11.6471 1.12V0.639999H15.2631V1.12C15.1885 1.12 15.0765 1.12533 14.9271 1.136C14.7778 1.14667 14.6605 1.16267 14.5751 1.184C14.5111 1.19467 14.4471 1.216 14.3831 1.248C14.3191 1.26933 14.2605 1.296 14.2071 1.328C14.1645 1.36 14.1218 1.40267 14.0791 1.456C14.0365 1.49867 14.0045 1.552 13.9831 1.616C13.9725 1.65867 13.9565 1.72267 13.9351 1.808C13.9245 1.88267 13.9191 1.952 13.9191 2.016V10.624ZM24.5299 3.344L24.2739 3.44C24.1672 3.216 24.0499 3.00267 23.9219 2.8C23.7939 2.58667 23.6605 2.37867 23.5219 2.176C23.4259 2.02667 23.2872 1.872 23.1059 1.712C22.9245 1.552 22.7325 1.424 22.5299 1.328C22.3805 1.25333 22.1672 1.17333 21.8899 1.088C21.6125 1.00267 21.3192 0.959999 21.0099 0.959999C20.7432 0.959999 20.4285 1.03467 20.0659 1.184C19.7032 1.33333 19.3992 1.536 19.1539 1.792C18.9405 2.02667 18.7379 2.31467 18.5459 2.656C18.3539 2.99733 18.2152 3.29067 18.1299 3.536C18.0125 3.92 17.9112 4.37333 17.8259 4.896C17.7512 5.408 17.7139 5.86133 17.7139 6.256C17.7139 6.65067 17.7512 7.11467 17.8259 7.648C17.9005 8.18133 18.0179 8.61867 18.1779 8.96C18.3165 9.25867 18.4872 9.55733 18.6899 9.856C18.9032 10.144 19.1272 10.384 19.3619 10.576C19.6499 10.8107 19.9859 10.992 20.3699 11.12C20.7539 11.2373 21.1379 11.296 21.5219 11.296C21.7032 11.296 21.9539 11.2533 22.2739 11.168C22.5939 11.0827 22.8872 10.944 23.1539 10.752C23.3565 10.6027 23.5325 10.4533 23.6819 10.304C23.8312 10.144 23.9752 9.97333 24.1139 9.792C24.2312 9.64267 24.3539 9.456 24.4819 9.232C24.6205 9.008 24.7272 8.81067 24.8019 8.64L25.0419 8.752C24.9672 8.98667 24.8819 9.21067 24.7859 9.424C24.7005 9.63733 24.6152 9.82933 24.5299 10C24.4339 10.1813 24.3272 10.3573 24.2099 10.528C24.0925 10.6987 23.9699 10.8587 23.8419 11.008C23.6819 11.1787 23.4952 11.344 23.2819 11.504C23.0792 11.664 22.8712 11.7973 22.6579 11.904C22.4552 12 22.1939 12.0747 21.8739 12.128C21.5645 12.192 21.3032 12.224 21.0899 12.224C20.7912 12.224 20.4179 12.1493 19.9699 12C19.5219 11.84 19.1752 11.6693 18.9299 11.488C18.5459 11.2107 18.1992 10.8693 17.8899 10.464C17.5805 10.048 17.3459 9.63733 17.1859 9.232C17.0579 8.90133 16.9459 8.45867 16.8499 7.904C16.7645 7.33867 16.7219 6.85333 16.7219 6.448C16.7219 5.98933 16.7645 5.456 16.8499 4.848C16.9459 4.24 17.0739 3.73867 17.2339 3.344C17.3832 2.97067 17.5965 2.58133 17.8739 2.176C18.1512 1.76 18.4712 1.41333 18.8339 1.136C19.1219 0.911999 19.4792 0.735999 19.9059 0.608C20.3325 0.48 20.6899 0.415999 20.9779 0.415999C21.1272 0.415999 21.3299 0.442666 21.5859 0.495999C21.8525 0.549333 22.0659 0.607999 22.2259 0.672C22.3752 0.736 22.5352 0.794666 22.7059 0.848C22.8765 0.890666 22.9939 0.912 23.0579 0.912C23.1539 0.912 23.2765 0.879999 23.4259 0.815999C23.5859 0.751999 23.7032 0.693333 23.7779 0.639999L24.5299 3.344ZM32.8474 1.856C32.922 1.77067 32.9754 1.69067 33.0074 1.616C33.0394 1.53067 33.0554 1.46667 33.0554 1.424C33.0554 1.392 33.0394 1.35467 33.0074 1.312C32.986 1.25867 32.9487 1.216 32.8954 1.184C32.8314 1.16267 32.7407 1.14667 32.6234 1.136C32.5167 1.12533 32.378 1.12 32.2074 1.12V0.639999H35.3754V1.12C35.2047 1.12 35.002 1.152 34.7674 1.216C34.5434 1.26933 34.3674 1.328 34.2394 1.392C34.09 1.46667 33.9407 1.56267 33.7914 1.68C33.6527 1.78667 33.5194 1.89867 33.3914 2.016L30.5594 5.008L34.2554 10.64C34.3087 10.7253 34.4047 10.8373 34.5434 10.976C34.682 11.104 34.8154 11.2 34.9434 11.264C35.082 11.3387 35.2314 11.3973 35.3914 11.44C35.5514 11.472 35.7007 11.4933 35.8394 11.504V12H32.3674V11.52C32.602 11.52 32.7834 11.5147 32.9114 11.504C33.05 11.4827 33.1514 11.4667 33.2154 11.456C33.2687 11.4347 33.3167 11.408 33.3594 11.376C33.402 11.3333 33.4234 11.2907 33.4234 11.248C33.4234 11.2053 33.4127 11.152 33.3914 11.088C33.37 11.0133 33.3327 10.9387 33.2794 10.864L29.9674 5.648L28.2554 7.456V10.624C28.2554 10.688 28.2607 10.7627 28.2714 10.848C28.2927 10.9227 28.3087 10.9813 28.3194 11.024C28.3407 11.088 28.3727 11.1467 28.4154 11.2C28.458 11.2427 28.5007 11.28 28.5434 11.312C28.5967 11.344 28.6554 11.3707 28.7194 11.392C28.7834 11.4133 28.8474 11.4347 28.9114 11.456C28.9967 11.4667 29.1034 11.4827 29.2314 11.504C29.3594 11.5147 29.4607 11.52 29.5354 11.52V12H26.0474V11.52C26.122 11.52 26.2234 11.5147 26.3514 11.504C26.49 11.4827 26.5967 11.4667 26.6714 11.456C26.7354 11.4347 26.7994 11.4133 26.8634 11.392C26.9274 11.3707 26.986 11.344 27.0394 11.312C27.0927 11.28 27.1354 11.2427 27.1674 11.2C27.21 11.1467 27.242 11.088 27.2634 11.024C27.2847 10.9813 27.3007 10.9227 27.3114 10.848C27.322 10.7627 27.3274 10.688 27.3274 10.624V2.016C27.3274 1.952 27.322 1.88267 27.3114 1.808C27.3007 1.72267 27.2847 1.65867 27.2634 1.616C27.242 1.552 27.21 1.49867 27.1674 1.456C27.1354 1.40267 27.0927 1.36 27.0394 1.328C26.986 1.296 26.9274 1.26933 26.8634 1.248C26.7994 1.216 26.7354 1.19467 26.6714 1.184C26.5967 1.16267 26.49 1.14667 26.3514 1.136C26.2234 1.12533 26.122 1.12 26.0474 1.12V0.639999H29.5354V1.12C29.4607 1.12 29.3594 1.12533 29.2314 1.136C29.1034 1.14667 28.9967 1.16267 28.9114 1.184C28.8474 1.19467 28.7834 1.216 28.7194 1.248C28.6554 1.26933 28.5967 1.296 28.5434 1.328C28.5007 1.36 28.458 1.40267 28.4154 1.456C28.3727 1.49867 28.3407 1.552 28.3194 1.616C28.3087 1.65867 28.2927 1.72267 28.2714 1.808C28.2607 1.88267 28.2554 1.952 28.2554 2.016V6.8L32.8474 1.856ZM45.0411 2.016C45.0411 1.952 45.0358 1.88267 45.0251 1.808C45.0145 1.72267 44.9985 1.65867 44.9771 1.616C44.9558 1.552 44.9238 1.49867 44.8811 1.456C44.8491 1.40267 44.8065 1.36 44.7531 1.328C44.7105 1.296 44.6571 1.26933 44.5931 1.248C44.5291 1.216 44.4651 1.19467 44.4011 1.184C44.3265 1.16267 44.2198 1.14667 44.0811 1.136C43.9425 1.12533 43.8358 1.12 43.7611 1.12V0.639999H46.8331V1.12C46.7585 1.12 46.6518 1.12533 46.5131 1.136C46.3851 1.14667 46.2785 1.16267 46.1931 1.184C46.1291 1.19467 46.0651 1.216 46.0011 1.248C45.9478 1.26933 45.8945 1.296 45.8411 1.328C45.7985 1.36 45.7558 1.40267 45.7131 1.456C45.6705 1.49867 45.6385 1.552 45.6171 1.616C45.6065 1.65867 45.5905 1.72267 45.5691 1.808C45.5585 1.88267 45.5531 1.952 45.5531 2.016V12H44.9931L38.3851 1.648V10.624C38.3851 10.688 38.3905 10.7627 38.4011 10.848C38.4225 10.9227 38.4385 10.9813 38.4491 11.024C38.4705 11.088 38.5025 11.1467 38.5451 11.2C38.5878 11.2427 38.6305 11.28 38.6731 11.312C38.7265 11.344 38.7798 11.3707 38.8331 11.392C38.8971 11.4133 38.9611 11.4347 39.0251 11.456C39.1105 11.4667 39.2171 11.4827 39.3451 11.504C39.4838 11.5147 39.5905 11.52 39.6651 11.52V12H36.5931V11.52C36.6678 11.52 36.7745 11.5147 36.9131 11.504C37.0518 11.4827 37.1585 11.4667 37.2331 11.456C37.2971 11.4347 37.3611 11.4133 37.4251 11.392C37.4891 11.3707 37.5425 11.344 37.5851 11.312C37.6385 11.28 37.6811 11.2427 37.7131 11.2C37.7558 11.1467 37.7878 11.088 37.8091 11.024C37.8305 10.9813 37.8465 10.9227 37.8571 10.848C37.8678 10.7627 37.8731 10.688 37.8731 10.624V2.016C37.8731 1.952 37.8678 1.88267 37.8571 1.808C37.8465 1.72267 37.8305 1.65867 37.8091 1.616C37.7878 1.552 37.7558 1.49867 37.7131 1.456C37.6811 1.40267 37.6385 1.36 37.5851 1.328C37.5425 1.296 37.4891 1.26933 37.4251 1.248C37.3611 1.216 37.2971 1.19467 37.2331 1.184C37.1585 1.16267 37.0518 1.14667 36.9131 1.136C36.7745 1.12533 36.6678 1.12 36.5931 1.12V0.639999H38.7371L45.0411 10.16V2.016ZM50.4287 7.712L49.5007 10.608C49.4794 10.6933 49.4581 10.784 49.4367 10.88C49.4154 10.976 49.4047 11.056 49.4047 11.12C49.4047 11.184 49.4314 11.2427 49.4847 11.296C49.5487 11.3493 49.6127 11.3867 49.6767 11.408C49.7834 11.44 49.9167 11.4667 50.0767 11.488C50.2367 11.5093 50.4287 11.52 50.6527 11.52V12H47.5487V11.52C47.7301 11.52 47.9167 11.4987 48.1087 11.456C48.3114 11.4133 48.4607 11.344 48.5567 11.248C48.6421 11.1733 48.7274 11.072 48.8127 10.944C48.8981 10.8053 48.9674 10.656 49.0207 10.496L52.2207 0.575999L52.7968 0.415999L56.3807 10.688C56.4234 10.7627 56.4661 10.848 56.5087 10.944C56.5621 11.0293 56.6101 11.0987 56.6528 11.152C56.7061 11.216 56.7594 11.2693 56.8127 11.312C56.8768 11.3547 56.9461 11.392 57.0208 11.424C57.1061 11.456 57.1968 11.4773 57.2928 11.488C57.3888 11.4987 57.5008 11.5093 57.6287 11.52V12H54.2688V11.52C54.4714 11.52 54.6474 11.5147 54.7968 11.504C54.9461 11.4827 55.0581 11.4613 55.1328 11.44C55.2181 11.4187 55.2874 11.3813 55.3408 11.328C55.3941 11.2747 55.4207 11.2107 55.4207 11.136C55.4207 11.0933 55.4101 11.024 55.3888 10.928C55.3781 10.8213 55.3567 10.7147 55.3247 10.608L54.3168 7.712H50.4287ZM52.3007 1.888L50.5887 7.232H54.1568L52.3007 1.888ZM64.4045 12H64.0365L60.1485 1.232V10.624C60.1485 10.688 60.1538 10.7627 60.1645 10.848C60.1858 10.9227 60.2018 10.9813 60.2125 11.024C60.2338 11.088 60.2658 11.1467 60.3085 11.2C60.3512 11.2427 60.3938 11.28 60.4365 11.312C60.4898 11.344 60.5432 11.3707 60.5965 11.392C60.6605 11.4133 60.7245 11.4347 60.7885 11.456C60.8738 11.4667 60.9805 11.4827 61.1085 11.504C61.2472 11.5147 61.3538 11.52 61.4285 11.52V12H58.3565V11.52C58.4312 11.52 58.5378 11.5147 58.6765 11.504C58.8152 11.4827 58.9218 11.4667 58.9965 11.456C59.0605 11.4347 59.1245 11.4133 59.1885 11.392C59.2525 11.3707 59.3058 11.344 59.3485 11.312C59.4018 11.28 59.4445 11.2427 59.4765 11.2C59.5192 11.1467 59.5512 11.088 59.5725 11.024C59.5938 10.9813 59.6098 10.9227 59.6205 10.848C59.6312 10.7627 59.6365 10.688 59.6365 10.624V2.016C59.6365 1.952 59.6312 1.88267 59.6205 1.808C59.6098 1.72267 59.5938 1.65867 59.5725 1.616C59.5512 1.552 59.5192 1.49867 59.4765 1.456C59.4445 1.40267 59.4018 1.36 59.3485 1.328C59.3058 1.296 59.2525 1.26933 59.1885 1.248C59.1245 1.216 59.0605 1.19467 58.9965 1.184C58.9218 1.16267 58.8152 1.14667 58.6765 1.136C58.5378 1.12533 58.4312 1.12 58.3565 1.12V0.639999H61.0125L64.5005 10.432L68.1325 0.639999H70.5165V1.12C70.4418 1.12 70.3352 1.12533 70.1965 1.136C70.0685 1.14667 69.9618 1.16267 69.8765 1.184C69.8125 1.19467 69.7485 1.216 69.6845 1.248C69.6312 1.26933 69.5778 1.296 69.5245 1.328C69.4818 1.36 69.4392 1.40267 69.3965 1.456C69.3538 1.49867 69.3218 1.552 69.3005 1.616C69.2898 1.65867 69.2738 1.72267 69.2525 1.808C69.2418 1.88267 69.2365 1.952 69.2365 2.016V10.624C69.2365 10.688 69.2418 10.7627 69.2525 10.848C69.2738 10.9227 69.2898 10.9813 69.3005 11.024C69.3218 11.088 69.3538 11.1467 69.3965 11.2C69.4392 11.2427 69.4818 11.28 69.5245 11.312C69.5778 11.344 69.6312 11.3707 69.6845 11.392C69.7485 11.4133 69.8125 11.4347 69.8765 11.456C69.9618 11.4667 70.0685 11.4827 70.1965 11.504C70.3352 11.5147 70.4418 11.52 70.5165 11.52V12H67.0285V11.52C67.1032 11.52 67.2098 11.5147 67.3485 11.504C67.4872 11.4827 67.5938 11.4667 67.6685 11.456C67.7325 11.4347 67.7965 11.4133 67.8605 11.392C67.9245 11.3707 67.9778 11.344 68.0205 11.312C68.0738 11.28 68.1165 11.2427 68.1485 11.2C68.1912 11.1467 68.2232 11.088 68.2445 11.024C68.2658 10.9813 68.2818 10.9227 68.2925 10.848C68.3032 10.7627 68.3085 10.688 68.3085 10.624V1.616L64.4045 12ZM75.842 5.856C75.9273 5.856 76.034 5.85067 76.162 5.84C76.29 5.81867 76.3807 5.80267 76.434 5.792C76.4873 5.77067 76.5513 5.744 76.626 5.712C76.7113 5.66933 76.7753 5.61067 76.818 5.536C76.8713 5.472 76.914 5.38133 76.946 5.264C76.9887 5.136 77.0153 5.01867 77.026 4.912C77.0473 4.82667 77.0633 4.69867 77.074 4.528C77.0847 4.35733 77.09 4.21867 77.09 4.112H77.442V8.192H77.09C77.09 8.10667 77.0847 7.968 77.074 7.776C77.0633 7.584 77.0473 7.44 77.026 7.344C77.0153 7.23733 76.9887 7.11467 76.946 6.976C76.9033 6.83733 76.8553 6.736 76.802 6.672C76.7593 6.608 76.69 6.54933 76.594 6.496C76.498 6.44267 76.4233 6.41067 76.37 6.4C76.306 6.37867 76.21 6.36267 76.082 6.352C75.9647 6.34133 75.8633 6.336 75.778 6.336H73.954V10.656C73.954 10.752 73.9753 10.864 74.018 10.992C74.0713 11.1093 74.1353 11.1947 74.21 11.248C74.2953 11.312 74.3967 11.36 74.514 11.392C74.642 11.424 74.7593 11.4507 74.866 11.472C74.962 11.4827 75.0953 11.4933 75.266 11.504C75.4367 11.5147 75.5753 11.52 75.682 11.52H76.098C76.322 11.52 76.5833 11.5093 76.882 11.488C77.1807 11.456 77.426 11.4187 77.618 11.376C77.7993 11.3227 77.9647 11.2587 78.114 11.184C78.274 11.0987 78.4127 11.0133 78.53 10.928C78.6687 10.8213 78.7913 10.704 78.898 10.576C79.0153 10.448 79.1273 10.288 79.234 10.096C79.3193 9.95733 79.3993 9.792 79.474 9.6C79.5593 9.408 79.6287 9.232 79.682 9.072H79.906L79.522 12H71.746V11.52C71.8207 11.52 71.922 11.5147 72.05 11.504C72.1887 11.4827 72.2953 11.4667 72.37 11.456C72.434 11.4347 72.498 11.4133 72.562 11.392C72.626 11.3707 72.6847 11.344 72.738 11.312C72.7913 11.28 72.834 11.2427 72.866 11.2C72.9087 11.1467 72.9407 11.088 72.962 11.024C72.9833 10.9813 72.9993 10.9227 73.01 10.848C73.0207 10.7627 73.026 10.688 73.026 10.624V2.016C73.026 1.952 73.0207 1.88267 73.01 1.808C72.9993 1.72267 72.9833 1.65867 72.962 1.616C72.9407 1.552 72.9087 1.49867 72.866 1.456C72.834 1.40267 72.7913 1.36 72.738 1.328C72.6847 1.296 72.626 1.26933 72.562 1.248C72.498 1.216 72.434 1.19467 72.37 1.184C72.2953 1.16267 72.1887 1.14667 72.05 1.136C71.922 1.12533 71.8207 1.12 71.746 1.12V0.639999H79.458L79.778 3.568H79.506C79.442 3.39733 79.3673 3.22133 79.282 3.04C79.1967 2.85867 79.106 2.68267 79.01 2.512C78.9353 2.384 78.8233 2.23467 78.674 2.064C78.5353 1.89333 78.386 1.75467 78.226 1.648C78.0873 1.552 77.8953 1.46133 77.65 1.376C77.4153 1.29067 77.218 1.23733 77.058 1.216C76.9193 1.19467 76.7487 1.17333 76.546 1.152C76.354 1.13067 76.162 1.12 75.97 1.12H75.522C75.3833 1.12 75.2073 1.13067 74.994 1.152C74.7913 1.16267 74.6527 1.17867 74.578 1.2C74.482 1.22133 74.3913 1.25867 74.306 1.312C74.2313 1.35467 74.1673 1.40267 74.114 1.456C74.0713 1.50933 74.034 1.584 74.002 1.68C73.97 1.776 73.954 1.86667 73.954 1.952V5.856H75.842ZM82.5182 9.472C82.5182 9.216 82.6036 8.99733 82.7742 8.816C82.9556 8.63467 83.1689 8.544 83.4142 8.544C83.6809 8.544 83.8942 8.63467 84.0542 8.816C84.2249 8.99733 84.3102 9.216 84.3102 9.472C84.3102 9.728 84.2249 9.94667 84.0542 10.128C83.8942 10.3093 83.6809 10.4 83.4142 10.4C83.1689 10.4 82.9556 10.3093 82.7742 10.128C82.6036 9.94667 82.5182 9.728 82.5182 9.472ZM82.5182 3.632C82.5182 3.376 82.6036 3.15733 82.7742 2.976C82.9556 2.79467 83.1689 2.704 83.4142 2.704C83.6809 2.704 83.8942 2.79467 84.0542 2.976C84.2249 3.15733 84.3102 3.376 84.3102 3.632C84.3102 3.888 84.2249 4.10667 84.0542 4.288C83.8942 4.46933 83.6809 4.56 83.4142 4.56C83.1689 4.56 82.9556 4.46933 82.7742 4.288C82.6036 4.10667 82.5182 3.888 82.5182 3.632Z" fill="#55585B"/>
</svg>
