<svg width="16" height="15" viewBox="0 0 16 15" fill="none" xmlns="http://www.w3.org/2000/svg">
<path d="M7.33325 2.16617H4.53325C3.41315 2.16617 2.85309 2.16617 2.42527 2.38415C2.04895 2.5759 1.74299 2.88186 1.55124 3.25819C1.33325 3.68601 1.33325 4.24606 1.33325 5.36617V10.9662C1.33325 12.0863 1.33325 12.6463 1.55124 13.0741C1.74299 13.4505 2.04895 13.7564 2.42527 13.9482C2.85309 14.1662 3.41315 14.1662 4.53325 14.1662H10.1333C11.2534 14.1662 11.8134 14.1662 12.2412 13.9482C12.6176 13.7564 12.9235 13.4505 13.1153 13.0741C13.3333 12.6463 13.3333 12.0863 13.3333 10.9662V8.16617M5.33323 10.1662H6.4496C6.77572 10.1662 6.93878 10.1662 7.09223 10.1293C7.22828 10.0967 7.35834 10.0428 7.47763 9.96969C7.61219 9.88723 7.72749 9.77193 7.95809 9.54133L14.3333 3.16617C14.8855 2.61388 14.8855 1.71845 14.3333 1.16617C13.781 0.613882 12.8855 0.613882 12.3333 1.16617L5.95808 7.54133C5.72747 7.77193 5.61217 7.88723 5.52971 8.02179C5.45661 8.14108 5.40274 8.27114 5.37007 8.40719C5.33323 8.56064 5.33323 8.7237 5.33323 9.04982V10.1662Z" stroke="#B4B7B9" stroke-linecap="round" stroke-linejoin="round"/>
</svg>
