<svg width="33" height="13" viewBox="0 0 33 13" fill="none" xmlns="http://www.w3.org/2000/svg">
<path d="M7.74269 3.728L7.50269 3.824C7.36402 3.57867 7.22535 3.33333 7.08669 3.088C6.95869 2.84267 6.81469 2.60267 6.65469 2.368C6.51602 2.15467 6.35069 1.96267 6.15869 1.792C5.97735 1.61067 5.81202 1.472 5.66269 1.376C5.42802 1.22667 5.17202 1.10933 4.89469 1.024C4.61735 0.938666 4.34535 0.896 4.07869 0.896C3.84402 0.896 3.59869 0.938666 3.34269 1.024C3.09735 1.09867 2.88402 1.21067 2.70269 1.36C2.57469 1.46667 2.45202 1.6 2.33469 1.76C2.22802 1.92 2.14269 2.07467 2.07869 2.224C2.01469 2.384 1.96669 2.56 1.93469 2.752C1.91335 2.93333 1.90269 3.08267 1.90269 3.2C1.90269 3.41333 1.94002 3.62667 2.01469 3.84C2.10002 4.04267 2.19602 4.21867 2.30269 4.368C2.42002 4.528 2.59069 4.68267 2.81469 4.832C3.04935 4.97067 3.26802 5.08267 3.47069 5.168C3.71602 5.27467 3.96669 5.38133 4.22269 5.488C4.48935 5.584 4.72402 5.66933 4.92669 5.744C5.15069 5.81867 5.39602 5.90933 5.66269 6.016C5.92935 6.112 6.16402 6.21867 6.36669 6.336C6.61202 6.47467 6.83069 6.61867 7.02269 6.768C7.22535 6.90667 7.39602 7.08267 7.53469 7.296C7.68402 7.50933 7.80136 7.78133 7.88669 8.112C7.98269 8.44267 8.03069 8.75733 8.03069 9.056C8.03069 9.25867 7.98269 9.53067 7.88669 9.872C7.80136 10.2027 7.68402 10.48 7.53469 10.704C7.39602 10.9067 7.21469 11.1147 6.99069 11.328C6.77735 11.5307 6.56402 11.6907 6.35069 11.808C6.13736 11.936 5.87602 12.0373 5.56669 12.112C5.26802 12.1867 4.98002 12.224 4.70269 12.224C4.53202 12.224 4.29735 12.192 3.99869 12.128C3.71069 12.0747 3.44402 12.0053 3.19869 11.92C2.99602 11.8347 2.80402 11.7707 2.62269 11.728C2.45202 11.6747 2.33469 11.648 2.27069 11.648C2.16402 11.648 2.02535 11.696 1.85469 11.792C1.69469 11.8773 1.58269 11.9467 1.51869 12L0.462688 8.736L0.750688 8.624C0.974688 9.08267 1.24135 9.53067 1.55069 9.968C1.87069 10.3947 2.21202 10.7467 2.57469 11.024C2.82002 11.2053 3.12402 11.3653 3.48669 11.504C3.86002 11.632 4.21202 11.696 4.54269 11.696C4.76669 11.696 5.00669 11.6693 5.26269 11.616C5.51869 11.5627 5.71602 11.4987 5.85469 11.424C6.03602 11.3173 6.20136 11.1947 6.35069 11.056C6.51069 10.9067 6.64402 10.7467 6.75069 10.576C6.86802 10.3947 6.94802 10.1973 6.99069 9.984C7.04402 9.76 7.07069 9.54667 7.07069 9.344C7.07069 9.13067 7.04402 8.92267 6.99069 8.72C6.94802 8.51733 6.87335 8.336 6.76669 8.176C6.66002 8.00533 6.52669 7.86133 6.36669 7.744C6.21735 7.616 6.05202 7.49867 5.87069 7.392C5.73202 7.30667 5.52935 7.21067 5.26269 7.104C4.99602 6.98667 4.78269 6.896 4.62269 6.832C4.42002 6.74667 4.16402 6.64 3.85469 6.512C3.55602 6.37333 3.28402 6.25067 3.03869 6.144C2.82535 6.03733 2.57469 5.89867 2.28669 5.728C2.00935 5.55733 1.78002 5.35467 1.59869 5.12C1.42802 4.90667 1.28935 4.65067 1.18269 4.352C1.07602 4.05333 1.02269 3.77067 1.02269 3.504C1.02269 3.30133 1.04402 3.06133 1.08669 2.784C1.12935 2.50667 1.19335 2.272 1.27869 2.08C1.36402 1.90933 1.46002 1.744 1.56669 1.584C1.67335 1.424 1.79069 1.28533 1.91869 1.168C2.04669 1.05067 2.20135 0.944 2.38269 0.848C2.56402 0.741333 2.74535 0.656 2.92669 0.591999C3.06535 0.538666 3.25735 0.495999 3.50269 0.464C3.75869 0.432 3.94002 0.415999 4.04669 0.415999C4.22802 0.415999 4.45202 0.447999 4.71869 0.511999C4.98535 0.565332 5.21469 0.645333 5.40669 0.752C5.58802 0.837333 5.75869 0.927999 5.91869 1.024C6.08935 1.10933 6.20669 1.152 6.27069 1.152C6.36669 1.152 6.48402 1.104 6.62269 1.008C6.76136 0.911999 6.86269 0.826666 6.92669 0.752L7.74269 3.728ZM17.6511 2.016C17.6511 1.952 17.6457 1.88267 17.6351 1.808C17.6244 1.72267 17.6084 1.65867 17.5871 1.616C17.5657 1.552 17.5337 1.49867 17.4911 1.456C17.4591 1.40267 17.4164 1.36 17.3631 1.328C17.3204 1.296 17.2671 1.26933 17.2031 1.248C17.1391 1.216 17.0751 1.19467 17.0111 1.184C16.9364 1.16267 16.8297 1.14667 16.6911 1.136C16.5524 1.12533 16.4457 1.12 16.3711 1.12V0.639999H19.4431V1.12C19.3684 1.12 19.2617 1.12533 19.1231 1.136C18.9951 1.14667 18.8884 1.16267 18.8031 1.184C18.7391 1.19467 18.6751 1.216 18.6111 1.248C18.5577 1.26933 18.5044 1.296 18.4511 1.328C18.4084 1.36 18.3657 1.40267 18.3231 1.456C18.2804 1.49867 18.2484 1.552 18.2271 1.616C18.2164 1.65867 18.2004 1.72267 18.1791 1.808C18.1684 1.88267 18.1631 1.952 18.1631 2.016V12H17.6031L10.9951 1.648V10.624C10.9951 10.688 11.0004 10.7627 11.0111 10.848C11.0324 10.9227 11.0484 10.9813 11.0591 11.024C11.0804 11.088 11.1124 11.1467 11.1551 11.2C11.1977 11.2427 11.2404 11.28 11.2831 11.312C11.3364 11.344 11.3897 11.3707 11.4431 11.392C11.5071 11.4133 11.5711 11.4347 11.6351 11.456C11.7204 11.4667 11.8271 11.4827 11.9551 11.504C12.0937 11.5147 12.2004 11.52 12.2751 11.52V12H9.20306V11.52C9.27773 11.52 9.3844 11.5147 9.52306 11.504C9.66173 11.4827 9.7684 11.4667 9.84306 11.456C9.90706 11.4347 9.97106 11.4133 10.0351 11.392C10.0991 11.3707 10.1524 11.344 10.1951 11.312C10.2484 11.28 10.2911 11.2427 10.3231 11.2C10.3657 11.1467 10.3977 11.088 10.4191 11.024C10.4404 10.9813 10.4564 10.9227 10.4671 10.848C10.4777 10.7627 10.4831 10.688 10.4831 10.624V2.016C10.4831 1.952 10.4777 1.88267 10.4671 1.808C10.4564 1.72267 10.4404 1.65867 10.4191 1.616C10.3977 1.552 10.3657 1.49867 10.3231 1.456C10.2911 1.40267 10.2484 1.36 10.1951 1.328C10.1524 1.296 10.0991 1.26933 10.0351 1.248C9.97106 1.216 9.90706 1.19467 9.84306 1.184C9.7684 1.16267 9.66173 1.14667 9.52306 1.136C9.3844 1.12533 9.27773 1.12 9.20306 1.12V0.639999H11.3471L17.6511 10.16V2.016ZM27.6467 3.728L27.4067 3.824C27.268 3.57867 27.1294 3.33333 26.9907 3.088C26.8627 2.84267 26.7187 2.60267 26.5587 2.368C26.42 2.15467 26.2547 1.96267 26.0627 1.792C25.8814 1.61067 25.716 1.472 25.5667 1.376C25.332 1.22667 25.076 1.10933 24.7987 1.024C24.5214 0.938666 24.2494 0.896 23.9827 0.896C23.748 0.896 23.5027 0.938666 23.2467 1.024C23.0014 1.09867 22.788 1.21067 22.6067 1.36C22.4787 1.46667 22.356 1.6 22.2387 1.76C22.132 1.92 22.0467 2.07467 21.9827 2.224C21.9187 2.384 21.8707 2.56 21.8387 2.752C21.8174 2.93333 21.8067 3.08267 21.8067 3.2C21.8067 3.41333 21.844 3.62667 21.9187 3.84C22.004 4.04267 22.1 4.21867 22.2067 4.368C22.324 4.528 22.4947 4.68267 22.7187 4.832C22.9534 4.97067 23.172 5.08267 23.3747 5.168C23.62 5.27467 23.8707 5.38133 24.1267 5.488C24.3934 5.584 24.628 5.66933 24.8307 5.744C25.0547 5.81867 25.3 5.90933 25.5667 6.016C25.8334 6.112 26.068 6.21867 26.2707 6.336C26.516 6.47467 26.7347 6.61867 26.9267 6.768C27.1294 6.90667 27.3 7.08267 27.4387 7.296C27.588 7.50933 27.7054 7.78133 27.7907 8.112C27.8867 8.44267 27.9347 8.75733 27.9347 9.056C27.9347 9.25867 27.8867 9.53067 27.7907 9.872C27.7054 10.2027 27.588 10.48 27.4387 10.704C27.3 10.9067 27.1187 11.1147 26.8947 11.328C26.6814 11.5307 26.468 11.6907 26.2547 11.808C26.0414 11.936 25.78 12.0373 25.4707 12.112C25.172 12.1867 24.884 12.224 24.6067 12.224C24.436 12.224 24.2014 12.192 23.9027 12.128C23.6147 12.0747 23.348 12.0053 23.1027 11.92C22.9 11.8347 22.708 11.7707 22.5267 11.728C22.356 11.6747 22.2387 11.648 22.1747 11.648C22.068 11.648 21.9294 11.696 21.7587 11.792C21.5987 11.8773 21.4867 11.9467 21.4227 12L20.3667 8.736L20.6547 8.624C20.8787 9.08267 21.1454 9.53067 21.4547 9.968C21.7747 10.3947 22.116 10.7467 22.4787 11.024C22.724 11.2053 23.028 11.3653 23.3907 11.504C23.764 11.632 24.116 11.696 24.4467 11.696C24.6707 11.696 24.9107 11.6693 25.1667 11.616C25.4227 11.5627 25.62 11.4987 25.7587 11.424C25.94 11.3173 26.1054 11.1947 26.2547 11.056C26.4147 10.9067 26.548 10.7467 26.6547 10.576C26.772 10.3947 26.852 10.1973 26.8947 9.984C26.948 9.76 26.9747 9.54667 26.9747 9.344C26.9747 9.13067 26.948 8.92267 26.8947 8.72C26.852 8.51733 26.7774 8.336 26.6707 8.176C26.564 8.00533 26.4307 7.86133 26.2707 7.744C26.1214 7.616 25.956 7.49867 25.7747 7.392C25.636 7.30667 25.4334 7.21067 25.1667 7.104C24.9 6.98667 24.6867 6.896 24.5267 6.832C24.324 6.74667 24.068 6.64 23.7587 6.512C23.46 6.37333 23.188 6.25067 22.9427 6.144C22.7294 6.03733 22.4787 5.89867 22.1907 5.728C21.9134 5.55733 21.684 5.35467 21.5027 5.12C21.332 4.90667 21.1934 4.65067 21.0867 4.352C20.98 4.05333 20.9267 3.77067 20.9267 3.504C20.9267 3.30133 20.948 3.06133 20.9907 2.784C21.0334 2.50667 21.0974 2.272 21.1827 2.08C21.268 1.90933 21.364 1.744 21.4707 1.584C21.5774 1.424 21.6947 1.28533 21.8227 1.168C21.9507 1.05067 22.1054 0.944 22.2867 0.848C22.468 0.741333 22.6494 0.656 22.8307 0.591999C22.9694 0.538666 23.1614 0.495999 23.4067 0.464C23.6627 0.432 23.844 0.415999 23.9507 0.415999C24.132 0.415999 24.356 0.447999 24.6227 0.511999C24.8894 0.565332 25.1187 0.645333 25.3107 0.752C25.492 0.837333 25.6627 0.927999 25.8227 1.024C25.9934 1.10933 26.1107 1.152 26.1747 1.152C26.2707 1.152 26.388 1.104 26.5267 1.008C26.6654 0.911999 26.7667 0.826666 26.8307 0.752L27.6467 3.728ZM30.7711 9.472C30.7711 9.216 30.8564 8.99733 31.0271 8.816C31.2084 8.63467 31.4217 8.544 31.6671 8.544C31.9337 8.544 32.1471 8.63467 32.3071 8.816C32.4777 8.99733 32.5631 9.216 32.5631 9.472C32.5631 9.728 32.4777 9.94667 32.3071 10.128C32.1471 10.3093 31.9337 10.4 31.6671 10.4C31.4217 10.4 31.2084 10.3093 31.0271 10.128C30.8564 9.94667 30.7711 9.728 30.7711 9.472ZM30.7711 3.632C30.7711 3.376 30.8564 3.15733 31.0271 2.976C31.2084 2.79467 31.4217 2.704 31.6671 2.704C31.9337 2.704 32.1471 2.79467 32.3071 2.976C32.4777 3.15733 32.5631 3.376 32.5631 3.632C32.5631 3.888 32.4777 4.10667 32.3071 4.288C32.1471 4.46933 31.9337 4.56 31.6671 4.56C31.4217 4.56 31.2084 4.46933 31.0271 4.288C30.8564 4.10667 30.7711 3.888 30.7711 3.632Z" fill="#55585B"/>
</svg>
