<svg width="18" height="13" viewBox="0 0 18 13" fill="none" xmlns="http://www.w3.org/2000/svg">
<path d="M9 0.547852C5.04856 0.547852 1.65436 2.92186 0.151954 6.32057C0.0495662 6.55219 0.0495663 6.81624 0.151954 7.04786C1.65436 10.4466 5.04856 12.8206 9 12.8206C12.9514 12.8206 16.3456 10.4466 17.848 7.04786C17.9504 6.81624 17.9504 6.55219 17.848 6.32057C16.3456 2.92186 12.9514 0.547852 9 0.547852ZM9 10.7751C6.74182 10.7751 4.90909 8.9424 4.90909 6.68422C4.90909 4.42603 6.74182 2.59331 9 2.59331C11.2582 2.59331 13.0909 4.42603 13.0909 6.68422C13.0909 8.9424 11.2582 10.7751 9 10.7751ZM9 4.22967C7.64182 4.22967 6.54545 5.32603 6.54545 6.68422C6.54545 8.0424 7.64182 9.13876 9 9.13876C10.3582 9.13876 11.4545 8.0424 11.4545 6.68422C11.4545 5.32603 10.3582 4.22967 9 4.22967Z" fill="#A5A8AB"/>
</svg>
