<svg width="16" height="15" viewBox="0 0 16 15" fill="none" xmlns="http://www.w3.org/2000/svg">
<path d="M6.6668 8.16697C6.9531 8.54972 7.31837 8.86642 7.73783 9.09559C8.1573 9.32477 8.62114 9.46105 9.0979 9.49519C9.57466 9.52934 10.0532 9.46055 10.501 9.29349C10.9489 9.12643 11.3555 8.86501 11.6935 8.52697L13.6935 6.52697C14.3007 5.89829 14.6366 5.05629 14.629 4.1823C14.6215 3.30831 14.2709 2.47227 13.6529 1.85424C13.0348 1.23621 12.1988 0.88565 11.3248 0.878056C10.4508 0.870461 9.60881 1.20644 8.98013 1.81364L7.83347 2.95364M9.33347 6.83363C9.04716 6.45088 8.68189 6.13418 8.26243 5.90501C7.84297 5.67584 7.37913 5.53956 6.90237 5.50541C6.4256 5.47127 5.94708 5.54006 5.49924 5.70711C5.0514 5.87417 4.64472 6.13559 4.3068 6.47363L2.3068 8.47363C1.69961 9.10231 1.36363 9.94432 1.37122 10.8183C1.37881 11.6923 1.72938 12.5283 2.3474 13.1464C2.96543 13.7644 3.80147 14.115 4.67546 14.1225C5.54945 14.1301 6.39146 13.7942 7.02013 13.187L8.16013 12.047" stroke="white" stroke-linecap="round" stroke-linejoin="round"/>
</svg>
