<svg width="20" height="17" viewBox="0 0 20 17" fill="none" xmlns="http://www.w3.org/2000/svg">
<path d="M17.8822 1.42943L17.1463 0.693489C16.9383 0.485498 16.5543 0.517507 16.3143 0.805452L13.7541 3.34942C12.602 2.85348 11.3382 2.61348 10.0101 2.61348C6.05798 2.62941 2.6342 4.93338 0.986083 8.24559C0.890056 8.45358 0.890056 8.70951 0.986083 8.8855C1.75402 10.4535 2.90609 11.7496 4.34609 12.7255L2.2501 14.8535C2.0101 15.0935 1.97809 15.4774 2.13813 15.6855L2.87408 16.4214C3.08207 16.6294 3.46606 16.5974 3.70606 16.3094L17.754 2.26155C18.058 2.02168 18.09 1.63772 17.882 1.42971L17.8822 1.42943ZM10.8581 6.26132C10.5861 6.1973 10.2981 6.11735 10.0261 6.11735C8.66606 6.11735 7.57818 7.20537 7.57818 8.56528C7.57818 8.83729 7.64219 9.12523 7.72215 9.39725L6.65003 10.4533C6.33008 9.89333 6.15409 9.26923 6.15409 8.56531C6.15409 6.43733 7.86611 4.72531 9.99409 4.72531C10.6982 4.72531 11.3221 4.90129 11.8821 5.22125L10.8581 6.26132Z" fill="#A5A8AB"/>
<path d="M19.0347 8.24577C18.4747 7.12572 17.7386 6.11779 16.8267 5.30176L13.8507 8.24577V8.56572C13.8507 10.6937 12.1387 12.4057 10.0107 12.4057H9.69072L7.80273 14.2937C8.50679 14.4377 9.24274 14.5337 9.96274 14.5337C13.9149 14.5337 17.3386 12.2297 18.9868 8.90159C19.1307 8.67752 19.1307 8.45361 19.0347 8.2456L19.0347 8.24577Z" fill="#A5A8AB"/>
</svg>
