<svg width="149" height="34" viewBox="0 0 149 34" fill="none" xmlns="http://www.w3.org/2000/svg">
<g clip-path="url(#clip0_2741_73132)">
<path d="M62.6232 22.1792C63.7236 21.4567 64.5655 20.6281 65.1422 19.7C65.7189 18.7455 66.0106 17.7445 66.0106 16.7038C66.0106 15.8354 65.8647 15.0267 65.5731 14.271C65.3146 13.5153 64.8903 12.8657 64.3136 12.3155C63.7369 11.7653 62.9812 11.3278 62.0532 11.0096C61.1583 10.6915 60.0579 10.5324 58.752 10.5324C57.2738 10.5324 55.9016 10.7909 54.6223 11.3146C53.3495 11.8051 52.2359 12.5608 51.2747 13.575C50.7179 14.165 50.234 14.861 49.8164 15.6299C49.7898 15.6697 49.7633 15.7029 49.7368 15.7493C49.7169 15.789 49.7037 15.8288 49.6838 15.8686C49.4584 16.3061 49.2397 16.7701 49.0607 17.2606C48.9679 17.5192 48.895 17.7976 48.822 18.0693C47.4167 22.04 47.9537 23.2199 46.7008 25.8648C45.7264 27.9264 44.5464 29.9084 42.5247 30.969C40.6553 31.9501 39.661 30.7834 39.661 29.4643C39.661 28.3573 39.9394 26.8393 40.4896 24.9037C41.1127 22.9018 42.0474 20.4425 43.287 17.5457C44.4603 14.7152 45.4281 12.2227 46.1904 10.0816C46.9527 7.9405 47.3306 6.17723 47.3306 4.79181C47.3306 2.51149 46.0843 1.37133 43.5985 1.37133C41.9413 1.37133 40.1051 2.306 38.1032 4.1687C36.1013 5.96511 34.1988 8.14599 32.4024 10.6981C33.3702 8.34486 33.8542 6.5153 33.8542 5.2028C33.8542 2.64407 32.5085 1.3647 29.8106 1.3647C28.1534 1.3647 26.3172 2.29937 24.3153 4.16207C22.3134 5.95848 20.4109 8.13936 18.6145 10.6915C19.0984 9.30604 19.4762 8.06645 19.7546 6.95943C20.0331 5.85242 20.1723 4.91776 20.1723 4.16207C20.1723 2.71036 19.6884 1.77569 18.7205 1.3647C17.819 1.02001 17.0302 0.847656 16.3342 0.847656C14.8162 0.847656 13.4639 1.39785 12.2906 2.50486C11.1173 3.53896 10.0766 4.85147 9.18166 6.44238C8.35306 7.96039 7.5576 9.45187 6.79529 10.9036C6.03297 12.4216 5.13808 14.1517 4.09736 16.0873C3.12955 17.9567 2.09545 19.7531 0.988437 21.4766C0.849232 21.755 0.849232 21.9605 0.988437 22.0997C1.12764 22.2389 1.29999 22.3052 1.50549 22.3052C1.7839 22.3052 1.95625 22.1991 2.02253 21.9936C3.05663 20.3364 4.09736 18.5731 5.13145 16.7038C6.23847 14.7682 7.20627 13.0049 8.03488 11.414C8.45249 10.6517 8.96954 9.65074 9.59265 8.40452C10.282 7.09201 11.0444 5.91871 11.873 4.87798C12.7016 3.84389 13.5302 3.32021 14.3588 3.32021C15.0482 3.32021 15.3929 3.83726 15.3929 4.87798C15.3929 5.7795 15.1145 7.01909 14.5643 8.61001C14.0804 10.128 13.4904 11.7189 12.801 13.3761C12.1116 14.9671 11.4885 16.3856 10.9317 17.6252C9.96387 20.0447 9.13526 21.9804 8.44586 23.4321C7.75647 24.8175 7.10021 26.1963 6.4771 27.5817C5.85399 28.9671 5.05854 30.7635 4.09073 32.9709C4.85304 32.6925 5.6485 32.5533 6.4771 32.5533C7.37862 32.5533 8.20723 32.4141 8.96291 32.1357C9.72523 31.8573 10.3086 31.201 10.7262 30.167C11.1438 29.0599 11.8 27.469 12.6949 25.4008C13.5965 23.2597 14.6637 20.9794 15.9099 18.5599C17.1561 16.1404 18.4686 13.8269 19.8474 11.6129C21.2329 9.39884 22.6117 7.60243 23.9971 6.22363C25.4488 4.77192 26.8342 4.04938 28.1467 4.04938C29.0085 4.04938 29.7111 4.79181 29.7045 5.65355C29.6912 6.54845 29.3797 7.70186 28.7698 9.12706C28.1467 10.5788 27.4573 12.0636 26.695 13.5883C25.9327 15.1063 25.2765 16.4585 24.7263 17.6318C23.6922 19.9851 22.8238 21.8809 22.1344 23.3326C21.5113 24.7843 20.8882 26.2029 20.2651 27.5817C19.6419 28.9671 18.8465 30.7635 17.8787 32.9709C18.641 32.6925 19.4365 32.5533 20.2651 32.5533C21.1666 32.5533 21.9952 32.4141 22.7509 32.1357C23.5132 31.8573 24.0965 31.201 24.5141 30.167C24.9318 29.0599 25.588 27.469 26.4829 25.4008C27.3844 23.2597 28.4517 20.9794 29.6979 18.5599C30.9441 16.1404 32.2566 13.8269 33.6354 11.6129C35.0208 9.39884 36.3996 7.60243 37.785 6.22363C39.2368 4.77192 40.6156 4.04938 41.9347 4.04938C42.9025 4.04938 43.3864 4.50014 43.3864 5.39503C43.3864 6.28992 43.0086 7.53614 42.2462 9.12706C41.4839 10.718 40.6222 12.342 39.6544 13.9992C38.7529 15.5902 37.9972 16.969 37.3741 18.1489C35.4384 22.2256 34.4706 25.5798 34.4706 28.2048C34.4706 31.5192 35.9223 33.1831 38.8258 33.1831C42.1336 33.1831 47.1648 29.4113 48.2785 22.272C48.2785 22.3052 48.2785 22.3383 48.2785 22.3715C48.2785 23.9624 48.4508 25.4141 48.8021 26.7133C49.1468 28.0192 49.697 29.1329 50.4527 30.0609C51.2084 30.9889 52.1762 31.7115 53.3628 32.2351C54.5493 32.7257 55.9812 32.9709 57.6649 32.9709C58.7653 32.9709 59.806 32.8715 60.7937 32.666C61.7814 32.4605 62.6498 32.2285 63.3988 31.97C64.2672 31.6783 65.0759 31.3469 65.8316 30.969L64.5257 27.8866C63.8297 28.1783 63.1204 28.4368 62.3979 28.6688C61.788 28.8743 61.1251 29.0467 60.4026 29.1925C59.68 29.3383 58.9973 29.4113 58.3609 29.4113C57.4925 29.4113 56.77 29.2787 56.1867 29.0202C55.61 28.7616 55.1327 28.4103 54.7548 27.9794C54.4101 27.5154 54.1317 26.9917 53.9262 26.415C53.7539 25.8052 53.6213 25.1688 53.5351 24.5059C55.4442 24.4794 57.1677 24.2607 58.7056 23.8563C60.2435 23.4188 61.5428 22.8554 62.6166 22.1593L62.6232 22.1792ZM53.4158 21.397C53.4423 20.5021 53.5285 19.6139 53.6743 18.7455C53.8467 17.8506 54.1251 17.0485 54.5029 16.3591C54.8808 15.6366 55.3713 15.0532 55.9812 14.6224C56.6175 14.1583 57.413 13.9263 58.3675 13.9263C59.1763 13.9263 59.8325 14.1849 60.323 14.7085C60.8136 15.1991 61.0588 15.8686 61.0588 16.7038C61.0588 17.2275 60.913 17.7445 60.6213 18.2682C60.3628 18.7919 59.9253 19.2824 59.3155 19.7464C58.7056 20.1839 57.9102 20.5552 56.9291 20.8733C55.9745 21.165 54.8012 21.3374 53.4092 21.397H53.4158Z" fill="#005CF9"/>
<path d="M97.7572 12.7982C97.3197 12.1354 96.7165 11.6249 95.9343 11.2802C95.1786 10.9024 94.2373 10.7168 93.1104 10.7168C91.7515 10.7168 90.4456 11.035 89.1994 11.6713C87.9863 12.2812 86.9853 13.3087 86.2031 14.7538C85.7988 13.5672 85.1757 12.5928 84.3338 11.8437C83.5251 11.088 82.3783 10.7168 80.9001 10.7168C79.4219 10.7168 78.0165 11.1079 76.6842 11.8901C75.3783 12.6458 74.3707 13.8854 73.6415 15.6288C73.4957 14.8731 73.3101 14.2102 73.0781 13.6335C72.8461 13.0236 72.6141 12.5198 72.382 12.1155C72.0904 11.6515 71.8053 11.2604 71.5137 10.9422L67.6027 12.5066C67.9805 13.0303 68.3252 13.7064 68.6434 14.5483C68.9019 15.2708 69.1472 16.2254 69.3792 17.4185C69.6112 18.5786 69.7239 20.0237 69.7239 21.7604V32.7112H74.6756V21.9394C74.6756 20.8125 74.8082 19.7983 75.0667 18.8968C75.3584 17.9687 75.7163 17.1865 76.1538 16.5502C76.6179 15.9138 77.1217 15.4365 77.6718 15.1183C78.2486 14.7736 78.8319 14.5947 79.4086 14.5947C80.3366 14.5947 80.9863 14.9592 81.3641 15.6818C81.7419 16.3778 81.9276 17.3324 81.9276 18.5521V32.7179H86.8329V21.1638C86.8329 20.1761 86.9787 19.2812 87.2704 18.4725C87.5621 17.6638 87.9399 16.9678 88.3973 16.3844C88.8613 15.8077 89.3651 15.3702 89.9153 15.0786C90.492 14.7604 91.0555 14.6013 91.6123 14.6013C92.5403 14.6013 93.1899 14.9659 93.5678 15.6884C93.9456 16.3844 94.1312 17.339 94.1312 18.5587V32.7245H99.0432V18.214C99.0432 17.0871 98.9438 16.0729 98.7383 15.1714C98.5328 14.2433 98.2013 13.4611 97.7373 12.8248L97.7572 12.7982Z" fill="#005CF9"/>
<path d="M112.294 10.5398C110.643 10.5398 109.198 10.8448 107.952 11.4546C106.706 12.0313 105.665 12.8467 104.823 13.8874C104.014 14.9016 103.405 16.1147 103 17.5399C102.596 18.9319 102.39 20.4499 102.39 22.1005C102.39 23.7511 102.563 25.342 102.914 26.7075C103.292 28.0664 103.869 29.2265 104.651 30.181C105.433 31.1356 106.421 31.878 107.607 32.3951C108.827 32.8856 110.259 33.1309 111.909 33.1309C113.56 33.1309 115.012 32.8392 116.251 32.2625C117.497 31.6526 118.525 30.8439 119.334 29.8297C120.176 28.789 120.799 27.5693 121.203 26.1772C121.607 24.7587 121.813 23.2407 121.813 21.6166C121.813 18.1696 121.057 15.465 119.552 13.4897C118.048 11.5209 115.628 10.5332 112.294 10.5332V10.5398ZM116.291 24.9642C116.172 25.859 115.96 26.6611 115.641 27.3505C115.35 28.0134 114.932 28.5371 114.382 28.9149C113.858 29.2928 113.182 29.4784 112.34 29.4784C111.412 29.4784 110.643 29.2729 110.04 28.8685C109.463 28.4642 108.999 27.914 108.648 27.218C108.303 26.4954 108.051 25.6536 107.912 24.699C107.8 23.7445 107.74 22.7302 107.74 21.6564C107.74 20.5825 107.8 19.6412 107.912 18.7463C108.032 17.8183 108.23 17.0228 108.522 16.3599C108.84 15.6639 109.264 15.127 109.782 14.7558C110.332 14.3779 111.028 14.1923 111.87 14.1923C112.798 14.1923 113.547 14.3978 114.13 14.8022C114.74 15.2065 115.217 15.77 115.562 16.4991C115.907 17.2217 116.139 18.0635 116.258 19.0181C116.404 19.9726 116.477 20.9869 116.477 22.0607C116.477 23.1346 116.417 24.0759 116.304 24.9708L116.291 24.9642Z" fill="#005CF9"/>
<path d="M132.087 29.1791C131.975 29.2056 131.842 29.2255 131.696 29.2255H131.345C130.941 29.2255 130.636 29.1128 130.43 28.8808C130.225 28.6488 130.125 28.198 130.125 27.5351V11.0625H125.174V27.9594C125.174 29.4045 125.578 30.5976 126.387 31.5191C127.195 32.4139 128.369 32.8647 129.907 32.8647C130.397 32.8647 130.835 32.8382 131.212 32.7785C131.617 32.7189 131.948 32.646 132.213 32.5598C132.532 32.4736 132.79 32.3742 132.996 32.2549L132.472 29.126C132.326 29.1526 132.2 29.1724 132.081 29.1724L132.087 29.1791Z" fill="#005CF9"/>
<path d="M127.612 7.40924C128.6 7.40924 129.336 7.11758 129.826 6.54087C130.35 5.96416 130.609 5.23499 130.609 4.36661C130.609 3.49824 130.363 2.78895 129.873 2.23876C129.382 1.68857 128.673 1.41016 127.745 1.41016C126.731 1.41016 125.962 1.70182 125.445 2.27853C124.954 2.85524 124.709 3.59767 124.709 4.49256C124.709 5.30128 124.954 5.9973 125.445 6.58064C125.968 7.13083 126.691 7.40924 127.619 7.40924H127.612Z" fill="#005CF9"/>
<path d="M148.068 11.0144C147.491 10.842 146.868 10.7559 146.199 10.7559C144.807 10.7559 143.56 11.1337 142.46 11.8828C141.36 12.6053 140.518 13.8117 139.941 15.4888C139.795 14.7332 139.61 14.0835 139.377 13.5333C139.145 12.9831 138.913 12.5059 138.681 12.1015C138.39 11.6375 138.118 11.2464 137.859 10.9282L133.948 12.4926C134.326 13.0163 134.671 13.6924 134.989 14.5343C135.248 15.2568 135.493 16.2114 135.725 17.4046C135.957 18.5646 136.07 20.0097 136.07 21.7465V32.6973H141.021V20.7919C141.021 20.0097 141.154 19.3004 141.413 18.664C141.671 18.0277 142.009 17.4907 142.413 17.0599C142.818 16.5959 143.282 16.2313 143.806 15.9727C144.329 15.7142 144.846 15.5816 145.37 15.5816C146.092 15.5816 146.629 15.6678 146.974 15.8402C147.352 15.986 147.524 16.0589 147.498 16.0589L148.89 11.2398C148.89 11.2398 148.645 11.1668 148.068 11.021V11.0144Z" fill="#005CF9"/>
</g>
<defs>
<clipPath id="clip0_2741_73132">
<rect width="148.892" height="33.1867" fill="white"/>
</clipPath>
</defs>
</svg>
