<svg width="17" height="20" viewBox="0 0 17 20" fill="none" xmlns="http://www.w3.org/2000/svg"><path d="M8.2 10.9C9.69117 10.9 10.9 9.69117 10.9 8.2C10.9 6.70883 9.69117 5.5 8.2 5.5C6.70883 5.5 5.5 6.70883 5.5 8.2C5.5 9.69117 6.70883 10.9 8.2 10.9Z" stroke="#75797D" stroke-width="2" stroke-linecap="round" stroke-linejoin="round"/><path d="M7.06491 17.8719C7.46505 18.2691 7.66512 18.4676 7.89242 18.5411C8.09336 18.606 8.30664 18.606 8.50758 18.5411C8.73488 18.4676 8.93495 18.2691 9.33509 17.8719C12.5195 14.7115 15.4 11.757 15.4 8.2C15.4 4.22355 12.1764 1 8.2 1C4.22355 1 1 4.22355 1 8.2C1 11.757 3.88052 14.7115 7.06491 17.8719Z" stroke="#75797D" stroke-width="2" stroke-linecap="round" stroke-linejoin="round"/></svg>
