<svg width="24" height="24" viewBox="0 0 24 24" fill="none" xmlns="http://www.w3.org/2000/svg">
<g clip-path="url(#clip0_4526_126394)">
<rect width="24" height="24" fill="white"/>
<path fill-rule="evenodd" clip-rule="evenodd" d="M5.32143 6C4.93958 6 4.5 6.35906 4.5 6.96875V12.8025L7.13836 9.27263C7.16702 9.23429 7.19839 9.19806 7.23223 9.16421C8.20855 8.1879 9.79146 8.1879 10.7678 9.16421C10.7885 9.18499 10.8084 9.20667 10.8273 9.22919L14.3982 13.4924L15.4822 12.4142L15.4834 12.413C16.4598 11.4379 18.0418 11.4383 19.0178 12.4142C19.0418 12.4383 19.0647 12.4636 19.0862 12.49L19.5 12.9983V6.96875C19.5 6.35906 19.0604 6 18.6786 6H5.32143ZM21.5 6.96875C21.5 5.40382 20.3086 4 18.6786 4H5.32143C3.69138 4 2.5 5.40382 2.5 6.96875V18C2.5 19.1046 3.39543 20 4.5 20H19.5C20.6046 20 21.5 19.1046 21.5 18V6.96875ZM19.5 16.1662L17.576 13.8029C17.3796 13.6336 17.0828 13.6421 16.8964 13.8284L16.8945 13.8303L15.0363 15.6785C14.8377 15.876 14.5655 15.9812 14.2857 15.9685C14.0059 15.9558 13.7443 15.8263 13.5645 15.6117L9.32991 10.5562C9.14673 10.3951 8.87383 10.3907 8.68575 10.543L4.5 16.1431V17.0312C4.5 17.6409 4.93958 18 5.32143 18H18.6786C19.0604 18 19.5 17.6409 19.5 17.0312V16.1662Z" fill="#75797D"/>
<path d="M15 10.5C15.828 10.5 16.5 9.8295 16.5 9C16.5 8.172 15.828 7.5 15 7.5C14.172 7.5 13.5 8.172 13.5 9C13.5 9.8295 14.172 10.5 15 10.5Z" fill="#75797D"/>
</g>
<defs>
<clipPath id="clip0_4526_126394">
<rect width="24" height="24" rx="2" fill="white"/>
</clipPath>
</defs>
</svg>
