<svg width="24" height="24" viewBox="0 0 24 24" fill="none" xmlns="http://www.w3.org/2000/svg">
<path d="M12.2 12.9C13.6912 12.9 14.9 11.6912 14.9 10.2C14.9 8.70883 13.6912 7.5 12.2 7.5C10.7088 7.5 9.5 8.70883 9.5 10.2C9.5 11.6912 10.7088 12.9 12.2 12.9Z" stroke="#75797D" stroke-width="2" stroke-linecap="round" stroke-linejoin="round"/>
<path d="M11.0649 19.8719C11.465 20.2691 11.6651 20.4676 11.8924 20.5411C12.0934 20.606 12.3066 20.606 12.5076 20.5411C12.7349 20.4676 12.935 20.2691 13.3351 19.8719C16.5195 16.7115 19.4 13.757 19.4 10.2C19.4 6.22355 16.1764 3 12.2 3C8.22355 3 5 6.22355 5 10.2C5 13.757 7.88052 16.7115 11.0649 19.8719Z" stroke="#75797D" stroke-width="2" stroke-linecap="round" stroke-linejoin="round"/>
</svg>
